Urbanist-SemiBoldItalic.ufo
<glyph name="exclam" format="2">
  <advance width="420.0"/>
  <unicode hex="0021"/>
  <outline>
    <contour>
      <point x="90.0" y="420.0" type="line"/>
      <point x="268.6" y="420.0" type="line"/>
      <point x="405.6" y="1400.0" type="line"/>
      <point x="227.0" y="1400.0" type="line"/>
    </contour>
    <contour>
      <point x="128.6" y="-26.0" type="curve" smooth="yes"/>
      <point x="183.0" y="-26.0"/>
      <point x="232.2" y="17.0"/>
      <point x="240.2" y="74.80000000000001" type="curve" smooth="yes"/>
      <point x="249.6" y="140.60000000000002"/>
      <point x="202.4" y="195.4"/>
      <point x="136.0" y="195.4" type="curve" smooth="yes"/>
      <point x="80.19999999999999" y="195.4"/>
      <point x="31.0" y="152.4"/>
      <point x="23.4" y="98.0" type="curve" smooth="yes"/>
      <point x="14.0" y="28.8"/>
      <point x="60.8" y="-26.0"/>
    </contour>
  </outline>
</glyph>
<glyph name="numbersign" format="2">
  <advance width="1552.75"/>
  <unicode hex="0023"/>
  <outline>
    <contour>
      <point x="1474.4" y="894.4" type="line"/>
      <point x="1558.0" y="1097.4" type="line"/>
      <point x="1380.0" y="1097.4" type="line"/>
      <point x="1502.6" y="1400.0" type="line"/>
      <point x="1290.1999999999998" y="1400.0" type="line"/>
      <point x="1167.8" y="1097.4" type="line"/>
      <point x="766.5999999999999" y="1097.4" type="line"/>
      <point x="890.6" y="1400.0" type="line"/>
      <point x="677.8000000000001" y="1400.0" type="line"/>
      <point x="554.4" y="1097.4" type="line"/>
      <point x="375.8" y="1097.4" type="line"/>
      <point x="291.6" y="894.4" type="line"/>
      <point x="471.6" y="894.4" type="line"/>
      <point x="312.20000000000005" y="506.8" type="line"/>
      <point x="134.2" y="506.8" type="line"/>
      <point x="50.6" y="303.8" type="line"/>
      <point x="229.8" y="303.8" type="line"/>
      <point x="106.6" y="0.0" type="line"/>
      <point x="319.4" y="0.0" type="line"/>
      <point x="442.6" y="303.8" type="line"/>
      <point x="842.6" y="303.8" type="line"/>
      <point x="718.6" y="0.0" type="line"/>
      <point x="931.4" y="0.0" type="line"/>
      <point x="1055.4" y="303.8" type="line"/>
      <point x="1233.4" y="303.8" type="line"/>
      <point x="1317.0" y="506.8" type="line"/>
      <point x="1137.0" y="506.8" type="line"/>
      <point x="1296.4" y="894.4" type="line"/>
    </contour>
    <contour>
      <point x="924.2" y="506.8" type="line"/>
      <point x="525.0" y="506.8" type="line"/>
      <point x="684.4" y="894.4" type="line"/>
      <point x="1083.6" y="894.4" type="line"/>
    </contour>
  </outline>
</glyph>
<glyph name="dollar" format="2">
  <advance width="1199.25"/>
  <unicode hex="0024"/>
  <outline>
    <contour>
      <point x="710.6" y="1211.6" type="curve"/>
      <point x="854.8000000000001" y="1211.6"/>
      <point x="980.8000000000001" y="1150.8"/>
      <point x="1001.1999999999999" y="1055.0" type="curve"/>
      <point x="1204.8000000000002" y="1114.6" type="line"/>
      <point x="1165.4" y="1285.8000000000002"/>
      <point x="990.8" y="1397.6"/>
      <point x="797.0" y="1417.8" type="curve"/>
      <point x="831.6" y="1624.0" type="line"/>
      <point x="684.4" y="1624.0" type="line"/>
      <point x="649.8" y="1419.2" type="line"/>
      <point x="403.6" y="1392.8000000000002"/>
      <point x="187.4" y="1241.8"/>
      <point x="157.0" y="1020.0" type="curve"/>
      <point x="118.8" y="748.4"/>
      <point x="330.6" y="641.1999999999999"/>
      <point x="624.6" y="595.5999999999999" type="curve"/>
      <point x="765.8" y="569.1999999999999"/>
      <point x="908.5999999999999" y="520.8000000000001"/>
      <point x="891.5999999999999" y="400.8" type="curve"/>
      <point x="873.1999999999999" y="271.40000000000003"/>
      <point x="708.8" y="184.0"/>
      <point x="542.6" y="184.0" type="curve"/>
      <point x="399.40000000000003" y="184.0"/>
      <point x="273.40000000000003" y="246.8"/>
      <point x="252.99999999999997" y="342.0" type="curve"/>
      <point x="50.6" y="280.40000000000003" type="line"/>
      <point x="88.80000000000001" y="113.0"/>
      <point x="259.40000000000003" y="0.20000000000000018"/>
      <point x="459.4" y="-20.6" type="curve"/>
      <point x="424.4" y="-224.0" type="line"/>
      <point x="571.6" y="-224.0" type="line"/>
      <point x="606.2" y="-21.4" type="line"/>
      <point x="851.8" y="5.6"/>
      <point x="1066.8" y="156.0"/>
      <point x="1097.8" y="377.0" type="curve"/>
      <point x="1133.3999999999999" y="629.0"/>
      <point x="906.8" y="760.2"/>
      <point x="630.1999999999999" y="802.6" type="curve"/>
      <point x="469.0" y="832.8"/>
      <point x="343.8" y="854.0"/>
      <point x="363.8" y="996.8" type="curve"/>
      <point x="381.20000000000005" y="1122.8000000000002"/>
      <point x="547.0" y="1213.0"/>
    </contour>
  </outline>
</glyph>
<glyph name="percent" format="2">
  <advance width="1434.25"/>
  <unicode hex="0025"/>
  <outline>
    <contour>
      <point x="119.4" y="0.0" type="line"/>
      <point x="365.8" y="0.0" type="line"/>
      <point x="1370.8" y="1400.0" type="line"/>
      <point x="1123.3999999999999" y="1400.0" type="line"/>
    </contour>
    <contour>
      <point x="416.6" y="812.8" type="curve" smooth="yes"/>
      <point x="560.5999999999999" y="812.8"/>
      <point x="700.1999999999999" y="927.5999999999999"/>
      <point x="722.0" y="1080.4" type="curve" smooth="yes"/>
      <point x="744.8" y="1242.4"/>
      <point x="630.6" y="1372.4"/>
      <point x="471.8" y="1372.4" type="curve" smooth="yes"/>
      <point x="326.40000000000003" y="1372.4"/>
      <point x="186.2" y="1257.8"/>
      <point x="165.4" y="1103.6" type="curve" smooth="yes"/>
      <point x="142.2" y="941.6"/>
      <point x="257.2" y="812.8"/>
    </contour>
    <contour>
      <point x="413.40000000000003" y="960.0" type="curve" smooth="yes"/>
      <point x="345.6" y="960.0"/>
      <point x="299.8" y="1013.0"/>
      <point x="309.40000000000003" y="1080.4" type="curve" smooth="yes"/>
      <point x="319.8" y="1160.4"/>
      <point x="394.8" y="1224.6"/>
      <point x="474.8" y="1224.6" type="curve" smooth="yes"/>
      <point x="541.4" y="1224.6"/>
      <point x="587.6" y="1171.6"/>
      <point x="578.0" y="1103.6" type="curve" smooth="yes"/>
      <point x="566.6" y="1024.8"/>
      <point x="492.2" y="960.0"/>
    </contour>
    <contour>
      <point x="1018.5999999999999" y="26.799999999999997" type="curve" smooth="yes"/>
      <point x="1167.2" y="26.799999999999997"/>
      <point x="1304.6000000000001" y="147.8"/>
      <point x="1325.6000000000001" y="295.0" type="curve" smooth="yes"/>
      <point x="1347.4" y="450.6"/>
      <point x="1239.6000000000001" y="587.8"/>
      <point x="1074.3999999999999" y="587.8" type="curve" smooth="yes"/>
      <point x="929.8000000000001" y="587.8"/>
      <point x="789.6" y="471.0"/>
      <point x="767.8" y="318.8" type="curve" smooth="yes"/>
      <point x="745.4" y="164.0"/>
      <point x="856.5999999999999" y="26.799999999999997"/>
    </contour>
    <contour>
      <point x="1015.5999999999999" y="174.0" type="curve" smooth="yes"/>
      <point x="949.6" y="174.0"/>
      <point x="902.2" y="228.4"/>
      <point x="911.8000000000001" y="295.0" type="curve" smooth="yes"/>
      <point x="923.2" y="374.4"/>
      <point x="998.2" y="440.0"/>
      <point x="1076.3999999999999" y="440.0" type="curve" smooth="yes"/>
      <point x="1144.1999999999998" y="440.0"/>
      <point x="1190.6" y="385.6"/>
      <point x="1181.0" y="318.8" type="curve" smooth="yes"/>
      <point x="1170.6" y="239.6"/>
      <point x="1095.6" y="174.0"/>
    </contour>
  </outline>
</glyph>
<glyph name="ampersand" format="2">
  <advance width="1426.0"/>
  <unicode hex="0026"/>
  <outline>
    <contour>
      <point x="440.0" y="-26.0" type="curve" smooth="yes"/>
      <point x="604.0" y="-26.0"/>
      <point x="666.5999999999999" y="21.6"/>
      <point x="918.4" y="242.60000000000002" type="curve"/>
      <point x="1131.8" y="0.0" type="line"/>
      <point x="1297.0" y="148.4" type="line"/>
      <point x="1083.0" y="395.8" type="line"/>
      <point x="1193.8" y="490.4" type="line"/>
      <point x="1230.6" y="786.6" type="line"/>
      <point x="952.5999999999999" y="545.4" type="line"/>
      <point x="701.0" y="840.5999999999999" type="line"/>
      <point x="839.4" y="959.4"/>
      <point x="882.4" y="1009.5999999999999"/>
      <point x="897.4" y="1118.8000000000002" type="curve" smooth="yes"/>
      <point x="922.4" y="1297.0"/>
      <point x="797.4" y="1438.8"/>
      <point x="622.6" y="1438.8" type="curve" smooth="yes"/>
      <point x="463.40000000000003" y="1438.8"/>
      <point x="310.0" y="1311.8"/>
      <point x="286.0" y="1142.0" type="curve" smooth="yes"/>
      <point x="269.6" y="1024.0"/>
      <point x="302.0" y="972.2"/>
      <point x="403.6" y="852.5999999999999" type="curve"/>
      <point x="151.6" y="631.4"/>
      <point x="90.6" y="573.6"/>
      <point x="67.4" y="408.6" type="curve" smooth="yes"/>
      <point x="34.8" y="179.6"/>
      <point x="190.6" y="-26.0"/>
    </contour>
    <contour>
      <point x="445.59999999999997" y="184.0" type="curve" smooth="yes"/>
      <point x="338.8" y="184.0"/>
      <point x="258.40000000000003" y="268.79999999999995"/>
      <point x="274.8" y="383.6" type="curve" smooth="yes"/>
      <point x="289.40000000000003" y="494.0"/>
      <point x="334.6" y="517.1999999999999"/>
      <point x="533.4" y="692.1999999999999" type="curve"/>
      <point x="786.0" y="400.59999999999997" type="line"/>
      <point x="592.4" y="231.6"/>
      <point x="557.8" y="184.0"/>
    </contour>
    <contour>
      <point x="558.6" y="964.0" type="curve"/>
      <point x="481.79999999999995" y="1053.6"/>
      <point x="460.6" y="1066.6"/>
      <point x="468.2" y="1122.4" type="curve" smooth="yes"/>
      <point x="478.6" y="1194.8000000000002"/>
      <point x="547.6" y="1256.0"/>
      <point x="620.6" y="1256.0" type="curve" smooth="yes"/>
      <point x="675.0" y="1256.0"/>
      <point x="724.4" y="1213.3999999999999"/>
      <point x="714.8" y="1145.6" type="curve" smooth="yes"/>
      <point x="705.4" y="1079.0"/>
      <point x="679.0" y="1067.6000000000001"/>
    </contour>
  </outline>
</glyph>
<glyph name="parenleft" format="2">
  <advance width="720.25"/>
  <unicode hex="0028"/>
  <outline>
    <contour>
      <point x="329.0" y="-107.8" type="curve"/>
      <point x="530.1999999999999" y="-116.2" type="line"/>
      <point x="401.2" y="53.199999999999996"/>
      <point x="309.8" y="324.6"/>
      <point x="348.6" y="632.4" type="curve" smooth="yes"/>
      <point x="391.40000000000003" y="903.4"/>
      <point x="586.8" y="1278.8"/>
      <point x="751.0" y="1397.2" type="curve"/>
      <point x="531.8" y="1402.4" type="line"/>
      <point x="341.79999999999995" y="1299.8000000000002"/>
      <point x="176.0" y="900.4"/>
      <point x="142.4" y="655.6" type="curve" smooth="yes"/>
      <point x="98.8" y="346.0"/>
      <point x="151.0" y="90.2"/>
    </contour>
  </outline>
</glyph>
<glyph name="parenright" format="2">
  <advance width="720.25"/>
  <unicode hex="0029"/>
  <outline>
    <contour>
      <point x="10.8" y="-107.8" type="curve"/>
      <point x="227.8" y="-116.2" type="line"/>
      <point x="461.19999999999993" y="81.8"/>
      <point x="576.8" y="334.79999999999995"/>
      <point x="619.0" y="632.4" type="curve" smooth="yes"/>
      <point x="654.4" y="888.5999999999999"/>
      <point x="592.4" y="1295.0"/>
      <point x="430.4" y="1397.6" type="curve"/>
      <point x="231.6" y="1402.8" type="line"/>
      <point x="363.59999999999997" y="1284.3999999999999"/>
      <point x="444.20000000000005" y="914.6"/>
      <point x="412.79999999999995" y="655.6" type="curve" smooth="yes"/>
      <point x="363.0" y="336.40000000000003"/>
      <point x="187.0" y="61.6"/>
    </contour>
  </outline>
</glyph>
<glyph name="asterisk" format="2">
  <advance width="717.5"/>
  <unicode hex="002A"/>
  <outline>
    <contour>
      <point x="286.8" y="841.0" type="line"/>
      <point x="417.40000000000003" y="990.4" type="line"/>
      <point x="502.8" y="841.0" type="line"/>
      <point x="630.8000000000001" y="928.4" type="line"/>
      <point x="541.6" y="1076.6" type="line"/>
      <point x="725.4" y="1132.6" type="line"/>
      <point x="698.6" y="1273.6" type="line"/>
      <point x="517.4" y="1217.4" type="line"/>
      <point x="544.1999999999999" y="1400.0" type="line"/>
      <point x="396.0" y="1400.0" type="line"/>
      <point x="370.2" y="1217.4" type="line"/>
      <point x="200.4" y="1273.6" type="line"/>
      <point x="137.6" y="1132.6" type="line"/>
      <point x="303.6" y="1076.6" type="line"/>
      <point x="174.4" y="928.4" type="line"/>
    </contour>
  </outline>
</glyph>
<glyph name="plus" format="2">
  <advance width="1160.0"/>
  <unicode hex="002B"/>
  <outline>
    <contour>
      <point x="419.0" y="100.0" type="line"/>
      <point x="629.0" y="100.0" type="line"/>
      <point x="684.6" y="495.0" type="line"/>
      <point x="1079.6" y="495.0" type="line"/>
      <point x="1108.4" y="705.0" type="line"/>
      <point x="713.4" y="705.0" type="line"/>
      <point x="769.0" y="1100.0" type="line"/>
      <point x="559.0" y="1100.0" type="line"/>
      <point x="503.4" y="705.0" type="line"/>
      <point x="108.4" y="705.0" type="line"/>
      <point x="79.6" y="495.0" type="line"/>
      <point x="474.6" y="495.0" type="line"/>
    </contour>
  </outline>
</glyph>
<glyph name="comma" format="2">
  <advance width="472.0"/>
  <unicode hex="002C"/>
  <outline>
    <contour>
      <point x="-6.4" y="-112.0" type="line"/>
      <point x="135.8" y="-112.0" type="line"/>
      <point x="315.4" y="226.0" type="line"/>
      <point x="102.6" y="226.0" type="line"/>
    </contour>
  </outline>
</glyph>
<glyph name="hyphen" format="2">
  <advance width="880.0"/>
  <unicode hex="002D"/>
  <outline>
    <contour>
      <point x="148.4" y="705.0" type="line"/>
      <point x="119.6" y="495.0" type="line"/>
      <point x="759.6" y="495.0" type="line"/>
      <point x="788.4" y="705.0" type="line"/>
    </contour>
  </outline>
</glyph>
<glyph name="period" format="2">
  <advance width="421.25"/>
  <unicode hex="002E"/>
  <outline>
    <contour>
      <point x="128.0" y="-26.0" type="curve" smooth="yes"/>
      <point x="183.0" y="-26.0"/>
      <point x="233.59999999999997" y="17.0"/>
      <point x="241.59999999999997" y="73.4" type="curve" smooth="yes"/>
      <point x="250.99999999999997" y="139.8"/>
      <point x="202.4" y="195.4"/>
      <point x="135.4" y="195.4" type="curve" smooth="yes"/>
      <point x="80.19999999999999" y="195.4"/>
      <point x="31.0" y="151.0"/>
      <point x="23.4" y="96.6" type="curve" smooth="yes"/>
      <point x="14.0" y="28.8"/>
      <point x="60.8" y="-26.0"/>
    </contour>
  </outline>
</glyph>
<glyph name="slash" format="2">
  <advance width="775.25"/>
  <unicode hex="002F"/>
  <outline>
    <contour>
      <point x="823.8" y="1400.0" type="line"/>
      <point x="610.0" y="1400.0" type="line"/>
      <point x="-7.4" y="-112.0" type="line"/>
      <point x="205.4" y="-112.0" type="line"/>
    </contour>
  </outline>
</glyph>
<glyph name="zero" format="2">
  <advance width="1203.0"/>
  <unicode hex="0030"/>
  <outline>
    <contour>
      <point x="540.4" y="-26.0" type="curve" smooth="yes"/>
      <point x="861.6" y="-26.0"/>
      <point x="1114.6" y="294.4"/>
      <point x="1169.6" y="688.4" type="curve" smooth="yes"/>
      <point x="1226.6" y="1095.0"/>
      <point x="1054.4" y="1426.0"/>
      <point x="720.5999999999999" y="1426.0" type="curve" smooth="yes"/>
      <point x="398.79999999999995" y="1426.0"/>
      <point x="145.4" y="1106.8"/>
      <point x="89.4" y="711.6" type="curve" smooth="yes"/>
      <point x="32.4" y="305.6"/>
      <point x="205.99999999999997" y="-26.0"/>
    </contour>
    <contour>
      <point x="546.0" y="184.0" type="curve" smooth="yes"/>
      <point x="323.6" y="184.0"/>
      <point x="246.4" y="421.4"/>
      <point x="284.40000000000003" y="688.4" type="curve" smooth="yes"/>
      <point x="323.0" y="964.5999999999999"/>
      <point x="474.40000000000003" y="1216.0"/>
      <point x="715.0" y="1216.0" type="curve" smooth="yes"/>
      <point x="931.4" y="1216.0"/>
      <point x="1015.0" y="992.6"/>
      <point x="975.1999999999999" y="711.6" type="curve" smooth="yes"/>
      <point x="936.4" y="433.0"/>
      <point x="782.4" y="184.0"/>
    </contour>
  </outline>
</glyph>
<glyph name="one" format="2">
  <advance width="617.5"/>
  <unicode hex="0031"/>
  <outline>
    <contour>
      <point x="177.8" y="0.0" type="line"/>
      <point x="387.8" y="0.0" type="line"/>
      <point x="583.8" y="1400.0" type="line"/>
      <point x="262.40000000000003" y="1400.0" type="line"/>
      <point x="175.8" y="1190.0" type="line"/>
      <point x="344.40000000000003" y="1190.0" type="line"/>
    </contour>
  </outline>
</glyph>
<glyph name="two" format="2">
  <advance width="1125.5"/>
  <unicode hex="0032"/>
  <outline>
    <contour>
      <point x="10.0" y="0.0" type="line"/>
      <point x="935.8" y="0.0" type="line"/>
      <point x="964.5999999999999" y="210.0" type="line"/>
      <point x="424.8" y="205.8" type="line"/>
      <point x="732.2" y="463.40000000000003"/>
      <point x="1026.3999999999999" y="735.8"/>
      <point x="1057.6" y="960.8" type="curve" smooth="yes"/>
      <point x="1094.6" y="1217.6"/>
      <point x="914.5999999999999" y="1426.0"/>
      <point x="660.5999999999999" y="1426.0" type="curve" smooth="yes"/>
      <point x="420.79999999999995" y="1426.0"/>
      <point x="192.4" y="1233.0"/>
      <point x="156.4" y="978.0" type="curve"/>
      <point x="365.6" y="966.8" type="line"/>
      <point x="383.8" y="1100.0"/>
      <point x="515.2" y="1216.0"/>
      <point x="655.0" y="1216.0" type="curve" smooth="yes"/>
      <point x="782.2" y="1216.0"/>
      <point x="869.1999999999999" y="1111.8"/>
      <point x="851.4" y="984.0" type="curve" smooth="yes"/>
      <point x="822.8" y="781.8000000000001"/>
      <point x="294.59999999999997" y="382.6"/>
      <point x="31.4" y="189.8" type="curve"/>
    </contour>
  </outline>
</glyph>
<glyph name="three" format="2">
  <advance width="1009.5"/>
  <unicode hex="0033"/>
  <outline>
    <contour>
      <point x="442.8" y="-26.0" type="curve" smooth="yes"/>
      <point x="677.0" y="-26.0"/>
      <point x="902.5999999999999" y="165.0"/>
      <point x="935.8" y="399.79999999999995" type="curve" smooth="yes"/>
      <point x="956.1999999999999" y="546.8"/>
      <point x="900.8000000000001" y="692.0"/>
      <point x="779.8" y="737.0" type="curve"/>
      <point x="893.6" y="782.6"/>
      <point x="965.0" y="897.5999999999999"/>
      <point x="980.6" y="1010.8" type="curve" smooth="yes"/>
      <point x="1013.1999999999999" y="1240.6"/>
      <point x="840.4" y="1427.4"/>
      <point x="614.5999999999999" y="1427.4" type="curve" smooth="yes"/>
      <point x="396.0" y="1427.4"/>
      <point x="175.4" y="1251.0"/>
      <point x="144.2" y="1028.0" type="curve"/>
      <point x="352.8" y="1016.8" type="line"/>
      <point x="367.6" y="1123.0"/>
      <point x="496.40000000000003" y="1217.4"/>
      <point x="610.8" y="1217.4" type="curve" smooth="yes"/>
      <point x="711.4" y="1217.4"/>
      <point x="788.8" y="1134.8"/>
      <point x="774.4" y="1034.0" type="curve" smooth="yes"/>
      <point x="754.6" y="892.0"/>
      <point x="624.8" y="816.0"/>
      <point x="449.40000000000003" y="816.0" type="curve"/>
      <point x="438.0" y="651.0" type="line"/>
      <point x="631.5999999999999" y="651.0"/>
      <point x="750.0" y="577.4"/>
      <point x="728.5999999999999" y="423.0" type="curve" smooth="yes"/>
      <point x="710.8" y="292.40000000000003"/>
      <point x="578.4" y="184.0"/>
      <point x="448.40000000000003" y="184.0" type="curve" smooth="yes"/>
      <point x="314.8" y="184.0"/>
      <point x="238.6" y="280.6"/>
      <point x="256.4" y="405.79999999999995" type="curve"/>
      <point x="48.4" y="417.0" type="line"/>
      <point x="14.2" y="175.4"/>
      <point x="182.4" y="-26.0"/>
    </contour>
  </outline>
</glyph>
<glyph name="four" format="2">
  <advance width="1136.25"/>
  <unicode hex="0034"/>
  <outline>
    <contour>
      <point x="608.6" y="0.0" type="line"/>
      <point x="818.6" y="0.0" type="line"/>
      <point x="868.8000000000001" y="356.8" type="line"/>
      <point x="996.0" y="356.8" type="line"/>
      <point x="1025.4" y="566.8" type="line"/>
      <point x="897.6" y="566.8" type="line"/>
      <point x="1014.6" y="1400.0" type="line"/>
      <point x="752.8000000000001" y="1400.0" type="line"/>
      <point x="87.2" y="568.0" type="line"/>
      <point x="59.6" y="356.8" type="line"/>
      <point x="658.8000000000001" y="356.8" type="line"/>
    </contour>
    <contour>
      <point x="336.40000000000003" y="568.0" type="line"/>
      <point x="765.4" y="1110.6" type="line"/>
      <point x="687.6" y="566.8" type="line"/>
    </contour>
  </outline>
</glyph>
<glyph name="five" format="2">
  <advance width="1135.25"/>
  <unicode hex="0035"/>
  <outline>
    <contour>
      <point x="481.0" y="-26.0" type="curve" smooth="yes"/>
      <point x="735.6" y="-26.0"/>
      <point x="970.8" y="181.4"/>
      <point x="1006.6" y="434.4" type="curve" smooth="yes"/>
      <point x="1044.0" y="707.8"/>
      <point x="868.8000000000001" y="913.0"/>
      <point x="585.6" y="920.8" type="curve"/>
      <point x="472.8" y="921.6" type="line"/>
      <point x="564.8" y="1190.0" type="line"/>
      <point x="1070.3999999999999" y="1190.0" type="line"/>
      <point x="1099.8" y="1400.0" type="line"/>
      <point x="421.6" y="1400.0" type="line"/>
      <point x="182.60000000000002" y="711.6" type="line"/>
      <point x="542.8" y="711.6" type="line" smooth="yes"/>
      <point x="746.4" y="711.6"/>
      <point x="818.8" y="596.6"/>
      <point x="799.4" y="457.6" type="curve" smooth="yes"/>
      <point x="778.0" y="306.6"/>
      <point x="636.8" y="184.0"/>
      <point x="486.59999999999997" y="184.0" type="curve" smooth="yes"/>
      <point x="347.6" y="184.0"/>
      <point x="251.2" y="295.4"/>
      <point x="271.6" y="440.4" type="curve"/>
      <point x="63.0" y="451.6" type="line"/>
      <point x="27.2" y="195.4"/>
      <point x="208.99999999999997" y="-26.0"/>
    </contour>
  </outline>
</glyph>
<glyph name="six" format="2">
  <advance width="1091.25"/>
  <unicode hex="0036"/>
  <outline>
    <contour>
      <point x="476.6" y="-26.0" type="curve" smooth="yes"/>
      <point x="742.6" y="-26.0"/>
      <point x="987.8000000000001" y="189.60000000000002"/>
      <point x="1024.8000000000002" y="453.4" type="curve" smooth="yes"/>
      <point x="1067.8000000000002" y="758.0"/>
      <point x="822.1999999999999" y="980.0"/>
      <point x="539.1999999999999" y="929.0" type="curve"/>
      <point x="885.5999999999999" y="1400.0" type="line"/>
      <point x="636.8000000000001" y="1400.0" type="line"/>
      <point x="145.2" y="721.4" type="line" smooth="yes"/>
      <point x="89.2" y="637.4"/>
      <point x="59.4" y="565.6"/>
      <point x="46.6" y="476.6" type="curve" smooth="yes"/>
      <point x="7.8" y="200.0"/>
      <point x="203.4" y="-26.0"/>
    </contour>
    <contour>
      <point x="482.8" y="184.0" type="curve" smooth="yes"/>
      <point x="341.8" y="184.0"/>
      <point x="231.8" y="299.0"/>
      <point x="253.4" y="452.6" type="curve" smooth="yes"/>
      <point x="275.4" y="606.4"/>
      <point x="418.0" y="745.4"/>
      <point x="587.4" y="745.4" type="curve" smooth="yes"/>
      <point x="738.4" y="745.4"/>
      <point x="839.1999999999999" y="624.8000000000001"/>
      <point x="817.6" y="476.40000000000003" type="curve" smooth="yes"/>
      <point x="796.6" y="325.40000000000003"/>
      <point x="652.1999999999999" y="184.0"/>
    </contour>
  </outline>
</glyph>
<glyph name="seven" format="2">
  <advance width="1089.75"/>
  <unicode hex="0037"/>
  <outline>
    <contour>
      <point x="48.00000000000001" y="0.0" type="line"/>
      <point x="293.8" y="0.0" type="line"/>
      <point x="1148.6" y="1190.0" type="line"/>
      <point x="1175.6" y="1400.0" type="line"/>
      <point x="166.0" y="1400.0" type="line"/>
      <point x="136.6" y="1190.0" type="line"/>
      <point x="900.8" y="1190.0" type="line"/>
    </contour>
  </outline>
</glyph>
<glyph name="eight" format="2">
  <advance width="1077.75"/>
  <unicode hex="0038"/>
  <outline>
    <contour>
      <point x="476.0" y="-26.0" type="curve" smooth="yes"/>
      <point x="724.4" y="-26.0"/>
      <point x="950.0" y="161.4"/>
      <point x="982.8000000000001" y="393.4" type="curve" smooth="yes"/>
      <point x="1002.6" y="534.0"/>
      <point x="945.0" y="657.4"/>
      <point x="847.0" y="728.8000000000001" type="curve"/>
      <point x="950.6" y="799.8"/>
      <point x="1021.4" y="903.0"/>
      <point x="1036.8" y="1014.4" type="curve" smooth="yes"/>
      <point x="1068.3999999999999" y="1240.6"/>
      <point x="897.4" y="1426.0"/>
      <point x="656.8" y="1426.0" type="curve" smooth="yes"/>
      <point x="427.6" y="1426.0"/>
      <point x="217.79999999999998" y="1252.3999999999999"/>
      <point x="187.6" y="1037.6" type="curve" smooth="yes"/>
      <point x="170.2" y="914.8000000000001"/>
      <point x="219.4" y="808.2"/>
      <point x="295.4" y="744.4" type="curve"/>
      <point x="170.8" y="665.8000000000001"/>
      <point x="86.4" y="545.8000000000001"/>
      <point x="68.4" y="416.6" type="curve" smooth="yes"/>
      <point x="33.8" y="171.79999999999998"/>
      <point x="215.6" y="-26.0"/>
    </contour>
    <contour>
      <point x="481.59999999999997" y="184.0" type="curve" smooth="yes"/>
      <point x="358.2" y="184.0"/>
      <point x="269.6" y="277.0"/>
      <point x="285.6" y="393.4" type="curve" smooth="yes"/>
      <point x="304.0" y="521.8"/>
      <point x="431.59999999999997" y="626.0"/>
      <point x="567.6" y="626.0" type="curve" smooth="yes"/>
      <point x="693.4" y="626.0"/>
      <point x="780.5999999999999" y="533.0"/>
      <point x="763.5999999999999" y="416.6" type="curve" smooth="yes"/>
      <point x="745.8" y="288.8"/>
      <point x="619.4" y="184.0"/>
    </contour>
    <contour>
      <point x="573.8" y="836.0" type="curve" smooth="yes"/>
      <point x="466.4" y="836.0"/>
      <point x="392.8" y="915.8"/>
      <point x="406.2" y="1014.4" type="curve" smooth="yes"/>
      <point x="422.0" y="1125.0"/>
      <point x="531.2" y="1216.0"/>
      <point x="650.6" y="1216.0" type="curve" smooth="yes"/>
      <point x="757.4" y="1216.0"/>
      <point x="831.5999999999999" y="1136.8"/>
      <point x="818.1999999999999" y="1037.6" type="curve" smooth="yes"/>
      <point x="802.4" y="927.0"/>
      <point x="693.1999999999999" y="836.0"/>
    </contour>
  </outline>
</glyph>
<glyph name="nine" format="2">
  <advance width="1082.5"/>
  <unicode hex="0039"/>
  <outline>
    <contour>
      <point x="237.6" y="0.0" type="line"/>
      <point x="484.8" y="0.0" type="line"/>
      <point x="986.6" y="693.0" type="line" smooth="yes"/>
      <point x="1041.8000000000002" y="775.8"/>
      <point x="1071.6" y="845.8"/>
      <point x="1083.8" y="932.4" type="curve" smooth="yes"/>
      <point x="1121.0" y="1203.6"/>
      <point x="929.0" y="1426.0"/>
      <point x="660.5999999999999" y="1426.0" type="curve" smooth="yes"/>
      <point x="400.0" y="1426.0"/>
      <point x="160.6" y="1214.0"/>
      <point x="123.8" y="955.6" type="curve" smooth="yes"/>
      <point x="82.6" y="658.8000000000001"/>
      <point x="320.8" y="441.0"/>
      <point x="596.8" y="488.4" type="curve"/>
    </contour>
    <contour>
      <point x="552.8" y="672.0" type="curve" smooth="yes"/>
      <point x="406.59999999999997" y="672.0"/>
      <point x="309.8" y="789.0"/>
      <point x="329.8" y="932.5999999999999" type="curve" smooth="yes"/>
      <point x="350.2" y="1080.0"/>
      <point x="490.40000000000003" y="1216.6"/>
      <point x="655.0" y="1216.6" type="curve" smooth="yes"/>
      <point x="791.8" y="1216.6"/>
      <point x="898.1999999999999" y="1105.8"/>
      <point x="877.6" y="956.4" type="curve" smooth="yes"/>
      <point x="856.8" y="807.4"/>
      <point x="717.4" y="672.0"/>
    </contour>
  </outline>
</glyph>
<glyph name="colon" format="2">
  <advance width="421.25"/>
  <unicode hex="003A"/>
  <outline>
    <contour>
      <point x="241.4" y="778.6" type="curve" smooth="yes"/>
      <point x="295.79999999999995" y="778.6"/>
      <point x="346.4" y="821.5999999999999"/>
      <point x="354.4" y="878.0" type="curve" smooth="yes"/>
      <point x="363.79999999999995" y="944.4"/>
      <point x="315.79999999999995" y="1000.0"/>
      <point x="249.20000000000002" y="1000.0" type="curve" smooth="yes"/>
      <point x="193.6" y="1000.0"/>
      <point x="144.4" y="955.6"/>
      <point x="136.8" y="901.8000000000001" type="curve" smooth="yes"/>
      <point x="127.4" y="833.4"/>
      <point x="173.6" y="778.6"/>
    </contour>
    <contour>
      <point x="128.0" y="-26.0" type="curve" smooth="yes"/>
      <point x="183.0" y="-26.0"/>
      <point x="233.59999999999997" y="17.0"/>
      <point x="241.59999999999997" y="73.4" type="curve" smooth="yes"/>
      <point x="250.99999999999997" y="139.8"/>
      <point x="202.4" y="195.4"/>
      <point x="135.4" y="195.4" type="curve" smooth="yes"/>
      <point x="80.19999999999999" y="195.4"/>
      <point x="31.0" y="151.0"/>
      <point x="23.4" y="96.6" type="curve" smooth="yes"/>
      <point x="14.0" y="28.8"/>
      <point x="60.8" y="-26.0"/>
    </contour>
  </outline>
</glyph>
<glyph name="semicolon" format="2">
  <advance width="476.5"/>
  <unicode hex="003B"/>
  <outline>
    <contour>
      <point x="-6.4" y="-112.0" type="line"/>
      <point x="135.8" y="-112.0" type="line"/>
      <point x="315.4" y="226.0" type="line"/>
      <point x="102.6" y="226.0" type="line"/>
    </contour>
    <contour>
      <point x="297.4" y="778.6" type="curve" smooth="yes"/>
      <point x="351.2" y="778.6"/>
      <point x="401.8" y="821.5999999999999"/>
      <point x="409.8" y="877.4" type="curve" smooth="yes"/>
      <point x="419.2" y="944.4"/>
      <point x="371.2" y="1000.0"/>
      <point x="305.2" y="1000.0" type="curve" smooth="yes"/>
      <point x="248.4" y="1000.0"/>
      <point x="199.8" y="955.6"/>
      <point x="191.6" y="900.6" type="curve" smooth="yes"/>
      <point x="182.8" y="833.4"/>
      <point x="228.4" y="778.6"/>
    </contour>
  </outline>
</glyph>
<glyph name="equal" format="2">
  <advance width="1160.0"/>
  <unicode hex="003D"/>
  <outline>
    <contour>
      <point x="49.8" y="284.4" type="line"/>
      <point x="1049.8" y="284.4" type="line"/>
      <point x="1079.2" y="494.4" type="line"/>
      <point x="79.2" y="494.4" type="line"/>
    </contour>
    <contour>
      <point x="108.8" y="705.6" type="line"/>
      <point x="1108.8" y="705.6" type="line"/>
      <point x="1138.2" y="915.6" type="line"/>
      <point x="138.2" y="915.6" type="line"/>
    </contour>
  </outline>
</glyph>
<glyph name="greater" format="2">
  <advance width="1160.0"/>
  <unicode hex="003E"/>
  <outline>
    <contour>
      <point x="31.2" y="148.0" type="line"/>
      <point x="1069.8" y="424.8" type="line"/>
      <point x="1118.2" y="773.8" type="line"/>
      <point x="157.4" y="1052.0" type="line"/>
      <point x="127.0" y="833.0" type="line"/>
      <point x="940.0" y="600.0" type="line"/>
      <point x="61.0" y="366.4" type="line"/>
    </contour>
  </outline>
</glyph>
<glyph name="question" format="2">
  <advance width="1073.25"/>
  <unicode hex="003F"/>
  <outline>
    <contour>
      <point x="418.4" y="451.8" type="curve"/>
      <point x="627.0" y="440.0" type="line"/>
      <point x="636.4" y="507.79999999999995"/>
      <point x="685.4" y="569.6"/>
      <point x="753.1999999999999" y="597.5999999999999" type="curve" smooth="yes"/>
      <point x="898.4" y="675.2"/>
      <point x="998.4" y="820.8"/>
      <point x="1020.6000000000001" y="979.4" type="curve" smooth="yes"/>
      <point x="1055.4" y="1225.4"/>
      <point x="882.1999999999999" y="1426.6"/>
      <point x="634.8" y="1426.6" type="curve" smooth="yes"/>
      <point x="400.6" y="1426.6"/>
      <point x="183.4" y="1236.6"/>
      <point x="150.0" y="996.6" type="curve"/>
      <point x="358.6" y="985.4" type="line"/>
      <point x="376.2" y="1110.6"/>
      <point x="498.0" y="1216.6"/>
      <point x="628.6" y="1216.6" type="curve" smooth="yes"/>
      <point x="747.8" y="1216.6"/>
      <point x="830.4" y="1122.3999999999999"/>
      <point x="813.8" y="1002.6" type="curve" smooth="yes"/>
      <point x="801.0" y="909.0"/>
      <point x="741.6" y="829.1999999999999"/>
      <point x="660.8" y="794.8000000000001" type="curve" smooth="yes"/>
      <point x="528.6" y="722.1999999999999"/>
      <point x="439.0" y="596.0"/>
    </contour>
    <contour>
      <point x="472.6" y="-26.0" type="curve" smooth="yes"/>
      <point x="527.6" y="-26.0"/>
      <point x="576.8000000000001" y="17.6"/>
      <point x="584.8000000000001" y="74.80000000000001" type="curve" smooth="yes"/>
      <point x="594.8000000000001" y="140.60000000000002"/>
      <point x="547.6" y="195.4"/>
      <point x="480.0" y="195.4" type="curve" smooth="yes"/>
      <point x="424.8" y="195.4"/>
      <point x="375.6" y="152.4"/>
      <point x="368.6" y="98.0" type="curve" smooth="yes"/>
      <point x="358.6" y="29.400000000000002"/>
      <point x="405.40000000000003" y="-26.0"/>
    </contour>
  </outline>
</glyph>
<glyph name="at" format="2">
  <advance width="1800.375"/>
  <unicode hex="0040"/>
  <outline>
    <contour>
      <point x="803.4" y="-229.6" type="curve"/>
      <point x="821.2" y="-19.599999999999998" type="line"/>
      <point x="483.20000000000005" y="-19.599999999999998"/>
      <point x="249.0" y="207.4"/>
      <point x="295.6" y="538.4" type="curve" smooth="yes"/>
      <point x="343.6" y="883.6"/>
      <point x="664.6" y="1161.0"/>
      <point x="1004.8000000000001" y="1161.0" type="curve" smooth="yes"/>
      <point x="1333.6000000000001" y="1161.0"/>
      <point x="1565.6" y="894.6"/>
      <point x="1519.0" y="562.2" type="curve" smooth="yes"/>
      <point x="1501.6" y="441.40000000000003"/>
      <point x="1430.2" y="263.6"/>
      <point x="1323.6" y="263.6" type="curve" smooth="yes"/>
      <point x="1277.4" y="263.6"/>
      <point x="1245.3999999999999" y="294.79999999999995"/>
      <point x="1253.1999999999998" y="349.79999999999995" type="curve" smooth="yes"/>
      <point x="1330.0" y="896.2" type="line"/>
      <point x="1174.6" y="927.6" type="line"/>
      <point x="1159.8" y="852.8000000000001" type="line"/>
      <point x="1116.8000000000002" y="909.6"/>
      <point x="1023.5999999999999" y="948.0"/>
      <point x="926.8" y="948.0" type="curve" smooth="yes"/>
      <point x="713.8" y="948.0"/>
      <point x="516.8" y="775.6"/>
      <point x="486.79999999999995" y="562.2" type="curve" smooth="yes"/>
      <point x="454.79999999999995" y="336.6"/>
      <point x="613.0" y="152.6"/>
      <point x="838.6" y="152.6" type="curve" smooth="yes"/>
      <point x="929.8000000000001" y="152.6"/>
      <point x="1011.8000000000001" y="187.6"/>
      <point x="1075.6" y="255.79999999999998" type="curve"/>
      <point x="1072.8000000000002" y="148.4"/>
      <point x="1203.8" y="53.599999999999994"/>
      <point x="1330.2" y="53.599999999999994" type="curve" smooth="yes"/>
      <point x="1541.2" y="53.599999999999994"/>
      <point x="1692.3999999999999" y="301.79999999999995"/>
      <point x="1726.1999999999998" y="538.4" type="curve" smooth="yes"/>
      <point x="1790.0" y="994.8"/>
      <point x="1473.4" y="1371.0"/>
      <point x="1011.4" y="1371.0" type="curve" smooth="yes"/>
      <point x="563.6" y="1371.0"/>
      <point x="151.8" y="1009.4"/>
      <point x="88.4" y="562.2" type="curve" smooth="yes"/>
      <point x="24.6" y="103.0"/>
      <point x="350.2" y="-229.6"/>
    </contour>
    <contour>
      <point x="853.1999999999999" y="311.6" type="curve" smooth="yes"/>
      <point x="729.6" y="311.6"/>
      <point x="640.6" y="411.6"/>
      <point x="659.0" y="538.4" type="curve" smooth="yes"/>
      <point x="678.1999999999999" y="677.4"/>
      <point x="806.6" y="788.4"/>
      <point x="943.8" y="788.4" type="curve" smooth="yes"/>
      <point x="1075.8" y="788.4"/>
      <point x="1139.6000000000001" y="686.8000000000001"/>
      <point x="1123.0" y="568.8000000000001" type="curve" smooth="yes"/>
      <point x="1104.4" y="436.59999999999997"/>
      <point x="990.4" y="311.6"/>
    </contour>
  </outline>
</glyph>
<glyph name="A" format="2">
  <advance width="1423.25"/>
  <unicode hex="0041"/>
  <outline>
    <contour>
      <point x="713.8000000000001" y="1400.0" type="line"/>
      <point x="7.6" y="0.0" type="line"/>
      <point x="234.00000000000003" y="0.0" type="line"/>
      <point x="367.79999999999995" y="265.0" type="line"/>
      <point x="992.4" y="265.0" type="line"/>
      <point x="1051.6" y="0.0" type="line"/>
      <point x="1271.0" y="0.0" type="line"/>
      <point x="959.4" y="1400.0" type="line"/>
    </contour>
    <contour>
      <point x="474.2" y="475.0" type="line"/>
      <point x="801.4" y="1121.4" type="line"/>
      <point x="944.8" y="475.0" type="line"/>
    </contour>
  </outline>
</glyph>
<glyph name="B" format="2">
  <advance width="1155.0"/>
  <unicode hex="0042"/>
  <outline>
    <contour>
      <point x="50.0" y="0.0" type="line"/>
      <point x="611.4" y="0.0" type="line" smooth="yes"/>
      <point x="830.8" y="0.0"/>
      <point x="1026.4" y="157.8"/>
      <point x="1057.8" y="377.6" type="curve" smooth="yes"/>
      <point x="1078.6" y="522.5999999999999"/>
      <point x="1053.0" y="723.8000000000001"/>
      <point x="892.8000000000001" y="765.4000000000001" type="curve"/>
      <point x="996.8" y="801.6"/>
      <point x="1063.2" y="915.0"/>
      <point x="1077.8" y="1019.8000000000001" type="curve" smooth="yes"/>
      <point x="1110.6" y="1255.0"/>
      <point x="954.1999999999999" y="1399.4"/>
      <point x="738.6" y="1399.4" type="curve" smooth="yes"/>
      <point x="246.0" y="1399.4" type="line"/>
    </contour>
    <contour>
      <point x="284.8" y="181.4" type="line"/>
      <point x="354.0" y="668.2" type="line"/>
      <point x="685.4" y="668.2" type="line" smooth="yes"/>
      <point x="812.8" y="668.2"/>
      <point x="894.1999999999999" y="557.8000000000001"/>
      <point x="877.4" y="440.0" type="curve" smooth="yes"/>
      <point x="857.1999999999999" y="291.6"/>
      <point x="732.4" y="181.4"/>
      <point x="605.6" y="181.4" type="curve" smooth="yes"/>
    </contour>
    <contour>
      <point x="378.8" y="846.8" type="line"/>
      <point x="431.2" y="1216.6" type="line"/>
      <point x="701.6" y="1216.6" type="line" smooth="yes"/>
      <point x="811.0" y="1216.6"/>
      <point x="887.5999999999999" y="1160.6"/>
      <point x="871.0" y="1044.3999999999999" type="curve" smooth="yes"/>
      <point x="853.8" y="923.4"/>
      <point x="747.0" y="846.8"/>
      <point x="637.6" y="846.8" type="curve" smooth="yes"/>
    </contour>
  </outline>
</glyph>
<glyph name="C" format="2">
  <advance width="1398.0"/>
  <unicode hex="0043"/>
  <outline>
    <contour>
      <point x="685.6" y="-26.0" type="curve"/>
      <point x="905.6" y="-26.0"/>
      <point x="1116.8" y="82.80000000000001"/>
      <point x="1267.8" y="257.4" type="curve"/>
      <point x="1087.8" y="367.8" type="line"/>
      <point x="988.6" y="259.40000000000003"/>
      <point x="844.5999999999999" y="184.0"/>
      <point x="691.8" y="184.0" type="curve"/>
      <point x="434.6" y="184.0"/>
      <point x="257.4" y="410.0"/>
      <point x="296.6" y="688.4" type="curve"/>
      <point x="336.6" y="976.0"/>
      <point x="588.6" y="1216.0"/>
      <point x="860.8" y="1216.0" type="curve"/>
      <point x="996.8000000000001" y="1216.0"/>
      <point x="1119.6" y="1150.2"/>
      <point x="1191.2" y="1040.8" type="curve"/>
      <point x="1384.8" y="1132.8000000000002" type="line"/>
      <point x="1281.8" y="1307.4"/>
      <point x="1098.4" y="1426.0"/>
      <point x="866.4" y="1426.0" type="curve"/>
      <point x="492.4" y="1426.0"/>
      <point x="145.4" y="1107.0"/>
      <point x="89.4" y="711.6" type="curve"/>
      <point x="32.4" y="305.0"/>
      <point x="299.6" y="-26.0"/>
    </contour>
  </outline>
</glyph>
<glyph name="D" format="2">
  <advance width="1343.25"/>
  <unicode hex="0044"/>
  <outline>
    <contour>
      <point x="50.0" y="0.0" type="line"/>
      <point x="518.4" y="0.0" type="line" smooth="yes"/>
      <point x="905.6" y="0.0"/>
      <point x="1256.4" y="308.4"/>
      <point x="1310.0" y="688.4" type="curve" smooth="yes"/>
      <point x="1364.4" y="1080.4"/>
      <point x="1090.4" y="1400.0"/>
      <point x="703.8" y="1400.0" type="curve" smooth="yes"/>
      <point x="246.0" y="1400.0" type="line"/>
    </contour>
    <contour>
      <point x="289.4" y="210.0" type="line"/>
      <point x="426.6" y="1190.0" type="line"/>
      <point x="686.6" y="1190.0" type="line" smooth="yes"/>
      <point x="955.6" y="1190.0"/>
      <point x="1140.0" y="976.0"/>
      <point x="1102.8000000000002" y="711.6" type="curve" smooth="yes"/>
      <point x="1064.2" y="434.40000000000003"/>
      <point x="805.4" y="210.0"/>
      <point x="536.6" y="210.0" type="curve" smooth="yes"/>
    </contour>
  </outline>
</glyph>
<glyph name="E" format="2">
  <advance width="1089.5"/>
  <unicode hex="0045"/>
  <outline>
    <contour>
      <point x="50.0" y="0.0" type="line"/>
      <point x="919.8" y="0.0" type="line"/>
      <point x="948.5999999999999" y="210.0" type="line"/>
      <point x="289.4" y="210.0" type="line"/>
      <point x="350.6" y="645.0" type="line"/>
      <point x="881.6" y="645.0" type="line"/>
      <point x="910.4" y="855.0" type="line"/>
      <point x="379.4" y="855.0" type="line"/>
      <point x="426.6" y="1190.0" type="line"/>
      <point x="1086.3999999999999" y="1190.0" type="line"/>
      <point x="1115.8" y="1400.0" type="line"/>
      <point x="246.0" y="1400.0" type="line"/>
    </contour>
  </outline>
</glyph>
<glyph name="F" format="2">
  <advance width="964.5"/>
  <unicode hex="0046"/>
  <outline>
    <contour>
      <point x="50.0" y="0.0" type="line"/>
      <point x="260.0" y="0.0" type="line"/>
      <point x="350.6" y="645.0" type="line"/>
      <point x="868.8" y="645.0" type="line"/>
      <point x="898.1999999999999" y="855.0" type="line"/>
      <point x="379.4" y="855.0" type="line"/>
      <point x="426.6" y="1190.0" type="line"/>
      <point x="1041.3999999999999" y="1190.0" type="line"/>
      <point x="1070.8" y="1400.0" type="line"/>
      <point x="246.0" y="1400.0" type="line"/>
    </contour>
  </outline>
</glyph>
<glyph name="G" format="2">
  <advance width="1496.625"/>
  <unicode hex="0047"/>
  <outline>
    <contour>
      <point x="686.8000000000001" y="-26.0" type="curve" smooth="yes"/>
      <point x="1063.0" y="-26.0"/>
      <point x="1410.3999999999999" y="297.79999999999995"/>
      <point x="1463.8" y="697.8" type="curve"/>
      <point x="923.8000000000001" y="703.4" type="line"/>
      <point x="897.6" y="518.4" type="line"/>
      <point x="1190.0" y="523.6" type="line"/>
      <point x="1092.8" y="322.2"/>
      <point x="895.1999999999999" y="184.0"/>
      <point x="694.6" y="184.0" type="curve" smooth="yes"/>
      <point x="435.40000000000003" y="184.0"/>
      <point x="257.0" y="407.6"/>
      <point x="296.2" y="685.5999999999999" type="curve" smooth="yes"/>
      <point x="338.0" y="986.0"/>
      <point x="599.2" y="1216.0"/>
      <point x="862.8" y="1216.0" type="curve" smooth="yes"/>
      <point x="988.4" y="1216.0"/>
      <point x="1111.3999999999999" y="1158.3999999999999"/>
      <point x="1191.2" y="1039.3999999999999" type="curve"/>
      <point x="1385.3999999999999" y="1132.0" type="line"/>
      <point x="1268.8" y="1323.8000000000002"/>
      <point x="1081.6" y="1424.6"/>
      <point x="870.5999999999999" y="1424.6" type="curve" smooth="yes"/>
      <point x="510.6" y="1424.6"/>
      <point x="148.2" y="1124.8"/>
      <point x="90.4" y="713.0" type="curve" smooth="yes"/>
      <point x="33.4" y="308.40000000000003"/>
      <point x="292.40000000000003" y="-26.0"/>
    </contour>
  </outline>
</glyph>
<glyph name="H" format="2">
  <advance width="1290.25"/>
  <unicode hex="0048"/>
  <outline>
    <contour>
      <point x="1086.4" y="1400.0" type="line"/>
      <point x="1009.8" y="855.0" type="line"/>
      <point x="379.4" y="855.0" type="line"/>
      <point x="456.0" y="1400.0" type="line"/>
      <point x="246.0" y="1400.0" type="line"/>
      <point x="50.0" y="0.0" type="line"/>
      <point x="260.0" y="0.0" type="line"/>
      <point x="350.6" y="645.0" type="line"/>
      <point x="980.4" y="645.0" type="line"/>
      <point x="890.4" y="0.0" type="line"/>
      <point x="1100.4" y="0.0" type="line"/>
      <point x="1296.4" y="1400.0" type="line"/>
    </contour>
  </outline>
</glyph>
<glyph name="I" format="2">
  <advance width="510.0"/>
  <unicode hex="0049"/>
  <outline>
    <contour>
      <point x="80.0" y="0.0" type="line"/>
      <point x="290.0" y="0.0" type="line"/>
      <point x="486.0" y="1400.0" type="line"/>
      <point x="276.0" y="1400.0" type="line"/>
    </contour>
  </outline>
</glyph>
<glyph name="J" format="2">
  <advance width="860.5"/>
  <unicode hex="004A"/>
  <outline>
    <contour>
      <point x="250.8" y="-26.0" type="curve" smooth="yes"/>
      <point x="480.8" y="-26.0"/>
      <point x="694.0" y="167.8"/>
      <point x="726.4" y="402.6" type="curve" smooth="yes"/>
      <point x="866.8" y="1400.0" type="line"/>
      <point x="656.8" y="1400.0" type="line"/>
      <point x="518.8" y="414.40000000000003" type="line" smooth="yes"/>
      <point x="501.79999999999995" y="294.6"/>
      <point x="382.2" y="184.0"/>
      <point x="256.40000000000003" y="184.0" type="curve" smooth="yes"/>
      <point x="204.4" y="184.0"/>
      <point x="161.0" y="203.4"/>
      <point x="132.4" y="231.0" type="curve"/>
      <point x="-17.0" y="77.0" type="line"/>
      <point x="51.599999999999994" y="11.600000000000001"/>
      <point x="145.0" y="-26.0"/>
    </contour>
  </outline>
</glyph>
<glyph name="K" format="2">
  <advance width="1137.75"/>
  <unicode hex="004B"/>
  <outline>
    <contour>
      <point x="1030.8" y="0.0" type="line"/>
      <point x="585.6" y="739.4" type="line"/>
      <point x="1235.6" y="1400.0" type="line"/>
      <point x="956.6" y="1400.0" type="line"/>
      <point x="369.8" y="800.4" type="line"/>
      <point x="456.4" y="1400.0" type="line"/>
      <point x="246.0" y="1400.0" type="line"/>
      <point x="50.0" y="0.0" type="line"/>
      <point x="260.0" y="0.0" type="line"/>
      <point x="328.8" y="473.6" type="line"/>
      <point x="429.2" y="575.0" type="line"/>
      <point x="761.1999999999999" y="0.0" type="line"/>
    </contour>
  </outline>
</glyph>
<glyph name="L" format="2">
  <advance width="1032.5"/>
  <unicode hex="004C"/>
  <outline>
    <contour>
      <point x="50.0" y="0.0" type="line"/>
      <point x="862.8" y="0.0" type="line"/>
      <point x="891.5999999999999" y="210.0" type="line"/>
      <point x="289.4" y="210.0" type="line"/>
      <point x="456.0" y="1400.0" type="line"/>
      <point x="246.0" y="1400.0" type="line"/>
    </contour>
  </outline>
</glyph>
<glyph name="M" format="2">
  <advance width="1837.0"/>
  <unicode hex="004D"/>
  <outline>
    <contour>
      <point x="48.6" y="0.0" type="line"/>
      <point x="264.6" y="0.0" type="line"/>
      <point x="577.8" y="933.0" type="line"/>
      <point x="786.4" y="51.6" type="line"/>
      <point x="927.8000000000001" y="51.6" type="line"/>
      <point x="1385.4" y="933.0" type="line"/>
      <point x="1433.2" y="0.0" type="line"/>
      <point x="1645.6" y="0.0" type="line"/>
      <point x="1570.6" y="1400.0" type="line"/>
      <point x="1400.0" y="1400.0" type="line"/>
      <point x="908.8" y="459.4" type="line"/>
      <point x="685.6" y="1400.0" type="line"/>
      <point x="516.4" y="1400.0" type="line"/>
    </contour>
  </outline>
</glyph>
<glyph name="N" format="2">
  <advance width="1339.25"/>
  <unicode hex="004E"/>
  <outline>
    <contour>
      <point x="61.400000000000006" y="0.0" type="line"/>
      <point x="271.4" y="0.0" type="line"/>
      <point x="416.59999999999997" y="1020.6" type="line"/>
      <point x="913.5999999999999" y="0.0" type="line"/>
      <point x="1138.0" y="0.0" type="line"/>
      <point x="1334.0" y="1400.0" type="line"/>
      <point x="1124.0" y="1400.0" type="line"/>
      <point x="978.8" y="379.4" type="line"/>
      <point x="482.40000000000003" y="1400.0" type="line"/>
      <point x="257.4" y="1400.0" type="line"/>
    </contour>
  </outline>
</glyph>
<glyph name="O" format="2">
  <advance width="1540.0"/>
  <unicode hex="004F"/>
  <outline>
    <contour>
      <point x="707.6" y="-26.0" type="curve" smooth="yes"/>
      <point x="1081.6" y="-26.0"/>
      <point x="1431.6" y="294.4"/>
      <point x="1486.6" y="688.4" type="curve" smooth="yes"/>
      <point x="1543.6" y="1094.4"/>
      <point x="1274.4" y="1426.0"/>
      <point x="888.4" y="1426.0" type="curve" smooth="yes"/>
      <point x="514.4" y="1426.0"/>
      <point x="165.4" y="1105.6"/>
      <point x="109.4" y="711.6" type="curve" smooth="yes"/>
      <point x="52.4" y="305.6"/>
      <point x="321.6" y="-26.0"/>
    </contour>
    <contour>
      <point x="713.8" y="184.0" type="curve" smooth="yes"/>
      <point x="455.40000000000003" y="184.0"/>
      <point x="277.4" y="410.6"/>
      <point x="316.6" y="688.4" type="curve" smooth="yes"/>
      <point x="356.6" y="975.8"/>
      <point x="610.6" y="1216.0"/>
      <point x="882.8" y="1216.0" type="curve" smooth="yes"/>
      <point x="1140.6000000000001" y="1216.0"/>
      <point x="1318.6" y="988.8000000000001"/>
      <point x="1279.4" y="711.6" type="curve" smooth="yes"/>
      <point x="1239.4" y="424.8"/>
      <point x="985.3999999999999" y="184.0"/>
    </contour>
  </outline>
</glyph>
<glyph name="P" format="2">
  <advance width="1087.5"/>
  <unicode hex="0050"/>
  <outline>
    <contour>
      <point x="50.0" y="0.0" type="line"/>
      <point x="260.0" y="0.0" type="line"/>
      <point x="339.0" y="565.0" type="line"/>
      <point x="618.6" y="565.0" type="line" smooth="yes"/>
      <point x="837.6" y="565.0"/>
      <point x="1041.6" y="743.0"/>
      <point x="1073.6" y="970.5999999999999" type="curve" smooth="yes"/>
      <point x="1107.0" y="1207.4"/>
      <point x="949.8" y="1400.0"/>
      <point x="723.4" y="1400.0" type="curve" smooth="yes"/>
      <point x="246.0" y="1400.0" type="line"/>
    </contour>
    <contour>
      <point x="368.4" y="775.0" type="line"/>
      <point x="431.2" y="1217.8" type="line"/>
      <point x="688.4" y="1217.8" type="line" smooth="yes"/>
      <point x="806.8" y="1217.8"/>
      <point x="885.8" y="1126.6"/>
      <point x="869.1999999999999" y="1008.0" type="curve" smooth="yes"/>
      <point x="850.8" y="877.4"/>
      <point x="732.8" y="775.0"/>
      <point x="614.4" y="775.0" type="curve" smooth="yes"/>
    </contour>
  </outline>
</glyph>
<glyph name="Q" format="2">
  <advance width="1566.75"/>
  <unicode hex="0051"/>
  <outline>
    <contour>
      <point x="1265.6" y="-36.4" type="line"/>
      <point x="1430.8000000000002" y="112.0" type="line"/>
      <point x="1290.4" y="269.79999999999995" type="line"/>
      <point x="1394.8" y="389.79999999999995"/>
      <point x="1464.4" y="536.5999999999999"/>
      <point x="1486.4" y="693.4" type="curve" smooth="yes"/>
      <point x="1543.4" y="1099.4"/>
      <point x="1274.8" y="1431.0"/>
      <point x="889.8" y="1431.0" type="curve" smooth="yes"/>
      <point x="514.1999999999999" y="1431.0"/>
      <point x="166.4" y="1110.6"/>
      <point x="110.8" y="716.6" type="curve" smooth="yes"/>
      <point x="53.4" y="309.8"/>
      <point x="322.4" y="-21.0"/>
      <point x="708.6" y="-21.0" type="curve" smooth="yes"/>
      <point x="856.0" y="-21.0"/>
      <point x="1002.5999999999999" y="28.599999999999998"/>
      <point x="1128.2" y="118.60000000000001" type="curve"/>
    </contour>
    <contour>
      <point x="714.6" y="189.0" type="curve" smooth="yes"/>
      <point x="457.0" y="189.0"/>
      <point x="277.8" y="414.79999999999995"/>
      <point x="317.6" y="693.4" type="curve" smooth="yes"/>
      <point x="357.6" y="979.5999999999999"/>
      <point x="611.0" y="1221.0"/>
      <point x="883.2" y="1221.0" type="curve" smooth="yes"/>
      <point x="1139.8" y="1221.0"/>
      <point x="1318.4" y="994.4"/>
      <point x="1280.2" y="716.6" type="curve" smooth="yes"/>
      <point x="1264.8000000000002" y="611.6"/>
      <point x="1219.8" y="515.2"/>
      <point x="1154.8" y="436.20000000000005" type="curve"/>
      <point x="1026.6" y="577.8" type="line"/>
      <point x="861.4" y="428.8" type="line"/>
      <point x="990.5999999999999" y="277.6" type="line"/>
      <point x="909.0" y="222.60000000000002"/>
      <point x="812.0" y="189.0"/>
    </contour>
  </outline>
</glyph>
<glyph name="R" format="2">
  <advance width="1192.5"/>
  <unicode hex="0052"/>
  <outline>
    <contour>
      <point x="61.400000000000006" y="0.0" type="line"/>
      <point x="271.4" y="0.0" type="line"/>
      <point x="350.4" y="565.0" type="line"/>
      <point x="542.0" y="565.0" type="line"/>
      <point x="790.4" y="0.0" type="line"/>
      <point x="1029.0" y="0.0" type="line"/>
      <point x="777.4" y="580.6" type="line"/>
      <point x="954.8" y="631.6"/>
      <point x="1090.8000000000002" y="782.8"/>
      <point x="1117.8000000000002" y="970.5999999999999" type="curve" smooth="yes"/>
      <point x="1150.6000000000001" y="1208.8000000000002"/>
      <point x="994.8" y="1400.0"/>
      <point x="768.4" y="1400.0" type="curve" smooth="yes"/>
      <point x="257.4" y="1400.0" type="line"/>
    </contour>
    <contour>
      <point x="379.79999999999995" y="775.0" type="line"/>
      <point x="442.59999999999997" y="1217.8" type="line"/>
      <point x="732.5999999999999" y="1217.8" type="line" smooth="yes"/>
      <point x="850.4" y="1217.8"/>
      <point x="929.4" y="1126.6"/>
      <point x="912.8" y="1008.0" type="curve" smooth="yes"/>
      <point x="894.4" y="877.4"/>
      <point x="776.4" y="775.0"/>
      <point x="658.5999999999999" y="775.0" type="curve" smooth="yes"/>
    </contour>
  </outline>
</glyph>
<glyph name="S" format="2">
  <advance width="1239.25"/>
  <unicode hex="0053"/>
  <outline>
    <contour>
      <point x="557.0" y="-26.0" type="curve" smooth="yes"/>
      <point x="827.4" y="-26.0"/>
      <point x="1084.0" y="133.0"/>
      <point x="1117.8" y="377.0" type="curve" smooth="yes"/>
      <point x="1153.3999999999999" y="629.0"/>
      <point x="926.8" y="760.2"/>
      <point x="650.1999999999999" y="802.6" type="curve" smooth="yes"/>
      <point x="489.0" y="832.8"/>
      <point x="363.8" y="854.0"/>
      <point x="383.8" y="996.8" type="curve" smooth="yes"/>
      <point x="401.20000000000005" y="1122.8000000000002"/>
      <point x="567.0" y="1213.0"/>
      <point x="730.6" y="1211.6" type="curve" smooth="yes"/>
      <point x="874.8000000000001" y="1211.6"/>
      <point x="1000.8000000000001" y="1150.8"/>
      <point x="1021.2" y="1055.0" type="curve"/>
      <point x="1224.8000000000002" y="1114.6" type="line"/>
      <point x="1180.6000000000001" y="1306.6"/>
      <point x="968.4" y="1423.0"/>
      <point x="737.1999999999999" y="1423.0" type="curve" smooth="yes"/>
      <point x="470.2" y="1423.0"/>
      <point x="211.79999999999998" y="1264.0"/>
      <point x="177.0" y="1020.0" type="curve" smooth="yes"/>
      <point x="138.79999999999998" y="748.4"/>
      <point x="350.6" y="641.1999999999999"/>
      <point x="644.6" y="595.5999999999999" type="curve" smooth="yes"/>
      <point x="785.8" y="569.1999999999999"/>
      <point x="928.5999999999999" y="520.8000000000001"/>
      <point x="911.5999999999999" y="400.8" type="curve" smooth="yes"/>
      <point x="893.1999999999999" y="271.40000000000003"/>
      <point x="728.8" y="184.0"/>
      <point x="562.6" y="184.0" type="curve" smooth="yes"/>
      <point x="419.40000000000003" y="184.0"/>
      <point x="293.40000000000003" y="246.8"/>
      <point x="273.0" y="342.0" type="curve"/>
      <point x="70.6" y="280.40000000000003" type="line"/>
      <point x="112.4" y="92.8"/>
      <point x="321.6" y="-26.0"/>
    </contour>
  </outline>
</glyph>
<glyph name="T" format="2">
  <advance width="1259.25"/>
  <unicode hex="0054"/>
  <outline>
    <contour>
      <point x="1305.4" y="1400.0" type="line"/>
      <point x="206.0" y="1400.0" type="line"/>
      <point x="176.6" y="1190.0" type="line"/>
      <point x="621.0" y="1190.0" type="line"/>
      <point x="454.4" y="0.0" type="line"/>
      <point x="664.4" y="0.0" type="line"/>
      <point x="831.0" y="1190.0" type="line"/>
      <point x="1276.0" y="1190.0" type="line"/>
    </contour>
  </outline>
</glyph>
<glyph name="U" format="2">
  <advance width="1348.75"/>
  <unicode hex="0055"/>
  <outline>
    <contour>
      <point x="612.6" y="-26.0" type="curve" smooth="yes"/>
      <point x="942.6" y="-26.0"/>
      <point x="1192.1999999999998" y="240.4"/>
      <point x="1240.1999999999998" y="578.4" type="curve" smooth="yes"/>
      <point x="1354.6" y="1400.0" type="line"/>
      <point x="1144.6" y="1400.0" type="line"/>
      <point x="1031.6" y="589.6" type="line" smooth="yes"/>
      <point x="1000.4" y="371.40000000000003"/>
      <point x="847.8" y="184.0"/>
      <point x="618.8" y="184.0" type="curve" smooth="yes"/>
      <point x="404.40000000000003" y="184.0"/>
      <point x="310.4" y="359.79999999999995"/>
      <point x="341.6" y="578.4" type="curve" smooth="yes"/>
      <point x="456.0" y="1400.0" type="line"/>
      <point x="246.0" y="1400.0" type="line"/>
      <point x="132.4" y="589.6" type="line" smooth="yes"/>
      <point x="85.0" y="251.6"/>
      <point x="270.6" y="-26.0"/>
    </contour>
  </outline>
</glyph>
<glyph name="V" format="2">
  <advance width="1321.75"/>
  <unicode hex="0056"/>
  <outline>
    <contour>
      <point x="459.4" y="0.0" type="line"/>
      <point x="724.4" y="0.0" type="line"/>
      <point x="1430.0" y="1400.0" type="line"/>
      <point x="1203.6" y="1400.0" type="line"/>
      <point x="621.8" y="249.8" type="line"/>
      <point x="367.8" y="1400.0" type="line"/>
      <point x="148.4" y="1400.0" type="line"/>
    </contour>
  </outline>
</glyph>
<glyph name="W" format="2">
  <advance width="1867.0"/>
  <unicode hex="0057"/>
  <outline>
    <contour>
      <point x="389.4" y="0.0" type="line"/>
      <point x="629.5999999999999" y="0.0" type="line"/>
      <point x="995.5999999999999" y="922.8" type="line"/>
      <point x="1101.0" y="0.0" type="line"/>
      <point x="1342.4" y="0.0" type="line"/>
      <point x="1894.4" y="1400.0" type="line"/>
      <point x="1675.6" y="1400.0" type="line"/>
      <point x="1269.8" y="377.4" type="line"/>
      <point x="1154.1999999999998" y="1400.0" type="line"/>
      <point x="963.4" y="1400.0" type="line"/>
      <point x="557.6" y="377.4" type="line"/>
      <point x="442.6" y="1400.0" type="line"/>
      <point x="227.4" y="1400.0" type="line"/>
    </contour>
  </outline>
</glyph>
<glyph name="X" format="2">
  <advance width="1405.0"/>
  <unicode hex="0058"/>
  <outline>
    <contour>
      <point x="-12.4" y="0.0" type="line"/>
      <point x="252.8" y="0.0" type="line"/>
      <point x="710.8" y="524.8" type="line"/>
      <point x="1016.3999999999999" y="0.0" type="line"/>
      <point x="1272.6" y="0.0" type="line"/>
      <point x="862.0" y="704.0" type="line"/>
      <point x="1469.8" y="1402.0" type="line"/>
      <point x="1206.6" y="1402.0" type="line"/>
      <point x="751.8" y="881.8" type="line"/>
      <point x="447.6" y="1402.0" type="line"/>
      <point x="192.8" y="1402.0" type="line"/>
      <point x="601.6" y="704.0" type="line"/>
    </contour>
  </outline>
</glyph>
<glyph name="Y" format="2">
  <advance width="1285.5"/>
  <unicode hex="0059"/>
  <outline>
    <contour>
      <point x="1102.2" y="1400.0" type="line"/>
      <point x="689.2" y="860.6" type="line"/>
      <point x="431.40000000000003" y="1400.0" type="line"/>
      <point x="188.8" y="1400.0" type="line"/>
      <point x="558.6" y="632.4" type="line"/>
      <point x="467.6" y="0.0" type="line"/>
      <point x="677.6" y="0.0" type="line"/>
      <point x="768.6" y="632.4" type="line"/>
      <point x="1354.6" y="1400.0" type="line"/>
    </contour>
  </outline>
</glyph>
<glyph name="Z" format="2">
  <advance width="1372.0"/>
  <unicode hex="005A"/>
  <outline>
    <contour>
      <point x="50.0" y="0.0" type="line"/>
      <point x="1182.0" y="0.0" type="line"/>
      <point x="1211.4" y="210.0" type="line"/>
      <point x="364.8" y="210.0" type="line"/>
      <point x="1351.0" y="1190.0" type="line"/>
      <point x="1378.0" y="1400.0" type="line"/>
      <point x="246.0" y="1400.0" type="line"/>
      <point x="216.6" y="1190.0" type="line"/>
      <point x="1063.8" y="1190.0" type="line"/>
      <point x="77.6" y="210.0" type="line"/>
    </contour>
  </outline>
</glyph>
<glyph name="bracketleft" format="2">
  <advance width="607.5"/>
  <unicode hex="005B"/>
  <outline>
    <contour>
      <point x="450.6" y="98.0" type="line"/>
      <point x="273.4" y="98.0" type="line"/>
      <point x="426.6" y="1190.0" type="line"/>
      <point x="604.4" y="1190.0" type="line"/>
      <point x="633.8" y="1400.0" type="line"/>
      <point x="246.0" y="1400.0" type="line"/>
      <point x="34.0" y="-112.0" type="line"/>
      <point x="421.8" y="-112.0" type="line"/>
    </contour>
  </outline>
</glyph>
<glyph name="backslash" format="2">
  <advance width="774.75"/>
  <unicode hex="005C"/>
  <outline>
    <contour>
      <point x="400.0" y="-112.0" type="line"/>
      <point x="607.8000000000001" y="-112.0" type="line"/>
      <point x="414.6" y="1400.0" type="line"/>
      <point x="208.4" y="1400.0" type="line"/>
    </contour>
  </outline>
</glyph>
<glyph name="bracketright" format="2">
  <advance width="608.75"/>
  <unicode hex="005D"/>
  <outline>
    <contour>
      <point x="14.0" y="-112.0" type="line"/>
      <point x="402.6" y="-112.0" type="line"/>
      <point x="614.6" y="1400.0" type="line"/>
      <point x="226.0" y="1400.0" type="line"/>
      <point x="196.6" y="1190.0" type="line"/>
      <point x="375.8" y="1190.0" type="line"/>
      <point x="222.00000000000003" y="98.0" type="line"/>
      <point x="43.4" y="98.0" type="line"/>
    </contour>
  </outline>
</glyph>
<glyph name="asciicircum" format="2">
  <advance width="902.0"/>
  <unicode hex="005E"/>
  <outline>
    <contour>
      <point x="148.6" y="1000.0" type="line"/>
      <point x="375.79999999999995" y="1000.0" type="line"/>
      <point x="581.6" y="1405.6" type="line"/>
      <point x="670.4" y="1000.0" type="line"/>
      <point x="890.6" y="1000.0" type="line"/>
      <point x="745.6" y="1650.0" type="line"/>
      <point x="475.6" y="1650.0" type="line"/>
    </contour>
  </outline>
</glyph>
<glyph name="grave" format="2">
  <advance width="1090.0"/>
  <unicode hex="0060"/>
  <outline>
    <contour>
      <point x="452.4" y="1426.0" type="line"/>
      <point x="594.5999999999999" y="1138.0" type="line"/>
      <point x="698.6" y="1138.0" type="line"/>
      <point x="658.6" y="1426.0" type="line"/>
    </contour>
  </outline>
</glyph>
<glyph name="a" format="2">
  <advance width="1237.75"/>
  <unicode hex="0061"/>
  <outline>
    <contour>
      <point x="977.6" y="1000.0" type="line"/>
      <point x="953.8" y="851.0" type="line"/>
      <point x="902.4" y="953.4"/>
      <point x="804.8" y="1028.0"/>
      <point x="658.4" y="1028.0" type="curve"/>
      <point x="374.4" y="1028.0"/>
      <point x="111.4" y="797.6"/>
      <point x="71.4" y="511.6" type="curve"/>
      <point x="29.400000000000006" y="215.6"/>
      <point x="237.60000000000002" y="-26.0"/>
      <point x="533.6" y="-26.0" type="curve"/>
      <point x="668.0" y="-26.0"/>
      <point x="781.2" y="39.6"/>
      <point x="861.6" y="142.0" type="curve"/>
      <point x="837.2" y="0.0" type="line"/>
      <point x="1047.6" y="0.0" type="line"/>
      <point x="1187.6" y="1000.0" type="line"/>
    </contour>
    <contour>
      <point x="541.6" y="176.8" type="curve"/>
      <point x="377.2" y="176.8"/>
      <point x="259.4" y="314.6"/>
      <point x="283.6" y="488.4" type="curve"/>
      <point x="309.2" y="673.8"/>
      <point x="476.8" y="824.4"/>
      <point x="655.4" y="824.4" type="curve"/>
      <point x="822.4" y="824.4"/>
      <point x="916.6" y="686.8"/>
      <point x="891.4" y="511.6" type="curve"/>
      <point x="865.8" y="328.8"/>
      <point x="721.6" y="176.8"/>
    </contour>
  </outline>
</glyph>
<glyph name="b" format="2">
  <advance width="1227.75"/>
  <unicode hex="0062"/>
  <outline>
    <contour>
      <point x="702.5999999999999" y="1028.0" type="curve"/>
      <point x="570.1999999999999" y="1028.0"/>
      <point x="457.40000000000003" y="962.4"/>
      <point x="377.0" y="860.0" type="curve"/>
      <point x="471.0" y="1500.0" type="line"/>
      <point x="261.0" y="1500.0" type="line"/>
      <point x="50.0" y="0.0" type="line"/>
      <point x="260.0" y="0.0" type="line"/>
      <point x="284.4" y="151.0" type="line"/>
      <point x="336.8" y="48.6"/>
      <point x="433.40000000000003" y="-26.0"/>
      <point x="578.4" y="-26.0" type="curve"/>
      <point x="863.8000000000001" y="-26.0"/>
      <point x="1126.1999999999998" y="204.4"/>
      <point x="1166.8" y="489.79999999999995" type="curve"/>
      <point x="1208.1999999999998" y="786.4"/>
      <point x="1000.6" y="1028.0"/>
    </contour>
    <contour>
      <point x="580.8" y="177.6" type="curve"/>
      <point x="415.2" y="177.6"/>
      <point x="322.0" y="315.79999999999995"/>
      <point x="346.8" y="489.79999999999995" type="curve"/>
      <point x="371.8" y="672.5999999999999"/>
      <point x="516.6" y="825.8"/>
      <point x="695.2" y="825.8" type="curve"/>
      <point x="860.4" y="825.8"/>
      <point x="979.2" y="687.4"/>
      <point x="954.4" y="513.0" type="curve"/>
      <point x="928.4" y="328.8"/>
      <point x="760.8" y="177.6"/>
    </contour>
  </outline>
</glyph>
<glyph name="c" format="2">
  <advance width="1019.25"/>
  <unicode hex="0063"/>
  <outline>
    <contour>
      <point x="735.8" y="288.40000000000003" type="line"/>
      <point x="677.0" y="228.6"/>
      <point x="592.5999999999999" y="184.0"/>
      <point x="503.8" y="184.0" type="curve"/>
      <point x="347.8" y="184.0"/>
      <point x="245.4" y="323.6"/>
      <point x="268.6" y="488.4" type="curve"/>
      <point x="293.2" y="664.8"/>
      <point x="445.8" y="818.0"/>
      <point x="616.8" y="818.0" type="curve"/>
      <point x="688.2" y="818.0"/>
      <point x="760.8" y="785.4"/>
      <point x="806.2" y="720.6" type="curve"/>
      <point x="1000.6" y="813.4" type="line"/>
      <point x="926.8" y="941.4"/>
      <point x="791.8" y="1028.0"/>
      <point x="622.4" y="1028.0" type="curve"/>
      <point x="352.4" y="1028.0"/>
      <point x="101.4" y="797.6"/>
      <point x="61.4" y="511.6" type="curve"/>
      <point x="19.4" y="215.6"/>
      <point x="215.6" y="-26.0"/>
      <point x="497.6" y="-26.0" type="curve"/>
      <point x="655.0" y="-26.0"/>
      <point x="808.8" y="51.4"/>
      <point x="917.1999999999999" y="178.0" type="curve"/>
    </contour>
  </outline>
</glyph>
<glyph name="d" format="2">
  <advance width="1226.5"/>
  <unicode hex="0064"/>
  <outline>
    <contour>
      <point x="1038.1999999999998" y="1500.0" type="line"/>
      <point x="943.8000000000001" y="851.0" type="line"/>
      <point x="892.4" y="953.4"/>
      <point x="794.8" y="1026.6"/>
      <point x="648.4" y="1026.6" type="curve"/>
      <point x="364.4" y="1026.6"/>
      <point x="101.4" y="796.8000000000001"/>
      <point x="61.4" y="511.6" type="curve"/>
      <point x="19.4" y="215.6"/>
      <point x="227.6" y="-26.0"/>
      <point x="523.6" y="-26.0" type="curve"/>
      <point x="658.0" y="-26.0"/>
      <point x="770.8" y="38.8"/>
      <point x="850.6" y="140.6" type="curve"/>
      <point x="827.2" y="0.0" type="line"/>
      <point x="1037.6" y="0.0" type="line"/>
      <point x="1248.6" y="1500.0" type="line"/>
    </contour>
    <contour>
      <point x="531.5999999999999" y="176.8" type="curve"/>
      <point x="367.2" y="176.8"/>
      <point x="248.4" y="313.79999999999995"/>
      <point x="273.6" y="488.4" type="curve"/>
      <point x="299.2" y="673.8"/>
      <point x="467.4" y="824.4"/>
      <point x="645.4" y="824.4" type="curve"/>
      <point x="812.4" y="824.4"/>
      <point x="906.6" y="686.8000000000001"/>
      <point x="881.4" y="511.6" type="curve"/>
      <point x="855.8" y="327.40000000000003"/>
      <point x="711.6" y="176.8"/>
    </contour>
  </outline>
</glyph>
<glyph name="e" format="2">
  <advance width="1119.25"/>
  <unicode hex="0065"/>
  <outline>
    <contour>
      <point x="497.6" y="-26.0" type="curve" smooth="yes"/>
      <point x="691.6" y="-26.0"/>
      <point x="877.4" y="92.4"/>
      <point x="982.8" y="270.4" type="curve"/>
      <point x="771.5999999999999" y="329.59999999999997" type="line"/>
      <point x="705.8000000000001" y="241.4"/>
      <point x="609.8" y="183.6"/>
      <point x="503.8" y="184.0" type="curve" smooth="yes"/>
      <point x="365.79999999999995" y="185.4"/>
      <point x="277.8" y="283.0"/>
      <point x="271.8" y="421.2" type="curve"/>
      <point x="1043.6000000000001" y="421.2" type="line"/>
      <point x="1124.0" y="745.1999999999999"/>
      <point x="935.4" y="1028.0"/>
      <point x="622.4" y="1028.0" type="curve" smooth="yes"/>
      <point x="352.4" y="1028.0"/>
      <point x="101.4" y="797.6"/>
      <point x="61.4" y="512.6" type="curve" smooth="yes"/>
      <point x="19.4" y="215.6"/>
      <point x="215.6" y="-26.0"/>
    </contour>
    <contour>
      <point x="291.8" y="581.1999999999999" type="line"/>
      <point x="335.79999999999995" y="725.4"/>
      <point x="471.79999999999995" y="843.0"/>
      <point x="619.4" y="843.0" type="curve" smooth="yes"/>
      <point x="756.1999999999999" y="843.0"/>
      <point x="855.1999999999999" y="734.2"/>
      <point x="856.6" y="592.4" type="curve"/>
    </contour>
  </outline>
</glyph>
<glyph name="f" format="2">
  <advance width="708.75"/>
  <unicode hex="0066"/>
  <outline>
    <contour>
      <point x="479.6" y="1221.4" type="line"/>
      <point x="486.8" y="1270.0"/>
      <point x="538.0" y="1314.0"/>
      <point x="592.6" y="1314.0" type="curve"/>
      <point x="613.4" y="1314.0"/>
      <point x="636.0" y="1306.0"/>
      <point x="648.4" y="1282.4" type="curve"/>
      <point x="815.4" y="1421.6" type="line"/>
      <point x="762.6" y="1488.2"/>
      <point x="686.0" y="1524.0"/>
      <point x="600.6" y="1524.0" type="curve"/>
      <point x="440.6" y="1524.0"/>
      <point x="293.4" y="1395.4"/>
      <point x="271.0" y="1231.4" type="curve"/>
      <point x="238.6" y="1000.0" type="line"/>
      <point x="120.6" y="1000.0" type="line"/>
      <point x="90.6" y="790.0" type="line"/>
      <point x="208.6" y="790.0" type="line"/>
      <point x="98.0" y="0.0" type="line"/>
      <point x="308.0" y="0.0" type="line"/>
      <point x="418.6" y="790.0" type="line"/>
      <point x="700.6" y="790.0" type="line"/>
      <point x="730.6" y="1000.0" type="line"/>
      <point x="448.6" y="1000.0" type="line"/>
    </contour>
  </outline>
</glyph>
<glyph name="g" format="2">
  <advance width="1209.75"/>
  <unicode hex="0067"/>
  <outline>
    <contour>
      <point x="949.6" y="1000.0" type="line"/>
      <point x="925.8000000000001" y="854.4" type="line"/>
      <point x="874.5999999999999" y="954.8"/>
      <point x="779.6" y="1026.6"/>
      <point x="638.8" y="1026.6" type="curve" smooth="yes"/>
      <point x="360.2" y="1026.6"/>
      <point x="101.4" y="796.8000000000001"/>
      <point x="61.4" y="511.6" type="curve" smooth="yes"/>
      <point x="19.4" y="215.6"/>
      <point x="223.4" y="-26.0"/>
      <point x="514.0" y="-26.0" type="curve" smooth="yes"/>
      <point x="642.8000000000001" y="-26.0"/>
      <point x="753.0" y="37.4"/>
      <point x="832.6" y="137.8" type="curve"/>
      <point x="806.8000000000001" y="-19.4" type="line" smooth="yes"/>
      <point x="784.6" y="-175.8"/>
      <point x="606.4" y="-288.6"/>
      <point x="436.59999999999997" y="-288.6" type="curve" smooth="yes"/>
      <point x="317.40000000000003" y="-288.6"/>
      <point x="207.60000000000002" y="-205.6"/>
      <point x="185.40000000000003" y="-82.0" type="curve"/>
      <point x="-13.600000000000003" y="-157.60000000000002" type="line"/>
      <point x="32.8" y="-349.4"/>
      <point x="214.20000000000002" y="-500.0"/>
      <point x="430.59999999999997" y="-500.0" type="curve" smooth="yes"/>
      <point x="703.2" y="-500.0"/>
      <point x="975.9999999999999" y="-307.6"/>
      <point x="1014.8" y="-30.6" type="curve" smooth="yes"/>
      <point x="1159.6" y="1000.0" type="line"/>
    </contour>
    <contour>
      <point x="521.4" y="176.8" type="curve" smooth="yes"/>
      <point x="361.2" y="176.8"/>
      <point x="248.4" y="314.4"/>
      <point x="273.6" y="488.4" type="curve" smooth="yes"/>
      <point x="299.2" y="673.8"/>
      <point x="461.4" y="824.4"/>
      <point x="635.8000000000001" y="824.4" type="curve" smooth="yes"/>
      <point x="799.2" y="824.4"/>
      <point x="892.8" y="683.8000000000001"/>
      <point x="867.5999999999999" y="511.6" type="curve" smooth="yes"/>
      <point x="842.5999999999999" y="330.40000000000003"/>
      <point x="697.8" y="176.8"/>
    </contour>
  </outline>
</glyph>
<glyph name="h" format="2">
  <advance width="1125.5"/>
  <unicode hex="0068"/>
  <outline>
    <contour>
      <point x="1047.8" y="517.0" type="line"/>
      <point x="1082.3999999999999" y="791.8"/>
      <point x="935.6" y="1026.6"/>
      <point x="659.0" y="1026.6" type="curve"/>
      <point x="547.6" y="1026.6"/>
      <point x="452.6" y="996.2"/>
      <point x="382.4" y="890.2" type="curve"/>
      <point x="471.0" y="1500.0" type="line"/>
      <point x="261.0" y="1500.0" type="line"/>
      <point x="50.0" y="0.0" type="line"/>
      <point x="261.4" y="0.0" type="line"/>
      <point x="333.4" y="513.0" type="line"/>
      <point x="356.79999999999995" y="681.5999999999999"/>
      <point x="472.20000000000005" y="824.4"/>
      <point x="633.8000000000001" y="824.4" type="curve"/>
      <point x="771.2" y="824.4"/>
      <point x="863.0" y="693.4"/>
      <point x="838.5999999999999" y="524.8000000000001" type="curve"/>
      <point x="765.8" y="0.0" type="line"/>
      <point x="975.8" y="0.0" type="line"/>
    </contour>
  </outline>
</glyph>
<glyph name="i" format="2">
  <advance width="462.5"/>
  <unicode hex="0069"/>
  <outline>
    <contour>
      <point x="193.8" y="1000.0" type="line"/>
      <point x="53.8" y="0.0" type="line"/>
      <point x="263.8" y="0.0" type="line"/>
      <point x="403.8" y="1000.0" type="line"/>
    </contour>
    <contour>
      <point x="331.4" y="1137.8" type="curve"/>
      <point x="387.6" y="1137.8"/>
      <point x="437.0" y="1182.0"/>
      <point x="444.4" y="1236.0" type="curve"/>
      <point x="454.4" y="1302.4"/>
      <point x="406.6" y="1358.6"/>
      <point x="339.79999999999995" y="1358.6" type="curve"/>
      <point x="284.4" y="1358.6"/>
      <point x="234.4" y="1313.6"/>
      <point x="226.8" y="1259.8" type="curve"/>
      <point x="217.4" y="1193.8"/>
      <point x="265.4" y="1137.8"/>
    </contour>
  </outline>
</glyph>
<glyph name="j" format="2">
  <advance width="508.25"/>
  <unicode hex="006A"/>
  <outline>
    <contour>
      <point x="-221.0" y="-500.0" type="curve"/>
      <point x="28.400000000000006" y="-500.0"/>
      <point x="237.39999999999998" y="-314.6"/>
      <point x="271.4" y="-78.6" type="curve"/>
      <point x="422.4" y="1000.0" type="line"/>
      <point x="212.4" y="1000.0" type="line"/>
      <point x="62.800000000000004" y="-67.4" type="line"/>
      <point x="45.2" y="-189.8"/>
      <point x="-72.60000000000001" y="-290.0"/>
      <point x="-190.6" y="-290.0" type="curve"/>
      <point x="-185.0" y="-290.0"/>
      <point x="-226.6" y="-500.0"/>
    </contour>
    <contour>
      <point x="348.4" y="1137.8" type="curve"/>
      <point x="403.2" y="1137.8"/>
      <point x="454.4" y="1181.6"/>
      <point x="461.4" y="1236.0" type="curve"/>
      <point x="471.4" y="1303.8000000000002"/>
      <point x="422.2" y="1358.6"/>
      <point x="356.79999999999995" y="1358.6" type="curve"/>
      <point x="300.6" y="1358.6"/>
      <point x="251.4" y="1315.0"/>
      <point x="243.8" y="1259.8" type="curve"/>
      <point x="234.4" y="1193.3999999999999"/>
      <point x="281.6" y="1137.8"/>
    </contour>
  </outline>
</glyph>
<glyph name="k" format="2">
  <advance width="1052.75"/>
  <unicode hex="006B"/>
  <outline>
    <contour>
      <point x="915.8000000000001" y="0.0" type="line"/>
      <point x="657.8000000000001" y="593.4" type="line"/>
      <point x="1058.0" y="1000.0" type="line"/>
      <point x="779.4" y="1000.0" type="line"/>
      <point x="347.2" y="558.4" type="line"/>
      <point x="482.4" y="1500.0" type="line"/>
      <point x="272.4" y="1500.0" type="line"/>
      <point x="61.400000000000006" y="0.0" type="line"/>
      <point x="271.4" y="0.0" type="line"/>
      <point x="305.59999999999997" y="231.6" type="line"/>
      <point x="494.6" y="422.0" type="line"/>
      <point x="677.8" y="0.0" type="line"/>
    </contour>
  </outline>
</glyph>
<glyph name="l" format="2">
  <advance width="472.5"/>
  <unicode hex="006C"/>
  <outline>
    <contour>
      <point x="61.400000000000006" y="0.6" type="line"/>
      <point x="271.4" y="0.6" type="line"/>
      <point x="482.4" y="1500.0" type="line"/>
      <point x="272.4" y="1500.0" type="line"/>
    </contour>
  </outline>
</glyph>
<glyph name="m" format="2">
  <advance width="1725.75"/>
  <unicode hex="006D"/>
  <outline>
    <contour>
      <point x="17.799999999999997" y="0.0" type="line"/>
      <point x="227.8" y="0.0" type="line"/>
      <point x="300.8" y="525.8" type="line" smooth="yes"/>
      <point x="321.40000000000003" y="671.1999999999999"/>
      <point x="441.79999999999995" y="802.6"/>
      <point x="578.4" y="802.6" type="curve" smooth="yes"/>
      <point x="709.4" y="802.6"/>
      <point x="784.5999999999999" y="690.2"/>
      <point x="764.4" y="544.8000000000001" type="curve" smooth="yes"/>
      <point x="687.8" y="0.0" type="line"/>
      <point x="897.8" y="0.0" type="line"/>
      <point x="972.5999999999999" y="533.0" type="line" smooth="yes"/>
      <point x="993.1999999999999" y="678.4"/>
      <point x="1113.0" y="802.6"/>
      <point x="1255.8" y="802.6" type="curve" smooth="yes"/>
      <point x="1387.2" y="802.6"/>
      <point x="1455.2" y="690.2"/>
      <point x="1434.4" y="544.8000000000001" type="curve" smooth="yes"/>
      <point x="1358.4" y="0.0" type="line"/>
      <point x="1568.4" y="0.0" type="line"/>
      <point x="1642.6000000000001" y="533.0" type="line" smooth="yes"/>
      <point x="1679.6000000000001" y="791.8"/>
      <point x="1523.6000000000001" y="1012.6"/>
      <point x="1261.8" y="1012.6" type="curve" smooth="yes"/>
      <point x="1123.3999999999999" y="1012.6"/>
      <point x="1000.2" y="948.8000000000001"/>
      <point x="900.8" y="827.2" type="curve"/>
      <point x="843.4" y="938.5999999999999"/>
      <point x="736.4" y="1012.6"/>
      <point x="584.4" y="1012.6" type="curve" smooth="yes"/>
      <point x="492.8" y="1012.6"/>
      <point x="421.40000000000003" y="973.6"/>
      <point x="348.2" y="894.8000000000001" type="curve"/>
      <point x="368.6" y="1000.0" type="line"/>
      <point x="157.8" y="1000.0" type="line"/>
    </contour>
  </outline>
</glyph>
<glyph name="n" format="2">
  <advance width="1149.25"/>
  <unicode hex="006E"/>
  <outline>
    <contour>
      <point x="1051.8000000000002" y="518.4" type="line"/>
      <point x="1087.3999999999999" y="792.5999999999999"/>
      <point x="940.6" y="1028.0"/>
      <point x="664.0" y="1028.0" type="curve"/>
      <point x="547.6" y="1028.0"/>
      <point x="442.2" y="969.8000000000001"/>
      <point x="358.8" y="870.2" type="curve"/>
      <point x="380.4" y="1000.0" type="line"/>
      <point x="170.0" y="1000.0" type="line"/>
      <point x="30.0" y="0.0" type="line"/>
      <point x="240.0" y="0.0" type="line"/>
      <point x="312.0" y="514.4" type="line"/>
      <point x="335.4" y="681.5999999999999"/>
      <point x="464.4" y="825.8"/>
      <point x="625.2" y="825.8" type="curve"/>
      <point x="776.2" y="825.8"/>
      <point x="866.6" y="693.4"/>
      <point x="842.8" y="525.6" type="curve"/>
      <point x="769.4" y="0.0" type="line"/>
      <point x="979.4000000000001" y="0.0" type="line"/>
    </contour>
  </outline>
</glyph>
<glyph name="o" format="2">
  <advance width="1120.0"/>
  <unicode hex="006F"/>
  <outline>
    <contour>
      <point x="497.6" y="-26.0" type="curve" smooth="yes"/>
      <point x="767.6" y="-26.0"/>
      <point x="1018.6" y="204.4"/>
      <point x="1058.6" y="488.4" type="curve" smooth="yes"/>
      <point x="1100.6" y="786.4"/>
      <point x="904.4" y="1028.0"/>
      <point x="622.4" y="1028.0" type="curve" smooth="yes"/>
      <point x="352.4" y="1028.0"/>
      <point x="101.4" y="797.6"/>
      <point x="61.4" y="511.6" type="curve" smooth="yes"/>
      <point x="19.4" y="215.6"/>
      <point x="215.6" y="-26.0"/>
    </contour>
    <contour>
      <point x="503.8" y="184.0" type="curve" smooth="yes"/>
      <point x="352.6" y="184.0"/>
      <point x="244.4" y="316.6"/>
      <point x="268.6" y="488.4" type="curve" smooth="yes"/>
      <point x="293.2" y="665.0"/>
      <point x="446.59999999999997" y="818.0"/>
      <point x="616.8" y="818.0" type="curve" smooth="yes"/>
      <point x="770.4" y="818.0"/>
      <point x="875.6" y="679.0"/>
      <point x="851.4" y="511.6" type="curve" smooth="yes"/>
      <point x="826.8" y="335.6"/>
      <point x="674.1999999999999" y="184.0"/>
    </contour>
  </outline>
</glyph>
<glyph name="p" format="2">
  <advance width="1246.5"/>
  <unicode hex="0070"/>
  <outline>
    <contour>
      <point x="189.4" y="-500.0" type="line"/>
      <point x="284.4" y="149.0" type="line"/>
      <point x="335.8" y="46.6"/>
      <point x="431.4" y="-28.0"/>
      <point x="578.4" y="-28.0" type="curve"/>
      <point x="863.2" y="-28.0"/>
      <point x="1124.8" y="202.4"/>
      <point x="1165.3999999999999" y="488.4" type="curve"/>
      <point x="1206.8" y="784.4"/>
      <point x="1000.0" y="1026.0"/>
      <point x="702.5999999999999" y="1026.0" type="curve"/>
      <point x="568.8" y="1026.0"/>
      <point x="456.40000000000003" y="960.4"/>
      <point x="376.6" y="858.0" type="curve"/>
      <point x="400.4" y="1000.0" type="line"/>
      <point x="190.0" y="1000.0" type="line"/>
      <point x="-21.0" y="-500.0" type="line"/>
    </contour>
    <contour>
      <point x="695.2" y="823.8" type="curve"/>
      <point x="863.4" y="823.8"/>
      <point x="978.2" y="683.0"/>
      <point x="954.0" y="511.6" type="curve"/>
      <point x="928.4" y="324.40000000000003"/>
      <point x="757.8" y="175.6"/>
      <point x="580.8" y="175.6" type="curve"/>
      <point x="413.4" y="175.6"/>
      <point x="321.6" y="315.6"/>
      <point x="346.8" y="488.4" type="curve"/>
      <point x="371.8" y="673.0"/>
      <point x="517.8" y="823.8"/>
    </contour>
  </outline>
</glyph>
<glyph name="q" format="2">
  <advance width="1246.5"/>
  <unicode hex="0071"/>
  <outline>
    <contour>
      <point x="543.6" y="-28.0" type="curve"/>
      <point x="677.4" y="-28.0"/>
      <point x="789.4" y="37.6"/>
      <point x="869.8" y="140.0" type="curve"/>
      <point x="775.8" y="-500.0" type="line"/>
      <point x="985.8" y="-500.0" type="line"/>
      <point x="1196.8" y="1000.0" type="line"/>
      <point x="986.8" y="1000.0" type="line"/>
      <point x="961.8" y="849.0" type="line"/>
      <point x="910.0" y="951.4"/>
      <point x="814.8" y="1026.0"/>
      <point x="668.4" y="1026.0" type="curve"/>
      <point x="384.4" y="1026.0"/>
      <point x="121.4" y="795.6"/>
      <point x="81.4" y="511.6" type="curve"/>
      <point x="39.4" y="213.6"/>
      <point x="247.6" y="-28.0"/>
    </contour>
    <contour>
      <point x="665.4" y="823.8" type="curve"/>
      <point x="832.4" y="823.8"/>
      <point x="924.8000000000001" y="684.8000000000001"/>
      <point x="900.0" y="511.6" type="curve"/>
      <point x="874.4" y="327.40000000000003"/>
      <point x="731.6" y="175.6"/>
      <point x="551.5999999999999" y="175.6" type="curve"/>
      <point x="385.79999999999995" y="175.6"/>
      <point x="268.4" y="312.6"/>
      <point x="293.6" y="488.4" type="curve"/>
      <point x="319.2" y="671.8"/>
      <point x="485.4" y="823.8"/>
    </contour>
  </outline>
</glyph>
<glyph name="r" format="2">
  <advance width="775.75"/>
  <unicode hex="0072"/>
  <outline>
    <contour>
      <point x="757.4" y="792.4" type="curve"/>
      <point x="812.4" y="1010.8" type="line"/>
      <point x="776.4" y="1022.8"/>
      <point x="734.8" y="1026.6"/>
      <point x="684.5999999999999" y="1026.6" type="curve" smooth="yes"/>
      <point x="568.1999999999999" y="1026.6"/>
      <point x="462.2" y="968.4"/>
      <point x="378.8" y="870.2" type="curve"/>
      <point x="400.4" y="998.6" type="line"/>
      <point x="190.0" y="998.6" type="line"/>
      <point x="50.0" y="0.0" type="line"/>
      <point x="261.4" y="0.0" type="line"/>
      <point x="333.4" y="513.0" type="line" smooth="yes"/>
      <point x="356.79999999999995" y="681.5999999999999"/>
      <point x="484.4" y="824.4"/>
      <point x="645.8000000000001" y="824.4" type="curve" smooth="yes"/>
      <point x="687.6" y="824.4"/>
      <point x="726.5999999999999" y="814.4"/>
    </contour>
  </outline>
</glyph>
<glyph name="s" format="2">
  <advance width="885.75"/>
  <unicode hex="0073"/>
  <outline>
    <contour>
      <point x="368.6" y="-17.8" type="curve" smooth="yes"/>
      <point x="563.6" y="-30.4"/>
      <point x="766.8" y="91.0"/>
      <point x="792.6" y="273.6" type="curve" smooth="yes"/>
      <point x="820.6" y="449.79999999999995"/>
      <point x="663.0" y="538.4"/>
      <point x="487.0" y="593.8" type="curve" smooth="yes"/>
      <point x="398.79999999999995" y="626.6"/>
      <point x="298.8" y="632.4"/>
      <point x="310.6" y="714.4" type="curve" smooth="yes"/>
      <point x="323.6" y="809.4"/>
      <point x="421.8" y="857.1999999999999"/>
      <point x="530.0" y="854.0" type="curve" smooth="yes"/>
      <point x="603.5999999999999" y="849.4"/>
      <point x="675.2" y="808.6"/>
      <point x="697.2" y="749.8000000000001" type="curve"/>
      <point x="871.8000000000001" y="838.5999999999999" type="line"/>
      <point x="815.2" y="956.8"/>
      <point x="681.8" y="1034.0"/>
      <point x="515.5999999999999" y="1034.0" type="curve" smooth="yes"/>
      <point x="327.79999999999995" y="1034.0"/>
      <point x="141.4" y="919.4"/>
      <point x="114.6" y="732.6" type="curve" smooth="yes"/>
      <point x="89.39999999999999" y="549.8000000000001"/>
      <point x="242.20000000000002" y="457.4"/>
      <point x="439.6" y="414.0" type="curve" smooth="yes"/>
      <point x="516.8000000000001" y="391.2"/>
      <point x="611.6" y="374.6"/>
      <point x="600.4" y="294.6" type="curve" smooth="yes"/>
      <point x="588.8" y="208.6"/>
      <point x="488.59999999999997" y="161.4"/>
      <point x="392.0" y="161.4" type="curve" smooth="yes"/>
      <point x="301.59999999999997" y="161.4"/>
      <point x="221.79999999999998" y="213.6"/>
      <point x="202.4" y="268.0" type="curve"/>
      <point x="19.8" y="201.2" type="line"/>
      <point x="58.39999999999999" y="74.8"/>
      <point x="205.20000000000002" y="-9.6"/>
    </contour>
  </outline>
</glyph>
<glyph name="t" format="2">
  <advance width="707.5"/>
  <unicode hex="0074"/>
  <outline>
    <contour>
      <point x="689.6" y="790.0" type="line"/>
      <point x="718.4" y="1000.0" type="line"/>
      <point x="509.4" y="1000.0" type="line"/>
      <point x="556.4" y="1340.4" type="line"/>
      <point x="346.40000000000003" y="1340.4" type="line"/>
      <point x="299.4" y="1000.0" type="line"/>
      <point x="141.2" y="1000.0" type="line"/>
      <point x="111.8" y="790.0" type="line"/>
      <point x="270.59999999999997" y="790.0" type="line"/>
      <point x="158.8" y="0.0" type="line"/>
      <point x="368.8" y="0.0" type="line"/>
      <point x="480.59999999999997" y="790.0" type="line"/>
    </contour>
  </outline>
</glyph>
<glyph name="u" format="2">
  <advance width="1189.25"/>
  <unicode hex="0075"/>
  <outline>
    <contour>
      <point x="118.0" y="483.6" type="line"/>
      <point x="82.0" y="208.0"/>
      <point x="229.4" y="-27.4"/>
      <point x="505.4" y="-27.4" type="curve"/>
      <point x="622.4" y="-27.4"/>
      <point x="727.8000000000001" y="32.199999999999996"/>
      <point x="810.6" y="130.4" type="curve"/>
      <point x="788.4" y="0.0" type="line"/>
      <point x="999.4000000000001" y="0.0" type="line"/>
      <point x="1139.4" y="1000.0" type="line"/>
      <point x="929.4" y="1000.0" type="line"/>
      <point x="857.4" y="487.6" type="line"/>
      <point x="834.0" y="319.0"/>
      <point x="704.4" y="176.8"/>
      <point x="544.1999999999999" y="176.8" type="curve"/>
      <point x="393.2" y="176.8"/>
      <point x="302.8" y="307.79999999999995"/>
      <point x="326.6" y="476.4" type="curve"/>
      <point x="400.0" y="1000.0" type="line"/>
      <point x="190.0" y="1000.0" type="line"/>
    </contour>
  </outline>
</glyph>
<glyph name="v" format="2">
  <advance width="1119.0"/>
  <unicode hex="0076"/>
  <outline>
    <contour>
      <point x="625.8" y="0.0" type="line"/>
      <point x="1131.4" y="1001.8" type="line"/>
      <point x="903.6" y="1001.8" type="line"/>
      <point x="519.5999999999999" y="242.60000000000002" type="line"/>
      <point x="352.6" y="1001.8" type="line"/>
      <point x="132.4" y="1001.8" type="line"/>
      <point x="356.0" y="0.0" type="line"/>
    </contour>
  </outline>
</glyph>
<glyph name="w" format="2">
  <advance width="1679.0"/>
  <unicode hex="0077"/>
  <outline>
    <contour>
      <point x="535.4" y="0.0" type="line"/>
      <point x="870.8000000000001" y="703.6" type="line"/>
      <point x="1005.8000000000001" y="0.0" type="line"/>
      <point x="1215.8000000000002" y="0.0" type="line"/>
      <point x="1691.4" y="1000.6" type="line"/>
      <point x="1481.8" y="1000.6" type="line"/>
      <point x="1147.4" y="300.6" type="line"/>
      <point x="1013.6" y="1000.6" type="line"/>
      <point x="802.6" y="1000.6" type="line"/>
      <point x="469.6" y="300.6" type="line"/>
      <point x="334.40000000000003" y="1000.6" type="line"/>
      <point x="132.4" y="1000.6" type="line"/>
      <point x="326.0" y="0.0" type="line"/>
    </contour>
  </outline>
</glyph>
<glyph name="x" format="2">
  <advance width="1151.0"/>
  <unicode hex="0078"/>
  <outline>
    <contour>
      <point x="7.6" y="0.0" type="line"/>
      <point x="270.8" y="0.0" type="line"/>
      <point x="555.4" y="324.8" type="line"/>
      <point x="743.8" y="0.0" type="line"/>
      <point x="998.6" y="0.0" type="line"/>
      <point x="705.0" y="502.0" type="line"/>
      <point x="1140.6" y="1001.8" type="line"/>
      <point x="877.4" y="1001.8" type="line"/>
      <point x="596.4" y="681.8" type="line"/>
      <point x="409.40000000000003" y="1001.8" type="line"/>
      <point x="154.60000000000002" y="1001.8" type="line"/>
      <point x="446.0" y="502.0" type="line"/>
    </contour>
  </outline>
</glyph>
<glyph name="y" format="2">
  <advance width="1108.5"/>
  <unicode hex="0079"/>
  <outline>
    <contour>
      <point x="874.0" y="1000.0" type="line"/>
      <point x="511.79999999999995" y="287.6" type="line"/>
      <point x="378.8" y="1000.0" type="line"/>
      <point x="152.4" y="1000.0" type="line"/>
      <point x="369.4" y="0.6" type="line"/>
      <point x="116.4" y="-500.0" type="line"/>
      <point x="342.79999999999995" y="-500.0" type="line"/>
      <point x="1100.6" y="1000.0" type="line"/>
    </contour>
  </outline>
</glyph>
<glyph name="z" format="2">
  <advance width="1079.0"/>
  <unicode hex="007A"/>
  <outline>
    <contour>
      <point x="1009.1999999999999" y="790.0" type="line"/>
      <point x="1036.8" y="1000.0" type="line"/>
      <point x="182.8" y="1000.0" type="line"/>
      <point x="153.4" y="790.0" type="line"/>
      <point x="703.6" y="790.0" type="line"/>
      <point x="69.8" y="210.0" type="line"/>
      <point x="42.8" y="0.0" type="line"/>
      <point x="896.8" y="0.0" type="line"/>
      <point x="925.5999999999999" y="210.0" type="line"/>
      <point x="375.40000000000003" y="210.0" type="line"/>
    </contour>
  </outline>
</glyph>
<glyph name="braceleft" format="2">
  <advance width="815.0"/>
  <unicode hex="007B"/>
  <outline>
    <contour>
      <point x="537.4" y="-112.6" type="curve" smooth="yes"/>
      <point x="629.0" y="-112.6" type="line"/>
      <point x="658.4" y="97.4" type="line"/>
      <point x="555.6" y="97.4" type="line" smooth="yes"/>
      <point x="478.40000000000003" y="97.4"/>
      <point x="429.79999999999995" y="154.0"/>
      <point x="440.4" y="231.8" type="curve" smooth="yes"/>
      <point x="475.4" y="484.79999999999995" type="line" smooth="yes"/>
      <point x="481.59999999999997" y="556.5999999999999"/>
      <point x="428.4" y="574.8"/>
      <point x="393.40000000000003" y="631.8" type="curve" smooth="yes"/>
      <point x="445.0" y="696.6"/>
      <point x="505.79999999999995" y="720.4"/>
      <point x="519.4" y="791.4" type="curve" smooth="yes"/>
      <point x="554.4" y="1044.4" type="line" smooth="yes"/>
      <point x="565.6" y="1121.6"/>
      <point x="644.4" y="1190.0"/>
      <point x="721.6" y="1190.0" type="curve" smooth="yes"/>
      <point x="811.6" y="1190.0" type="line"/>
      <point x="841.0" y="1400.0" type="line"/>
      <point x="738.8" y="1400.0" type="line" smooth="yes"/>
      <point x="544.8" y="1400.0"/>
      <point x="373.4" y="1247.6"/>
      <point x="346.4" y="1055.6" type="curve" smooth="yes"/>
      <point x="311.79999999999995" y="809.6" type="line" smooth="yes"/>
      <point x="299.6" y="738.8000000000001"/>
      <point x="152.6" y="731.0"/>
      <point x="141.8" y="655.0" type="curve" smooth="yes"/>
      <point x="129.4" y="565.0"/>
      <point x="275.8" y="565.4"/>
      <point x="266.79999999999995" y="487.6" type="curve" smooth="yes"/>
      <point x="231.79999999999998" y="243.0" type="line" smooth="yes"/>
      <point x="204.79999999999998" y="49.6"/>
      <point x="343.4" y="-112.6"/>
    </contour>
  </outline>
</glyph>
<glyph name="bar" format="2">
  <advance width="490.0"/>
  <unicode hex="007C"/>
  <outline>
    <contour>
      <point x="266.0" y="1400.0" type="line"/>
      <point x="27.0" y="-302.0" type="line"/>
      <point x="237.0" y="-302.0" type="line"/>
      <point x="476.0" y="1400.0" type="line"/>
    </contour>
  </outline>
</glyph>
<glyph name="braceright" format="2">
  <advance width="815.0"/>
  <unicode hex="007D"/>
  <outline>
    <contour>
      <point x="14.0" y="-112.6" type="line"/>
      <point x="116.19999999999999" y="-112.6" type="line" smooth="yes"/>
      <point x="310.20000000000005" y="-112.6"/>
      <point x="482.20000000000005" y="38.4"/>
      <point x="509.20000000000005" y="231.8" type="curve" smooth="yes"/>
      <point x="543.2" y="476.4" type="line" smooth="yes"/>
      <point x="556.4" y="553.5999999999999"/>
      <point x="702.6" y="553.8"/>
      <point x="713.6" y="631.8" type="curve" smooth="yes"/>
      <point x="726.2" y="719.8"/>
      <point x="580.6" y="727.0"/>
      <point x="588.6" y="798.4" type="curve" smooth="yes"/>
      <point x="623.2" y="1044.4" type="line" smooth="yes"/>
      <point x="650.2" y="1236.4"/>
      <point x="511.6" y="1400.0"/>
      <point x="317.6" y="1400.0" type="curve" smooth="yes"/>
      <point x="226.0" y="1400.0" type="line"/>
      <point x="196.6" y="1190.0" type="line"/>
      <point x="299.8" y="1190.0" type="line" smooth="yes"/>
      <point x="376.40000000000003" y="1190.0"/>
      <point x="425.8" y="1133.3999999999999"/>
      <point x="414.6" y="1055.6" type="curve" smooth="yes"/>
      <point x="379.6" y="802.6" type="line"/>
      <point x="373.40000000000003" y="731.6"/>
      <point x="428.40000000000003" y="707.2"/>
      <point x="462.6" y="654.4" type="curve" smooth="yes"/>
      <point x="408.8" y="585.4"/>
      <point x="350.20000000000005" y="568.4"/>
      <point x="336.0" y="496.0" type="curve"/>
      <point x="300.6" y="243.0" type="line" smooth="yes"/>
      <point x="289.40000000000003" y="165.79999999999998"/>
      <point x="211.59999999999997" y="97.4"/>
      <point x="134.4" y="97.4" type="curve" smooth="yes"/>
      <point x="43.4" y="97.4" type="line"/>
    </contour>
  </outline>
</glyph>
<glyph name="asciitilde" format="2">
  <advance width="1278.5"/>
  <unicode hex="007E"/>
  <outline>
    <contour>
      <point x="938.4000000000001" y="406.2" type="curve" smooth="yes"/>
      <point x="1107.3999999999999" y="406.2"/>
      <point x="1232.6000000000001" y="555.8"/>
      <point x="1224.3999999999999" y="729.4" type="curve"/>
      <point x="1021.8000000000001" y="739.6" type="line"/>
      <point x="1022.6" y="668.6"/>
      <point x="968.0" y="599.6"/>
      <point x="889.2" y="599.6" type="curve" smooth="yes"/>
      <point x="751.0" y="599.6"/>
      <point x="572.1999999999999" y="793.8"/>
      <point x="397.6" y="793.8" type="curve" smooth="yes"/>
      <point x="225.6" y="793.8"/>
      <point x="73.8" y="636.6"/>
      <point x="80.4" y="467.20000000000005" type="curve"/>
      <point x="284.0" y="455.79999999999995" type="line"/>
      <point x="282.79999999999995" y="524.1999999999999"/>
      <point x="334.6" y="596.6"/>
      <point x="412.8" y="595.4" type="curve" smooth="yes"/>
      <point x="543.2" y="596.6"/>
      <point x="760.2" y="406.2"/>
    </contour>
  </outline>
</glyph>
<glyph name="exclamdown" format="2">
  <advance width="405.0"/>
  <unicode hex="00A1"/>
  <outline>
    <contour>
      <point x="251.4" y="1026.0" type="curve"/>
      <point x="197.0" y="1026.0"/>
      <point x="147.8" y="983.0"/>
      <point x="139.8" y="925.8000000000001" type="curve"/>
      <point x="130.4" y="859.4"/>
      <point x="177.6" y="804.6"/>
      <point x="244.0" y="804.6" type="curve"/>
      <point x="299.79999999999995" y="804.6"/>
      <point x="349.0" y="847.5999999999999"/>
      <point x="356.6" y="902.0" type="curve"/>
      <point x="366.0" y="971.8"/>
      <point x="319.79999999999995" y="1026.0"/>
    </contour>
    <contour>
      <point x="290.0" y="580.0" type="line"/>
      <point x="111.4" y="580.0" type="line"/>
      <point x="-25.599999999999994" y="-400.0" type="line"/>
      <point x="153.0" y="-400.0" type="line"/>
    </contour>
  </outline>
</glyph>
<glyph name="cent" format="2">
  <advance width="1092.0"/>
  <unicode hex="00A2"/>
  <outline>
    <contour>
      <point x="436.20000000000005" y="0.0" type="line"/>
      <point x="584.4" y="0.0" type="line"/>
      <point x="618.4" y="203.6" type="line"/>
      <point x="772.5999999999999" y="224.4"/>
      <point x="911.4" y="309.6"/>
      <point x="1005.8" y="435.4" type="curve"/>
      <point x="832.8" y="549.6" type="line"/>
      <point x="769.0" y="466.6"/>
      <point x="661.4" y="408.0"/>
      <point x="557.8" y="408.0" type="curve" smooth="yes"/>
      <point x="404.8" y="408.0"/>
      <point x="294.4" y="532.8"/>
      <point x="316.6" y="690.4" type="curve" smooth="yes"/>
      <point x="340.2" y="856.8"/>
      <point x="497.40000000000003" y="994.0"/>
      <point x="663.8" y="994.0" type="curve" smooth="yes"/>
      <point x="755.8000000000001" y="994.0"/>
      <point x="842.4" y="944.6"/>
      <point x="884.8" y="861.6" type="curve"/>
      <point x="1074.2" y="957.4" type="line"/>
      <point x="1014.1999999999999" y="1082.6"/>
      <point x="894.4" y="1175.3999999999999"/>
      <point x="746.4" y="1195.6" type="curve"/>
      <point x="781.4" y="1400.0" type="line"/>
      <point x="632.6" y="1400.0" type="line"/>
      <point x="599.6" y="1198.4" type="line"/>
      <point x="353.2" y="1162.6"/>
      <point x="144.6" y="958.6"/>
      <point x="110.4" y="713.6" type="curve" smooth="yes"/>
      <point x="73.8" y="455.8"/>
      <point x="235.8" y="243.0"/>
      <point x="471.20000000000005" y="206.4" type="curve"/>
    </contour>
  </outline>
</glyph>
<glyph name="sterling" format="2">
  <advance width="1184.0"/>
  <unicode hex="00A3"/>
  <outline>
    <contour>
      <point x="34.0" y="0.0" type="line"/>
      <point x="1017.5999999999999" y="0.0" type="line"/>
      <point x="1047.0" y="210.0" type="line"/>
      <point x="475.4" y="204.4" type="line"/>
      <point x="512.4" y="225.4"/>
      <point x="558.2" y="282.79999999999995"/>
      <point x="565.4" y="335.6" type="curve" smooth="yes"/>
      <point x="608.6" y="635.5999999999999"/>
      <point x="308.8" y="634.5999999999999"/>
      <point x="346.4" y="903.4" type="curve" smooth="yes"/>
      <point x="370.4" y="1074.8000000000002"/>
      <point x="531.8000000000001" y="1216.0"/>
      <point x="703.8" y="1216.0" type="curve" smooth="yes"/>
      <point x="864.6" y="1216.0"/>
      <point x="976.8" y="1086.0"/>
      <point x="952.8" y="920.6" type="curve"/>
      <point x="1161.4" y="909.4" type="line"/>
      <point x="1201.2" y="1191.0"/>
      <point x="997.5999999999999" y="1426.0"/>
      <point x="709.4" y="1426.0" type="curve" smooth="yes"/>
      <point x="434.6" y="1426.0"/>
      <point x="178.6" y="1201.3999999999999"/>
      <point x="140.2" y="926.6" type="curve" smooth="yes"/>
      <point x="103.8" y="669.4"/>
      <point x="350.8" y="596.4"/>
      <point x="364.2" y="417.6" type="curve" smooth="yes"/>
      <point x="384.6" y="291.59999999999997"/>
      <point x="199.4" y="210.0"/>
      <point x="57.8" y="210.0" type="curve"/>
    </contour>
    <contour>
      <point x="96.6" y="447.0" type="line"/>
      <point x="859.8" y="447.0" type="line"/>
      <point x="880.5999999999999" y="594.8" type="line"/>
      <point x="117.4" y="594.8" type="line"/>
    </contour>
  </outline>
</glyph>
<glyph name="currency" format="2">
  <advance width="1012.5"/>
  <unicode hex="00A4"/>
  <outline>
    <contour>
      <point x="156.4" y="273.6" type="line"/>
      <point x="304.40000000000003" y="403.40000000000003" type="line"/>
      <point x="410.8" y="321.0"/>
      <point x="562.4" y="315.59999999999997"/>
      <point x="694.4" y="395.8" type="curve"/>
      <point x="802.0" y="273.6" type="line"/>
      <point x="915.8" y="377.8" type="line"/>
      <point x="809.4" y="498.2" type="line"/>
      <point x="907.2" y="615.8"/>
      <point x="923.2" y="773.8"/>
      <point x="858.6" y="891.4" type="curve"/>
      <point x="1006.1999999999999" y="1023.6" type="line"/>
      <point x="913.8" y="1126.4" type="line"/>
      <point x="763.8" y="996.6" type="line"/>
      <point x="661.6" y="1073.0"/>
      <point x="503.79999999999995" y="1078.0"/>
      <point x="378.8" y="1000.8" type="curve"/>
      <point x="268.6" y="1126.4" type="line"/>
      <point x="153.4" y="1023.6" type="line"/>
      <point x="264.8" y="897.8000000000001" type="line"/>
      <point x="166.4" y="781.6"/>
      <point x="151.0" y="627.6"/>
      <point x="212.0" y="510.8" type="curve"/>
      <point x="62.6" y="377.8" type="line"/>
    </contour>
    <contour>
      <point x="494.8" y="486.2" type="curve" smooth="yes"/>
      <point x="386.59999999999997" y="484.8"/>
      <point x="307.0" y="574.1999999999999"/>
      <point x="323.20000000000005" y="686.8" type="curve" smooth="yes"/>
      <point x="339.40000000000003" y="805.1999999999999"/>
      <point x="451.0" y="910.6"/>
      <point x="577.5999999999999" y="909.2" type="curve" smooth="yes"/>
      <point x="685.4" y="907.8"/>
      <point x="765.6" y="826.4"/>
      <point x="749.0" y="710.6" type="curve" smooth="yes"/>
      <point x="731.4" y="585.8000000000001"/>
      <point x="617.2" y="487.6"/>
    </contour>
  </outline>
</glyph>
<glyph name="yen" format="2">
  <advance width="1300.5"/>
  <unicode hex="00A5"/>
  <outline>
    <contour>
      <point x="475.4" y="0.0" type="line"/>
      <point x="685.4" y="0.0" type="line"/>
      <point x="707.8" y="162.4" type="line"/>
      <point x="966.8" y="162.4" type="line"/>
      <point x="987.6" y="310.2" type="line"/>
      <point x="728.6" y="310.2" type="line"/>
      <point x="745.8" y="428.4" type="line"/>
      <point x="1004.8" y="428.4" type="line"/>
      <point x="1025.0" y="576.2" type="line"/>
      <point x="766.0" y="576.2" type="line"/>
      <point x="775.8" y="632.4" type="line"/>
      <point x="1361.8" y="1400.0" type="line"/>
      <point x="1109.3999999999999" y="1400.0" type="line"/>
      <point x="696.4" y="860.6" type="line"/>
      <point x="439.2" y="1400.0" type="line"/>
      <point x="196.60000000000002" y="1400.0" type="line"/>
      <point x="565.8" y="632.4" type="line"/>
      <point x="555.6" y="576.2" type="line"/>
      <point x="297.0" y="576.2" type="line"/>
      <point x="276.79999999999995" y="428.4" type="line"/>
      <point x="535.8" y="428.4" type="line"/>
      <point x="518.6" y="310.2" type="line"/>
      <point x="259.59999999999997" y="310.2" type="line"/>
      <point x="238.79999999999998" y="162.4" type="line"/>
      <point x="497.79999999999995" y="162.4" type="line"/>
    </contour>
  </outline>
</glyph>
<glyph name="brokenbar" format="2">
  <advance width="450.0"/>
  <unicode hex="00A6"/>
  <outline>
    <contour>
      <point x="113.0" y="448.0" type="line"/>
      <point x="7.0" y="-302.0" type="line"/>
      <point x="217.0" y="-302.0" type="line"/>
      <point x="323.0" y="448.0" type="line"/>
    </contour>
    <contour>
      <point x="246.0" y="1400.0" type="line"/>
      <point x="141.0" y="650.0" type="line"/>
      <point x="351.0" y="650.0" type="line"/>
      <point x="456.0" y="1400.0" type="line"/>
    </contour>
  </outline>
</glyph>
<glyph name="section" format="2">
  <advance width="1093.5"/>
  <unicode hex="00A7"/>
  <outline>
    <contour>
      <point x="430.79999999999995" y="-381.8" type="curve" smooth="yes"/>
      <point x="619.6" y="-381.8"/>
      <point x="806.0" y="-266.6"/>
      <point x="831.8" y="-80.39999999999999" type="curve" smooth="yes"/>
      <point x="846.4" y="25.0"/>
      <point x="801.6" y="95.4"/>
      <point x="709.8000000000001" y="132.2" type="curve"/>
      <point x="849.6" y="203.0"/>
      <point x="951.4" y="339.79999999999995"/>
      <point x="971.8" y="487.79999999999995" type="curve" smooth="yes"/>
      <point x="1006.4" y="735.0"/>
      <point x="864.8" y="898.4"/>
      <point x="629.8000000000001" y="944.8000000000001" type="curve" smooth="yes"/>
      <point x="536.0" y="967.0"/>
      <point x="444.6" y="981.0"/>
      <point x="456.40000000000003" y="1061.6" type="curve" smooth="yes"/>
      <point x="469.40000000000003" y="1156.6"/>
      <point x="568.1999999999999" y="1204.4"/>
      <point x="676.8" y="1201.8000000000002" type="curve" smooth="yes"/>
      <point x="749.4" y="1197.2"/>
      <point x="821.5999999999999" y="1155.8"/>
      <point x="844.0" y="1097.6000000000001" type="curve"/>
      <point x="1017.6" y="1185.8" type="line"/>
      <point x="961.0" y="1304.6"/>
      <point x="827.6" y="1381.8"/>
      <point x="662.4" y="1381.8" type="curve" smooth="yes"/>
      <point x="473.6" y="1381.8"/>
      <point x="287.8" y="1266.6"/>
      <point x="261.4" y="1080.3999999999999" type="curve" smooth="yes"/>
      <point x="246.8" y="974.4"/>
      <point x="291.6" y="904.0"/>
      <point x="382.6" y="868.5999999999999" type="curve"/>
      <point x="242.4" y="796.6"/>
      <point x="142.4" y="659.0"/>
      <point x="121.4" y="511.0" type="curve" smooth="yes"/>
      <point x="88.6" y="280.40000000000003"/>
      <point x="232.59999999999997" y="90.4"/>
      <point x="460.4" y="56.199999999999996" type="curve" smooth="yes"/>
      <point x="552.6" y="36.8"/>
      <point x="648.6" y="20.400000000000002"/>
      <point x="637.4" y="-61.599999999999994" type="curve" smooth="yes"/>
      <point x="623.8" y="-156.60000000000002"/>
      <point x="525.6" y="-204.4"/>
      <point x="416.4" y="-201.79999999999998" type="curve" smooth="yes"/>
      <point x="343.8" y="-197.20000000000002"/>
      <point x="272.2" y="-155.79999999999998"/>
      <point x="249.79999999999998" y="-97.60000000000001" type="curve"/>
      <point x="75.60000000000001" y="-185.8" type="line"/>
      <point x="132.8" y="-304.6"/>
      <point x="265.6" y="-381.8"/>
    </contour>
    <contour>
      <point x="507.79999999999995" y="247.4" type="curve" smooth="yes"/>
      <point x="375.40000000000003" y="247.4"/>
      <point x="285.2" y="352.0"/>
      <point x="304.4" y="487.79999999999995" type="curve" smooth="yes"/>
      <point x="323.79999999999995" y="625.4"/>
      <point x="454.6" y="752.6"/>
      <point x="580.4" y="752.6" type="curve" smooth="yes"/>
      <point x="715.8" y="752.6"/>
      <point x="809.1999999999999" y="658.8000000000001"/>
      <point x="788.1999999999999" y="508.6" type="curve" smooth="yes"/>
      <point x="769.0" y="372.8"/>
      <point x="640.0" y="247.4"/>
    </contour>
  </outline>
</glyph>
<glyph name="copyright" format="2">
  <advance width="1872.75"/>
  <unicode hex="00A9"/>
  <outline>
    <contour>
      <point x="837.4" y="-285.8" type="curve" smooth="yes"/>
      <point x="1304.6" y="-285.8"/>
      <point x="1734.8" y="91.4"/>
      <point x="1800.8" y="558.8" type="curve" smooth="yes"/>
      <point x="1868.6" y="1039.0"/>
      <point x="1533.4" y="1426.0"/>
      <point x="1054.0" y="1426.0" type="curve" smooth="yes"/>
      <point x="586.5999999999999" y="1426.0"/>
      <point x="157.4" y="1049.3999999999999"/>
      <point x="91.4" y="582.0" type="curve" smooth="yes"/>
      <point x="24.6" y="102.6"/>
      <point x="358.40000000000003" y="-285.8"/>
    </contour>
    <contour>
      <point x="843.4" y="-75.8" type="curve" smooth="yes"/>
      <point x="499.79999999999995" y="-75.8"/>
      <point x="248.0" y="199.60000000000002"/>
      <point x="298.2" y="558.8" type="curve" smooth="yes"/>
      <point x="348.8" y="915.8"/>
      <point x="680.2" y="1214.8"/>
      <point x="1048.3999999999999" y="1216.0" type="curve" smooth="yes"/>
      <point x="1399.3999999999999" y="1217.8"/>
      <point x="1643.8" y="931.6"/>
      <point x="1594.6" y="582.0" type="curve" smooth="yes"/>
      <point x="1544.0" y="226.79999999999998"/>
      <point x="1213.0" y="-75.8"/>
    </contour>
    <component base="c" xOffset="390.4" yOffset="70.4"/>
  </outline>
</glyph>
<glyph name="logicalnot" format="2">
  <advance width="1006.5"/>
  <unicode hex="00AC"/>
  <outline>
    <contour>
      <point x="687.8" y="297.8" type="line"/>
      <point x="897.8" y="297.8" type="line"/>
      <point x="983.1999999999999" y="902.8" type="line"/>
      <point x="136.4" y="902.8" type="line"/>
      <point x="107.6" y="692.8" type="line"/>
      <point x="743.8" y="692.8" type="line"/>
    </contour>
  </outline>
</glyph>
<glyph name="registered" format="2">
  <advance width="1082.25"/>
  <unicode hex="00AE"/>
  <outline>
    <contour>
      <point x="541.1999999999999" y="419.8" type="curve" smooth="yes"/>
      <point x="798.4" y="420.4"/>
      <point x="1040.8000000000002" y="628.5999999999999"/>
      <point x="1077.0" y="889.8" type="curve" smooth="yes"/>
      <point x="1114.2" y="1153.4"/>
      <point x="929.8000000000001" y="1381.6"/>
      <point x="652.8" y="1381.6" type="curve" smooth="yes"/>
      <point x="392.40000000000003" y="1381.6"/>
      <point x="154.2" y="1170.6"/>
      <point x="118.4" y="913.0" type="curve" smooth="yes"/>
      <point x="80.2" y="642.6"/>
      <point x="268.6" y="420.4"/>
    </contour>
    <contour>
      <point x="539.5999999999999" y="573.4" type="curve" smooth="yes"/>
      <point x="364.6" y="573.4"/>
      <point x="244.2" y="714.4"/>
      <point x="268.8" y="889.8" type="curve" smooth="yes"/>
      <point x="294.6" y="1075.8000000000002"/>
      <point x="468.8" y="1228.0"/>
      <point x="654.4" y="1228.0" type="curve" smooth="yes"/>
      <point x="830.2" y="1228.0"/>
      <point x="951.1999999999999" y="1087.0"/>
      <point x="926.5999999999999" y="913.0" type="curve" smooth="yes"/>
      <point x="900.1999999999999" y="725.6"/>
      <point x="726.0" y="573.4"/>
    </contour>
    <contour>
      <point x="436.6" y="704.0" type="line"/>
      <point x="528.0" y="704.0" type="line"/>
      <point x="550.6" y="862.4" type="line"/>
      <point x="575.8" y="862.4" type="line"/>
      <point x="646.4" y="704.0" type="line"/>
      <point x="746.6" y="704.0" type="line"/>
      <point x="675.5999999999999" y="873.0" type="line"/>
      <point x="723.8" y="891.6"/>
      <point x="753.1999999999999" y="933.5999999999999"/>
      <point x="759.8" y="979.5999999999999" type="curve" smooth="yes"/>
      <point x="770.5999999999999" y="1057.6"/>
      <point x="719.2" y="1121.8"/>
      <point x="649.8" y="1121.8" type="curve" smooth="yes"/>
      <point x="495.6" y="1121.8" type="line"/>
    </contour>
    <contour>
      <point x="562.6" y="953.8" type="line"/>
      <point x="573.4" y="1030.4" type="line"/>
      <point x="649.4" y="1030.4" type="line" smooth="yes"/>
      <point x="667.0" y="1030.4"/>
      <point x="673.8" y="1019.0"/>
      <point x="671.6" y="1003.4" type="curve" smooth="yes"/>
      <point x="668.1999999999999" y="976.4"/>
      <point x="644.6" y="953.8"/>
      <point x="626.4" y="953.8" type="curve" smooth="yes"/>
    </contour>
  </outline>
</glyph>
<glyph name="macron" format="2">
  <advance width="1200.0"/>
  <unicode hex="00AF"/>
  <outline>
    <contour>
      <point x="388.0" y="1397.0" type="line"/>
      <point x="358.6" y="1187.0" type="line"/>
      <point x="1034.6" y="1187.0" type="line"/>
      <point x="1064.0" y="1397.0" type="line"/>
    </contour>
  </outline>
</glyph>
<glyph name="degree" format="2">
  <advance width="845.25"/>
  <unicode hex="00B0"/>
  <outline>
    <contour>
      <point x="468.59999999999997" y="738.0" type="curve" smooth="yes"/>
      <point x="647.2" y="738.0"/>
      <point x="818.1999999999999" y="879.8"/>
      <point x="845.0" y="1068.4" type="curve" smooth="yes"/>
      <point x="871.4" y="1256.8000000000002"/>
      <point x="741.8" y="1422.0"/>
      <point x="540.6" y="1422.0" type="curve" smooth="yes"/>
      <point x="356.2" y="1422.0"/>
      <point x="188.8" y="1271.6"/>
      <point x="163.4" y="1091.6" type="curve" smooth="yes"/>
      <point x="137.0" y="903.8000000000001"/>
      <point x="268.8" y="738.0"/>
    </contour>
    <contour>
      <point x="474.79999999999995" y="948.0" type="curve" smooth="yes"/>
      <point x="406.79999999999995" y="948.0"/>
      <point x="360.6" y="1000.4"/>
      <point x="369.6" y="1068.4" type="curve" smooth="yes"/>
      <point x="381.6" y="1148.4"/>
      <point x="455.0" y="1212.0"/>
      <point x="535.0" y="1212.0" type="curve" smooth="yes"/>
      <point x="601.6" y="1212.0"/>
      <point x="647.8" y="1159.6"/>
      <point x="638.8" y="1091.6" type="curve" smooth="yes"/>
      <point x="626.8" y="1011.6"/>
      <point x="553.4" y="948.0"/>
    </contour>
  </outline>
</glyph>
<glyph name="plusminus" format="2">
  <advance width="1160.0"/>
  <unicode hex="00B1"/>
  <outline>
    <contour>
      <point x="455.6" y="362.8" type="line"/>
      <point x="665.6" y="362.8" type="line"/>
      <point x="721.2" y="757.8" type="line"/>
      <point x="1116.2" y="757.8" type="line"/>
      <point x="1145.6" y="967.8" type="line"/>
      <point x="750.6" y="967.8" type="line"/>
      <point x="805.6" y="1362.8" type="line"/>
      <point x="595.6" y="1362.8" type="line"/>
      <point x="540.6" y="967.8" type="line"/>
      <point x="145.6" y="967.8" type="line"/>
      <point x="116.2" y="757.8" type="line"/>
      <point x="511.2" y="757.8" type="line"/>
    </contour>
    <contour>
      <point x="10.0" y="0.6" type="line"/>
      <point x="1010.0" y="0.6" type="line"/>
      <point x="1039.4" y="210.6" type="line"/>
      <point x="39.4" y="210.6" type="line"/>
    </contour>
  </outline>
</glyph>
<glyph name="twosuperior" format="2">
  <advance width="705.625"/>
  <unicode hex="00B2"/>
  <outline>
    <contour>
      <point x="141.0" y="818.0" type="line"/>
      <point x="599.2" y="818.0" type="line"/>
      <point x="617.4000000000001" y="950.0" type="line"/>
      <point x="400.79999999999995" y="945.8" type="line"/>
      <point x="512.6" y="1024.8"/>
      <point x="650.6" y="1130.6"/>
      <point x="664.8" y="1234.2" type="curve"/>
      <point x="683.6" y="1368.6"/>
      <point x="588.6" y="1468.0"/>
      <point x="454.59999999999997" y="1468.0" type="curve"/>
      <point x="331.0" y="1468.0"/>
      <point x="219.6" y="1380.3999999999999"/>
      <point x="201.8" y="1251.3999999999999" type="curve"/>
      <point x="331.8" y="1240.2" type="line"/>
      <point x="339.6" y="1296.3999999999999"/>
      <point x="397.79999999999995" y="1343.8"/>
      <point x="460.59999999999997" y="1343.8" type="curve"/>
      <point x="509.40000000000003" y="1343.8"/>
      <point x="543.4" y="1308.1999999999998"/>
      <point x="533.8" y="1257.0" type="curve"/>
      <point x="469.59999999999997" y="1122.8"/>
      <point x="272.0" y="1014.4"/>
      <point x="153.2" y="940.8" type="curve"/>
    </contour>
  </outline>
</glyph>
<glyph name="threesuperior" format="2">
  <advance width="570.0"/>
  <unicode hex="00B3"/>
  <outline>
    <contour>
      <point x="339.6" y="798.0" type="curve" smooth="yes"/>
      <point x="449.40000000000003" y="798.0"/>
      <point x="550.4" y="876.5999999999999"/>
      <point x="566.4" y="989.4" type="curve" smooth="yes"/>
      <point x="576.6" y="1056.8000000000002"/>
      <point x="557.4" y="1106.3999999999999"/>
      <point x="520.8000000000001" y="1142.2" type="curve"/>
      <point x="558.8" y="1175.8000000000002"/>
      <point x="582.0" y="1224.2"/>
      <point x="588.1999999999999" y="1268.4" type="curve" smooth="yes"/>
      <point x="604.6" y="1384.0"/>
      <point x="521.4" y="1467.4"/>
      <point x="404.8" y="1467.4" type="curve" smooth="yes"/>
      <point x="301.79999999999995" y="1467.4"/>
      <point x="208.6" y="1395.8"/>
      <point x="193.79999999999998" y="1285.6" type="curve"/>
      <point x="323.40000000000003" y="1274.4" type="line"/>
      <point x="328.8" y="1310.8000000000002"/>
      <point x="369.40000000000003" y="1342.6"/>
      <point x="411.4" y="1342.6" type="curve" smooth="yes"/>
      <point x="441.2" y="1342.6"/>
      <point x="463.79999999999995" y="1322.0"/>
      <point x="459.4" y="1291.6" type="curve" smooth="yes"/>
      <point x="452.2" y="1240.3999999999999"/>
      <point x="409.40000000000003" y="1193.6"/>
      <point x="328.0" y="1193.6" type="curve"/>
      <point x="326.4" y="1101.2" type="line"/>
      <point x="411.8" y="1101.2"/>
      <point x="444.6" y="1060.1999999999998"/>
      <point x="438.2" y="1012.6" type="curve" smooth="yes"/>
      <point x="430.4" y="960.8000000000001"/>
      <point x="383.8" y="922.8"/>
      <point x="333.6" y="922.8" type="curve" smooth="yes"/>
      <point x="292.59999999999997" y="922.8"/>
      <point x="267.0" y="949.0"/>
      <point x="273.4" y="995.4" type="curve"/>
      <point x="143.8" y="1006.6" type="line"/>
      <point x="126.8" y="888.4"/>
      <point x="216.4" y="798.0"/>
    </contour>
  </outline>
</glyph>
<glyph name="paragraph" format="2">
  <advance width="992.0"/>
  <unicode hex="00B6"/>
  <outline>
    <contour>
      <point x="307.0" y="-302.0" type="line"/>
      <point x="517.0" y="-302.0" type="line"/>
      <point x="756.0" y="1400.0" type="line"/>
      <point x="540.4" y="1400.0" type="line" smooth="yes"/>
      <point x="352.4" y="1400.0"/>
      <point x="185.4" y="1253.0"/>
      <point x="160.4" y="1071.0" type="curve" smooth="yes"/>
      <point x="132.4" y="875.6"/>
      <point x="268.6" y="718.0"/>
      <point x="456.6" y="718.0" type="curve"/>
    </contour>
    <contour>
      <point x="589.0" y="-302.0" type="line"/>
      <point x="799.0" y="-302.0" type="line"/>
      <point x="1038.0" y="1400.0" type="line"/>
      <point x="828.0" y="1400.0" type="line"/>
    </contour>
  </outline>
</glyph>
<glyph name="periodcentered" format="2">
  <advance width="381.25"/>
  <unicode hex="00B7"/>
  <outline>
    <contour>
      <point x="200.4" y="489.6" type="curve" smooth="yes"/>
      <point x="255.39999999999998" y="489.6"/>
      <point x="305.4" y="532.6"/>
      <point x="314.0" y="588.4" type="curve" smooth="yes"/>
      <point x="322.4" y="654.8"/>
      <point x="275.4" y="710.4"/>
      <point x="207.8" y="710.4" type="curve" smooth="yes"/>
      <point x="152.6" y="710.4"/>
      <point x="103.4" y="666.6"/>
      <point x="95.4" y="612.2" type="curve" smooth="yes"/>
      <point x="86.0" y="543.8000000000001"/>
      <point x="132.6" y="489.6"/>
    </contour>
  </outline>
</glyph>
<glyph name="onesuperior" format="2">
  <advance width="441.625"/>
  <unicode hex="00B9"/>
  <outline>
    <contour>
      <point x="210.4" y="818.0" type="line"/>
      <point x="342.4" y="818.0" type="line"/>
      <point x="430.4" y="1449.0" type="line"/>
      <point x="247.2" y="1449.0" type="line"/>
      <point x="210.4" y="1317.0" type="line"/>
      <point x="280.79999999999995" y="1317.0" type="line"/>
    </contour>
  </outline>
</glyph>
<glyph name="questiondown" format="2">
  <advance width="1059.0"/>
  <unicode hex="00BF"/>
  <outline>
    <contour>
      <point x="398.6" y="-426.6" type="curve" smooth="yes"/>
      <point x="633.4" y="-426.6"/>
      <point x="850.6" y="-236.6"/>
      <point x="884.0" y="3.4" type="curve"/>
      <point x="675.4" y="14.6" type="line"/>
      <point x="657.8" y="-110.0"/>
      <point x="535.4" y="-216.6"/>
      <point x="404.8" y="-216.6" type="curve" smooth="yes"/>
      <point x="285.59999999999997" y="-216.6"/>
      <point x="202.4" y="-121.8"/>
      <point x="219.6" y="-2.6" type="curve" smooth="yes"/>
      <point x="232.4" y="91.0"/>
      <point x="291.8" y="170.79999999999998"/>
      <point x="372.59999999999997" y="206.4" type="curve" smooth="yes"/>
      <point x="505.4" y="279.0"/>
      <point x="594.4" y="405.79999999999995"/>
      <point x="615.0" y="549.4" type="curve"/>
      <point x="406.4" y="560.6" type="line"/>
      <point x="397.0" y="492.8"/>
      <point x="347.4" y="430.40000000000003"/>
      <point x="280.2" y="402.40000000000003" type="curve" smooth="yes"/>
      <point x="135.6" y="325.40000000000003"/>
      <point x="35.0" y="179.79999999999998"/>
      <point x="12.8" y="20.6" type="curve" smooth="yes"/>
      <point x="-22.0" y="-225.4"/>
      <point x="151.20000000000002" y="-426.6"/>
    </contour>
    <contour>
      <point x="553.4" y="804.6" type="curve" smooth="yes"/>
      <point x="608.6" y="804.6"/>
      <point x="657.8" y="847.5999999999999"/>
      <point x="664.8" y="902.0" type="curve" smooth="yes"/>
      <point x="674.8" y="971.8"/>
      <point x="628.0" y="1026.0"/>
      <point x="560.8" y="1026.0" type="curve" smooth="yes"/>
      <point x="505.79999999999995" y="1026.0"/>
      <point x="456.6" y="983.0"/>
      <point x="448.6" y="925.8000000000001" type="curve" smooth="yes"/>
      <point x="438.6" y="859.4"/>
      <point x="485.79999999999995" y="804.6"/>
    </contour>
  </outline>
</glyph>
<glyph name="AE" format="2">
  <advance width="1658.4"/>
  <unicode hex="00C6"/>
  <outline>
    <contour>
      <point x="7.6" y="0.0" type="line"/>
      <point x="234.00000000000003" y="0.0" type="line"/>
      <point x="367.79999999999995" y="265.0" type="line"/>
      <point x="796.8" y="265.0" type="line"/>
      <point x="759.8" y="0.0" type="line"/>
      <point x="1489.0" y="0.0" type="line"/>
      <point x="1518.4" y="210.0" type="line"/>
      <point x="998.5999999999999" y="210.0" type="line"/>
      <point x="1052.8" y="595.0" type="line"/>
      <point x="1476.6" y="595.0" type="line"/>
      <point x="1505.4" y="805.0" type="line"/>
      <point x="1082.2" y="805.0" type="line"/>
      <point x="1136.3999999999999" y="1190.0" type="line"/>
      <point x="1655.6" y="1190.0" type="line"/>
      <point x="1685.0" y="1400.0" type="line"/>
      <point x="713.8000000000001" y="1400.0" type="line"/>
    </contour>
    <contour>
      <point x="474.2" y="475.0" type="line"/>
      <point x="835.8" y="1190.0" type="line"/>
      <point x="926.4" y="1190.0" type="line"/>
      <point x="826.1999999999999" y="475.0" type="line"/>
    </contour>
  </outline>
</glyph>
<glyph name="Eth" format="2">
  <advance width="1459.0"/>
  <unicode hex="00D0"/>
  <outline>
    <contour>
      <point x="166.4" y="0.0" type="line"/>
      <point x="634.0" y="0.0" type="line" smooth="yes"/>
      <point x="1020.0000000000001" y="0.0"/>
      <point x="1372.0" y="308.4"/>
      <point x="1425.6000000000001" y="688.4" type="curve" smooth="yes"/>
      <point x="1480.0" y="1080.4"/>
      <point x="1205.4" y="1400.0"/>
      <point x="819.4" y="1400.0" type="curve" smooth="yes"/>
      <point x="362.40000000000003" y="1400.0" type="line"/>
      <point x="285.8" y="855.0" type="line"/>
      <point x="150.0" y="855.0" type="line"/>
      <point x="121.2" y="645.0" type="line"/>
      <point x="256.40000000000003" y="645.0" type="line"/>
    </contour>
    <contour>
      <point x="405.2" y="210.0" type="line"/>
      <point x="466.40000000000003" y="645.0" type="line"/>
      <point x="764.4" y="645.0" type="line"/>
      <point x="793.8" y="855.0" type="line"/>
      <point x="495.8" y="855.0" type="line"/>
      <point x="543.0" y="1190.0" type="line"/>
      <point x="802.1999999999999" y="1190.0" type="line" smooth="yes"/>
      <point x="1068.3999999999999" y="1190.0"/>
      <point x="1256.2" y="978.4"/>
      <point x="1218.4" y="711.6" type="curve" smooth="yes"/>
      <point x="1180.4" y="438.8"/>
      <point x="925.0" y="210.0"/>
      <point x="652.1999999999999" y="210.0" type="curve" smooth="yes"/>
    </contour>
  </outline>
</glyph>
<glyph name="multiply" format="2">
  <advance width="1015.0"/>
  <unicode hex="00D7"/>
  <outline>
    <contour>
      <point x="186.4" y="172.4" type="line"/>
      <point x="503.40000000000003" y="451.6" type="line"/>
      <point x="744.0" y="172.4" type="line"/>
      <point x="909.8" y="320.8" type="line"/>
      <point x="668.6" y="600.0" type="line"/>
      <point x="988.8" y="879.8" type="line"/>
      <point x="856.0" y="1027.6" type="line"/>
      <point x="537.5999999999999" y="748.4" type="line"/>
      <point x="298.4" y="1027.6" type="line"/>
      <point x="133.8" y="879.8" type="line"/>
      <point x="372.4" y="600.0" type="line"/>
      <point x="54.8" y="320.8" type="line"/>
    </contour>
  </outline>
</glyph>
<glyph name="Oslash" format="2">
  <advance width="1540.0"/>
  <unicode hex="00D8"/>
  <outline>
    <contour>
      <point x="350.8" y="-99.8" type="line"/>
      <point x="449.0" y="35.0" type="line"/>
      <point x="522.8" y="-2.4000000000000004"/>
      <point x="608.0" y="-26.0"/>
      <point x="707.6" y="-26.0" type="curve" smooth="yes"/>
      <point x="1081.6" y="-26.0"/>
      <point x="1431.6" y="294.4"/>
      <point x="1486.6" y="688.4" type="curve" smooth="yes"/>
      <point x="1518.4" y="917.8"/>
      <point x="1445.6" y="1118.3999999999999"/>
      <point x="1312.8" y="1251.2" type="curve"/>
      <point x="1419.4" y="1394.8" type="line"/>
      <point x="1248.2" y="1499.8" type="line"/>
      <point x="1149.0" y="1366.3999999999999" type="line"/>
      <point x="1075.8" y="1403.0"/>
      <point x="990.0" y="1426.0"/>
      <point x="888.4" y="1426.0" type="curve" smooth="yes"/>
      <point x="514.4" y="1426.0"/>
      <point x="165.4" y="1105.6"/>
      <point x="109.4" y="711.6" type="curve" smooth="yes"/>
      <point x="77.6" y="483.40000000000003"/>
      <point x="152.4" y="282.2"/>
      <point x="284.4" y="150.2" type="curve"/>
      <point x="178.6" y="5.200000000000001" type="line"/>
    </contour>
    <contour>
      <point x="412.0" y="334.0" type="line"/>
      <point x="334.6" y="422.6"/>
      <point x="297.4" y="551.4"/>
      <point x="316.6" y="688.4" type="curve" smooth="yes"/>
      <point x="356.6" y="975.8"/>
      <point x="610.6" y="1216.0"/>
      <point x="882.8" y="1216.0" type="curve" smooth="yes"/>
      <point x="932.6" y="1216.0"/>
      <point x="984.8" y="1204.8"/>
      <point x="1029.6" y="1182.8" type="curve"/>
    </contour>
    <contour>
      <point x="713.8" y="184.0" type="curve" smooth="yes"/>
      <point x="665.4" y="184.0"/>
      <point x="613.2" y="194.8"/>
      <point x="568.8" y="218.2" type="curve"/>
      <point x="1187.0" y="1066.6" type="line"/>
      <point x="1263.2" y="977.4"/>
      <point x="1298.6" y="848.6"/>
      <point x="1279.4" y="711.6" type="curve" smooth="yes"/>
      <point x="1239.4" y="424.8"/>
      <point x="985.3999999999999" y="184.0"/>
    </contour>
  </outline>
</glyph>
<glyph name="Thorn" format="2">
  <advance width="1087.5"/>
  <unicode hex="00DE"/>
  <outline>
    <contour>
      <point x="50.0" y="0.0" type="line"/>
      <point x="260.0" y="0.0" type="line"/>
      <point x="299.8" y="282.8" type="line"/>
      <point x="578.4" y="282.8" type="line" smooth="yes"/>
      <point x="797.4" y="282.8"/>
      <point x="1002.4" y="460.79999999999995"/>
      <point x="1034.3999999999999" y="688.4" type="curve" smooth="yes"/>
      <point x="1067.8" y="924.5999999999999"/>
      <point x="910.6" y="1117.8"/>
      <point x="684.2" y="1117.8" type="curve" smooth="yes"/>
      <point x="416.8" y="1117.8" type="line"/>
      <point x="456.0" y="1400.0" type="line"/>
      <point x="246.0" y="1400.0" type="line"/>
    </contour>
    <contour>
      <point x="328.6" y="492.8" type="line"/>
      <point x="391.0" y="935.0" type="line"/>
      <point x="649.2" y="935.0" type="line" smooth="yes"/>
      <point x="767.6" y="935.0"/>
      <point x="846.0" y="844.4"/>
      <point x="829.4" y="725.8000000000001" type="curve" smooth="yes"/>
      <point x="811.0" y="594.6"/>
      <point x="693.6" y="492.8"/>
      <point x="575.2" y="492.8" type="curve" smooth="yes"/>
    </contour>
  </outline>
</glyph>
<glyph name="germandbls" format="2">
  <advance width="1120.0"/>
  <unicode hex="00DF"/>
  <outline>
    <contour>
      <point x="50.0" y="0.0" type="line"/>
      <point x="260.0" y="0.0" type="line"/>
      <point x="394.4" y="960.5999999999999" type="line" smooth="yes"/>
      <point x="414.2" y="1099.8000000000002"/>
      <point x="548.0" y="1216.6"/>
      <point x="692.8" y="1216.6" type="curve" smooth="yes"/>
      <point x="796.0" y="1216.6"/>
      <point x="867.8" y="1128.3999999999999"/>
      <point x="852.4" y="1019.4" type="curve" smooth="yes"/>
      <point x="835.8" y="898.4"/>
      <point x="727.0" y="807.4"/>
      <point x="616.8" y="798.8" type="curve" smooth="yes"/>
      <point x="595.6" y="795.6" type="line"/>
      <point x="572.2" y="622.0" type="line"/>
      <point x="664.0" y="619.8" type="line" smooth="yes"/>
      <point x="790.4" y="615.6"/>
      <point x="874.4" y="526.4"/>
      <point x="859.1999999999999" y="412.8" type="curve" smooth="yes"/>
      <point x="841.6" y="286.6"/>
      <point x="717.4" y="181.4"/>
      <point x="590.6" y="181.4" type="curve" smooth="yes"/>
      <point x="511.40000000000003" y="181.4" type="line"/>
      <point x="517.8" y="0.0" type="line"/>
      <point x="596.4" y="0.0" type="line" smooth="yes"/>
      <point x="815.8" y="0.0"/>
      <point x="1012.0" y="161.4"/>
      <point x="1042.8" y="375.4" type="curve" smooth="yes"/>
      <point x="1062.6" y="520.4"/>
      <point x="1029.4" y="692.2"/>
      <point x="871.4" y="721.6" type="curve"/>
      <point x="989.8" y="775.4"/>
      <point x="1045.2" y="895.0"/>
      <point x="1059.2" y="995.5999999999999" type="curve" smooth="yes"/>
      <point x="1091.3999999999999" y="1223.6"/>
      <point x="939.1999999999999" y="1399.4"/>
      <point x="717.4" y="1399.4" type="curve" smooth="yes"/>
      <point x="455.4" y="1399.4"/>
      <point x="216.4" y="1188.0"/>
      <point x="179.6" y="922.4" type="curve" smooth="yes"/>
    </contour>
  </outline>
</glyph>
<glyph name="ae" format="2">
  <advance width="1851.375"/>
  <unicode hex="00E6"/>
  <outline>
    <contour>
      <point x="420.6" y="-16.4" type="curve" smooth="yes"/>
      <point x="541.1999999999999" y="-16.4" type="line" smooth="yes"/>
      <point x="687.8" y="-16.4"/>
      <point x="798.4" y="50.0"/>
      <point x="881.8" y="170.4" type="curve"/>
      <point x="949.6" y="61.6"/>
      <point x="1073.2" y="-16.4"/>
      <point x="1231.0" y="-16.4" type="curve" smooth="yes"/>
      <point x="1424.3999999999999" y="-16.4"/>
      <point x="1610.8" y="102.0"/>
      <point x="1715.8" y="280.0" type="curve"/>
      <point x="1503.4" y="340.6" type="line"/>
      <point x="1439.2" y="252.0"/>
      <point x="1342.6" y="193.6"/>
      <point x="1236.6" y="193.6" type="curve" smooth="yes"/>
      <point x="1097.6" y="195.0"/>
      <point x="1010.5999999999999" y="292.6"/>
      <point x="1005.2" y="431.79999999999995" type="curve"/>
      <point x="1776.3999999999999" y="431.79999999999995" type="line"/>
      <point x="1857.4" y="756.5999999999999"/>
      <point x="1667.8" y="1037.6"/>
      <point x="1355.8" y="1037.6" type="curve" smooth="yes"/>
      <point x="1206.6" y="1037.6"/>
      <point x="1061.2" y="964.0"/>
      <point x="956.4" y="840.4" type="curve"/>
      <point x="911.0" y="957.0"/>
      <point x="807.6" y="1037.6"/>
      <point x="607.8000000000001" y="1037.6" type="curve" smooth="yes"/>
      <point x="441.8" y="1037.6"/>
      <point x="291.0" y="1012.8000000000001"/>
      <point x="181.79999999999998" y="861.8000000000001" type="curve"/>
      <point x="353.0" y="745.5999999999999" type="line"/>
      <point x="395.20000000000005" y="804.4"/>
      <point x="471.40000000000003" y="845.4"/>
      <point x="604.4" y="845.4" type="curve" smooth="yes"/>
      <point x="778.8000000000001" y="845.4"/>
      <point x="813.4" y="746.6"/>
      <point x="809.0" y="603.0" type="curve"/>
      <point x="391.6" y="597.4" type="line" smooth="yes"/>
      <point x="223.8" y="597.4"/>
      <point x="81.6" y="513.0"/>
      <point x="54.60000000000001" y="346.0" type="curve" smooth="yes"/>
      <point x="23.399999999999995" y="114.0"/>
      <point x="175.60000000000002" y="-16.4"/>
    </contour>
    <contour>
      <point x="473.0" y="118.6" type="curve" smooth="yes"/>
      <point x="331.20000000000005" y="118.6"/>
      <point x="235.4" y="170.0"/>
      <point x="252.2" y="301.4" type="curve" smooth="yes"/>
      <point x="270.0" y="411.0"/>
      <point x="367.4" y="437.4"/>
      <point x="488.4" y="437.4" type="curve" smooth="yes"/>
      <point x="778.8" y="437.4" type="line"/>
      <point x="768.8" y="364.6" type="line" smooth="yes"/>
      <point x="757.2" y="283.40000000000003"/>
      <point x="675.8" y="118.6"/>
    </contour>
    <contour>
      <point x="1024.2" y="591.8" type="line"/>
      <point x="1067.8" y="736.0"/>
      <point x="1204.1999999999998" y="852.6"/>
      <point x="1352.8" y="852.6" type="curve" smooth="yes"/>
      <point x="1489.6" y="852.6"/>
      <point x="1587.6" y="744.8000000000001"/>
      <point x="1588.6000000000001" y="603.0" type="curve"/>
    </contour>
  </outline>
</glyph>
<glyph name="igrave" format="2">
  <advance width="479.6"/>
  <unicode hex="00EC"/>
  <outline>
    <contour>
      <point x="219.0" y="1000.0" type="line"/>
      <point x="79.0" y="0.0" type="line"/>
      <point x="289.0" y="0.0" type="line"/>
      <point x="429.0" y="1000.0" type="line"/>
    </contour>
    <component base="grave" xOffset="-302.4"/>
  </outline>
</glyph>
<glyph name="iacute" format="2">
  <advance width="484.4"/>
  <unicode hex="00ED"/>
  <outline>
    <contour>
      <point x="190.0" y="1000.0" type="line"/>
      <point x="50.0" y="0.0" type="line"/>
      <point x="260.0" y="0.0" type="line"/>
      <point x="400.0" y="1000.0" type="line"/>
    </contour>
    <component base="acutecomb" xOffset="-308.6"/>
  </outline>
</glyph>
<glyph name="icircumflex" format="2">
  <advance width="445.4"/>
  <unicode hex="00EE"/>
  <outline>
    <contour>
      <point x="188.8" y="1000.0" type="line"/>
      <point x="48.800000000000004" y="0.0" type="line"/>
      <point x="258.79999999999995" y="0.0" type="line"/>
      <point x="398.79999999999995" y="1000.0" type="line"/>
    </contour>
    <component base="circumflexcomb" xOffset="-377.6"/>
  </outline>
</glyph>
<glyph name="eth" format="2">
  <advance width="1125.25"/>
  <unicode hex="00F0"/>
  <outline>
    <contour>
      <point x="515.4" y="1037.8" type="line"/>
      <point x="1008.8" y="1468.6" type="line"/>
      <point x="915.8" y="1573.4" type="line"/>
      <point x="420.4" y="1142.6" type="line"/>
    </contour>
    <component base="partialdiff"/>
  </outline>
</glyph>
<glyph name="divide" format="2">
  <advance width="1160.0"/>
  <unicode hex="00F7"/>
  <outline>
    <contour>
      <point x="79.6" y="495.0" type="line"/>
      <point x="1079.6" y="495.0" type="line"/>
      <point x="1108.4" y="705.0" type="line"/>
      <point x="108.4" y="705.0" type="line"/>
    </contour>
    <contour>
      <point x="650.8" y="1085.4" type="curve"/>
      <point x="585.5999999999999" y="1085.4"/>
      <point x="531.0" y="1032.6"/>
      <point x="522.8" y="972.8000000000001" type="curve"/>
      <point x="512.1999999999999" y="898.6"/>
      <point x="562.4" y="837.0"/>
      <point x="638.8" y="837.0" type="curve"/>
      <point x="700.2" y="837.0"/>
      <point x="757.4" y="887.4"/>
      <point x="765.6" y="949.0" type="curve"/>
      <point x="776.2" y="1021.4"/>
      <point x="723.4" y="1085.4"/>
    </contour>
    <contour>
      <point x="549.2" y="362.4" type="curve"/>
      <point x="484.0" y="362.4"/>
      <point x="429.4" y="310.8"/>
      <point x="421.2" y="249.79999999999998" type="curve"/>
      <point x="410.59999999999997" y="175.6"/>
      <point x="461.40000000000003" y="114.6"/>
      <point x="537.8" y="114.6" type="curve"/>
      <point x="598.6" y="114.6"/>
      <point x="657.5999999999999" y="164.4"/>
      <point x="665.8" y="226.0" type="curve"/>
      <point x="676.4" y="299.0"/>
      <point x="621.8" y="362.4"/>
    </contour>
  </outline>
</glyph>
<glyph name="oslash" format="2">
  <advance width="1120.0"/>
  <unicode hex="00F8"/>
  <outline>
    <contour>
      <point x="254.8" y="-68.6" type="line"/>
      <point x="316.59999999999997" y="14.799999999999999" type="line"/>
      <point x="367.0" y="-9.6"/>
      <point x="426.8" y="-26.0"/>
      <point x="497.6" y="-26.0" type="curve" smooth="yes"/>
      <point x="767.6" y="-26.0"/>
      <point x="1018.6" y="204.4"/>
      <point x="1058.6" y="488.4" type="curve" smooth="yes"/>
      <point x="1081.4" y="653.5999999999999"/>
      <point x="1030.6" y="797.1999999999999"/>
      <point x="939.5999999999999" y="893.1999999999999" type="curve"/>
      <point x="1008.5999999999999" y="985.4" type="line"/>
      <point x="866.8" y="1071.8" type="line"/>
      <point x="802.5999999999999" y="988.4" type="line"/>
      <point x="754.1999999999999" y="1012.8000000000001"/>
      <point x="693.6" y="1028.0"/>
      <point x="622.4" y="1028.0" type="curve" smooth="yes"/>
      <point x="352.4" y="1028.0"/>
      <point x="101.4" y="797.6"/>
      <point x="61.4" y="511.6" type="curve" smooth="yes"/>
      <point x="38.6" y="349.0"/>
      <point x="90.0" y="205.4"/>
      <point x="181.6" y="109.39999999999999" type="curve"/>
      <point x="112.60000000000001" y="17.8" type="line"/>
    </contour>
    <contour>
      <point x="301.0" y="277.79999999999995" type="line"/>
      <point x="260.6" y="329.6"/>
      <point x="241.2" y="400.6"/>
      <point x="251.8" y="477.0" type="curve" smooth="yes"/>
      <point x="283.4" y="706.8"/>
      <point x="512.8" y="881.4"/>
      <point x="697.5999999999999" y="822.4" type="curve"/>
    </contour>
    <contour>
      <point x="423.40000000000003" y="180.20000000000002" type="curve"/>
      <point x="820.2" y="724.8" type="line"/>
      <point x="859.2" y="672.4"/>
      <point x="878.8" y="599.4"/>
      <point x="868.2" y="523.0" type="curve" smooth="yes"/>
      <point x="836.6" y="296.8"/>
      <point x="614.8000000000001" y="119.4"/>
    </contour>
  </outline>
</glyph>
<glyph name="thorn" format="2">
  <advance width="1246.5"/>
  <unicode hex="00FE"/>
  <outline>
    <contour>
      <point x="-21.0" y="-500.0" type="line"/>
      <point x="189.0" y="-500.0" type="line"/>
      <point x="284.4" y="149.0" type="line"/>
      <point x="335.8" y="46.6"/>
      <point x="431.4" y="-28.0"/>
      <point x="578.4" y="-28.0" type="curve" smooth="yes"/>
      <point x="863.2" y="-28.0"/>
      <point x="1124.8" y="202.4"/>
      <point x="1165.3999999999999" y="488.4" type="curve" smooth="yes"/>
      <point x="1206.8" y="784.4"/>
      <point x="1000.0" y="1026.0"/>
      <point x="702.5999999999999" y="1026.0" type="curve" smooth="yes"/>
      <point x="568.8" y="1026.0"/>
      <point x="456.40000000000003" y="960.4"/>
      <point x="376.6" y="858.0" type="curve"/>
      <point x="456.4" y="1400.0" type="line"/>
      <point x="246.0" y="1400.0" type="line"/>
    </contour>
    <contour>
      <point x="580.8" y="175.6" type="curve" smooth="yes"/>
      <point x="413.4" y="175.6"/>
      <point x="321.6" y="315.6"/>
      <point x="346.8" y="488.4" type="curve" smooth="yes"/>
      <point x="371.8" y="673.0"/>
      <point x="517.8" y="823.8"/>
      <point x="695.2" y="823.8" type="curve" smooth="yes"/>
      <point x="863.4" y="823.8"/>
      <point x="978.2" y="683.0"/>
      <point x="954.0" y="511.6" type="curve" smooth="yes"/>
      <point x="928.4" y="324.40000000000003"/>
      <point x="757.8" y="175.6"/>
    </contour>
  </outline>
</glyph>
<glyph name="OE" format="2">
  <advance width="2137.25"/>
  <unicode hex="0152"/>
  <outline>
    <contour>
      <point x="707.6" y="-26.0" type="curve" smooth="yes"/>
      <point x="898.0" y="-26.0"/>
      <point x="1085.8" y="66.8"/>
      <point x="1216.6" y="212.4" type="curve"/>
      <point x="1181.8" y="0.0" type="line"/>
      <point x="1967.4" y="0.0" type="line"/>
      <point x="1996.8000000000002" y="210.0" type="line"/>
      <point x="1421.6" y="210.0" type="line"/>
      <point x="1475.8" y="595.0" type="line"/>
      <point x="1954.4" y="595.0" type="line"/>
      <point x="1983.8000000000002" y="805.0" type="line"/>
      <point x="1505.2" y="805.0" type="line"/>
      <point x="1559.3999999999999" y="1190.0" type="line"/>
      <point x="2134.0" y="1190.0" type="line"/>
      <point x="2163.4" y="1400.0" type="line"/>
      <point x="1378.8" y="1400.0" type="line"/>
      <point x="1343.6" y="1179.3999999999999" type="line"/>
      <point x="1253.8" y="1325.6000000000001"/>
      <point x="1090.8000000000002" y="1426.0"/>
      <point x="888.4" y="1426.0" type="curve" smooth="yes"/>
      <point x="514.4" y="1426.0"/>
      <point x="165.4" y="1105.6"/>
      <point x="109.4" y="711.6" type="curve" smooth="yes"/>
      <point x="52.4" y="305.6"/>
      <point x="321.6" y="-26.0"/>
    </contour>
    <contour>
      <point x="713.8" y="184.0" type="curve" smooth="yes"/>
      <point x="455.40000000000003" y="184.0"/>
      <point x="277.4" y="410.6"/>
      <point x="316.6" y="688.4" type="curve" smooth="yes"/>
      <point x="356.6" y="975.8"/>
      <point x="610.6" y="1216.0"/>
      <point x="882.8" y="1216.0" type="curve" smooth="yes"/>
      <point x="1140.6000000000001" y="1216.0"/>
      <point x="1318.6" y="988.8000000000001"/>
      <point x="1279.4" y="711.6" type="curve" smooth="yes"/>
      <point x="1239.4" y="424.8"/>
      <point x="985.3999999999999" y="184.0"/>
    </contour>
  </outline>
</glyph>
<glyph name="oe" format="2">
  <advance width="1909.25"/>
  <unicode hex="0153"/>
  <outline>
    <contour>
      <point x="497.6" y="-26.0" type="curve" smooth="yes"/>
      <point x="657.6" y="-26.0"/>
      <point x="814.8" y="59.60000000000001"/>
      <point x="920.6" y="197.8" type="curve"/>
      <point x="980.5999999999999" y="68.60000000000001"/>
      <point x="1115.6" y="-26.0"/>
      <point x="1287.6" y="-26.0" type="curve" smooth="yes"/>
      <point x="1481.6" y="-26.0"/>
      <point x="1667.4" y="92.4"/>
      <point x="1772.4" y="270.4" type="curve"/>
      <point x="1560.6000000000001" y="331.0" type="line"/>
      <point x="1495.8" y="242.4"/>
      <point x="1399.8" y="184.0"/>
      <point x="1293.8" y="184.0" type="curve" smooth="yes"/>
      <point x="1154.8" y="185.4"/>
      <point x="1067.8" y="283.0"/>
      <point x="1061.8" y="421.6" type="curve"/>
      <point x="1833.6" y="421.6" type="line"/>
      <point x="1914.0" y="747.0"/>
      <point x="1724.4" y="1028.0"/>
      <point x="1412.4" y="1028.0" type="curve" smooth="yes"/>
      <point x="1252.4" y="1028.0"/>
      <point x="1095.8" y="942.4"/>
      <point x="989.4" y="803.6" type="curve"/>
      <point x="929.4" y="933.4"/>
      <point x="794.4" y="1028.0"/>
      <point x="622.4" y="1028.0" type="curve" smooth="yes"/>
      <point x="352.4" y="1028.0"/>
      <point x="101.4" y="797.6"/>
      <point x="61.4" y="511.6" type="curve" smooth="yes"/>
      <point x="19.4" y="215.6"/>
      <point x="215.6" y="-26.0"/>
    </contour>
    <contour>
      <point x="503.8" y="184.0" type="curve" smooth="yes"/>
      <point x="352.6" y="184.0"/>
      <point x="244.4" y="316.6"/>
      <point x="268.6" y="488.4" type="curve" smooth="yes"/>
      <point x="293.2" y="665.0"/>
      <point x="446.59999999999997" y="818.0"/>
      <point x="616.8" y="818.0" type="curve" smooth="yes"/>
      <point x="770.4" y="818.0"/>
      <point x="875.6" y="679.0"/>
      <point x="851.4" y="511.6" type="curve" smooth="yes"/>
      <point x="826.8" y="335.6"/>
      <point x="674.1999999999999" y="184.0"/>
    </contour>
    <contour>
      <point x="1080.8" y="581.5999999999999" type="line"/>
      <point x="1124.4" y="726.4"/>
      <point x="1260.8" y="843.0"/>
      <point x="1409.4" y="843.0" type="curve" smooth="yes"/>
      <point x="1546.2" y="843.0"/>
      <point x="1644.8" y="734.6"/>
      <point x="1645.8" y="593.4" type="curve"/>
    </contour>
  </outline>
</glyph>
<glyph name="caron" format="2">
  <advance width="644.5"/>
  <unicode hex="02C7"/>
  <outline>
    <contour>
      <point x="316.0" y="1166.0" type="line"/>
      <point x="519.5999999999999" y="1166.0" type="line"/>
      <point x="652.5999999999999" y="1400.0" type="line"/>
      <point x="510.8" y="1400.0" type="line"/>
      <point x="424.4" y="1248.4" type="line"/>
      <point x="383.8" y="1400.0" type="line"/>
      <point x="248.4" y="1400.0" type="line"/>
    </contour>
  </outline>
</glyph>
<glyph name="breve" format="2">
  <advance width="1144.0"/>
  <unicode hex="02D8"/>
  <outline>
    <contour>
      <point x="672.2" y="1128.0" type="curve" smooth="yes"/>
      <point x="847.6" y="1128.0"/>
      <point x="1012.0" y="1268.6"/>
      <point x="1038.6" y="1454.4" type="curve"/>
      <point x="904.4" y="1465.6" type="line"/>
      <point x="889.4" y="1355.6"/>
      <point x="781.4" y="1263.0"/>
      <point x="667.8" y="1263.0" type="curve" smooth="yes"/>
      <point x="567.8" y="1263.0"/>
      <point x="493.4" y="1343.6"/>
      <point x="509.6" y="1454.4" type="curve"/>
      <point x="375.4" y="1465.6" type="line"/>
      <point x="350.4" y="1283.6"/>
      <point x="484.6" y="1128.0"/>
    </contour>
  </outline>
</glyph>
<glyph name="ogonek" format="2">
  <advance width="1149.0"/>
  <unicode hex="02DB"/>
  <outline>
    <contour>
      <point x="509.79999999999995" y="-410.6" type="curve" smooth="yes"/>
      <point x="592.8" y="-410.6" type="line"/>
      <point x="615.4" y="-252.0" type="line"/>
      <point x="518.0" y="-252.0" type="line" smooth="yes"/>
      <point x="409.79999999999995" y="-252.0"/>
      <point x="328.0" y="-157.4"/>
      <point x="343.20000000000005" y="-50.0" type="curve" smooth="yes"/>
      <point x="358.6" y="62.0" type="line"/>
      <point x="200.0" y="62.0" type="line"/>
      <point x="186.4" y="-36.0" type="line" smooth="yes"/>
      <point x="157.6" y="-239.60000000000002"/>
      <point x="304.79999999999995" y="-410.6"/>
    </contour>
  </outline>
</glyph>
<glyph name="gravecomb" format="2">
  <unicode hex="0300"/>
  <outline>
    <contour>
      <point x="452.4" y="1426.0" type="line"/>
      <point x="594.5999999999999" y="1138.0" type="line"/>
      <point x="698.6" y="1138.0" type="line"/>
      <point x="658.6" y="1426.0" type="line"/>
    </contour>
  </outline>
</glyph>
<glyph name="acutecomb" format="2">
  <unicode hex="0301"/>
  <outline>
    <contour>
      <point x="568.6" y="1138.0" type="line"/>
      <point x="679.5999999999999" y="1138.0" type="line"/>
      <point x="902.4" y="1426.0" type="line"/>
      <point x="688.6" y="1426.0" type="line"/>
    </contour>
  </outline>
</glyph>
<glyph name="circumflexcomb" format="2">
  <unicode hex="0302"/>
  <outline>
    <contour>
      <point x="625.8000000000001" y="1400.0" type="line"/>
      <point x="491.6" y="1166.0" type="line"/>
      <point x="634.0" y="1166.0" type="line"/>
      <point x="721.8" y="1317.6" type="line"/>
      <point x="761.0" y="1166.0" type="line"/>
      <point x="896.4" y="1166.0" type="line"/>
      <point x="829.4" y="1400.0" type="line"/>
    </contour>
  </outline>
</glyph>
<glyph name="tildecomb" format="2">
  <unicode hex="0303"/>
  <outline>
    <contour>
      <point x="905.4" y="1239.0" type="curve" smooth="yes"/>
      <point x="1032.8" y="1239.0"/>
      <point x="1120.6" y="1352.8000000000002"/>
      <point x="1092.8" y="1502.4" type="curve"/>
      <point x="963.0" y="1472.0" type="line"/>
      <point x="971.4" y="1436.3999999999999"/>
      <point x="956.0" y="1376.8"/>
      <point x="908.8" y="1376.8" type="curve" smooth="yes"/>
      <point x="864.8" y="1376.8"/>
      <point x="713.4" y="1520.0"/>
      <point x="609.4" y="1520.0" type="curve" smooth="yes"/>
      <point x="476.79999999999995" y="1520.0"/>
      <point x="395.8" y="1403.3999999999999"/>
      <point x="425.0" y="1261.3999999999999" type="curve"/>
      <point x="551.6" y="1284.8000000000002" type="line"/>
      <point x="545.2" y="1330.8000000000002"/>
      <point x="564.8" y="1361.4"/>
      <point x="591.0" y="1371.4" type="curve" smooth="yes"/>
      <point x="637.4" y="1405.0"/>
      <point x="799.0" y="1239.0"/>
    </contour>
  </outline>
</glyph>
<glyph name="dotaccentcomb" format="2">
  <unicode hex="0307"/>
  <outline>
    <contour>
      <point x="617.0" y="1163.6" type="curve" smooth="yes"/>
      <point x="672.6" y="1163.6"/>
      <point x="721.8" y="1204.6"/>
      <point x="729.4" y="1262.4" type="curve" smooth="yes"/>
      <point x="738.8" y="1330.8000000000002"/>
      <point x="691.6" y="1384.4"/>
      <point x="624.8" y="1384.4" type="curve" smooth="yes"/>
      <point x="566.6" y="1384.4"/>
      <point x="518.4" y="1342.0"/>
      <point x="510.4" y="1285.6" type="curve" smooth="yes"/>
      <point x="500.4" y="1216.3999999999999"/>
      <point x="547.6" y="1163.6"/>
    </contour>
  </outline>
</glyph>
<glyph name="dieresiscomb" format="2">
  <unicode hex="0308"/>
  <outline>
    <contour>
      <point x="617.6" y="1163.6" type="curve" smooth="yes"/>
      <point x="673.8" y="1163.6"/>
      <point x="723.6" y="1204.6"/>
      <point x="730.6" y="1262.4" type="curve" smooth="yes"/>
      <point x="740.6" y="1329.6"/>
      <point x="692.8" y="1385.0"/>
      <point x="625.4" y="1385.0" type="curve" smooth="yes"/>
      <point x="567.8" y="1385.0"/>
      <point x="518.4" y="1341.3999999999999"/>
      <point x="510.4" y="1285.6" type="curve" smooth="yes"/>
      <point x="500.4" y="1216.3999999999999"/>
      <point x="548.8" y="1163.6"/>
    </contour>
    <contour>
      <point x="987.4" y="1163.6" type="curve" smooth="yes"/>
      <point x="1043.0" y="1163.6"/>
      <point x="1092.8" y="1204.6"/>
      <point x="1100.3999999999999" y="1262.4" type="curve" smooth="yes"/>
      <point x="1109.8" y="1329.6"/>
      <point x="1062.6" y="1385.0"/>
      <point x="995.1999999999999" y="1385.0" type="curve" smooth="yes"/>
      <point x="937.6" y="1385.0"/>
      <point x="887.5999999999999" y="1341.3999999999999"/>
      <point x="879.5999999999999" y="1285.6" type="curve" smooth="yes"/>
      <point x="870.1999999999999" y="1216.3999999999999"/>
      <point x="918.0" y="1163.6"/>
    </contour>
  </outline>
</glyph>
<glyph name="ringcomb" format="2">
  <unicode hex="030A"/>
  <outline>
    <contour>
      <point x="673.8000000000001" y="1104.8" type="curve" smooth="yes"/>
      <point x="764.6" y="1104.8"/>
      <point x="848.5999999999999" y="1178.4"/>
      <point x="861.8" y="1271.8000000000002" type="curve" smooth="yes"/>
      <point x="876.0" y="1372.6"/>
      <point x="803.4" y="1458.6"/>
      <point x="699.4" y="1458.6" type="curve" smooth="yes"/>
      <point x="608.5999999999999" y="1458.6"/>
      <point x="524.6" y="1384.3999999999999"/>
      <point x="511.8" y="1295.0" type="curve" smooth="yes"/>
      <point x="497.2" y="1191.6"/>
      <point x="570.4" y="1104.8"/>
    </contour>
    <contour>
      <point x="662.0" y="1191.4" type="curve" smooth="yes"/>
      <point x="618.0" y="1191.4"/>
      <point x="588.6" y="1225.8000000000002"/>
      <point x="595.2" y="1271.8000000000002" type="curve" smooth="yes"/>
      <point x="602.6" y="1325.8000000000002"/>
      <point x="655.2" y="1371.4"/>
      <point x="710.8000000000001" y="1371.4" type="curve" smooth="yes"/>
      <point x="755.2" y="1371.4"/>
      <point x="784.6" y="1337.0"/>
      <point x="778.4" y="1295.0" type="curve" smooth="yes"/>
      <point x="770.6" y="1237.0"/>
      <point x="718.0" y="1191.4"/>
    </contour>
  </outline>
</glyph>
<glyph name="cedillacomb" format="2">
  <unicode hex="0327"/>
  <outline>
    <contour>
      <point x="287.0" y="-306.0" type="line"/>
      <point x="381.20000000000005" y="-306.0" type="line" smooth="yes"/>
      <point x="586.2" y="-306.0"/>
      <point x="768.4" y="-146.79999999999998"/>
      <point x="797.2" y="57.4" type="curve" smooth="yes"/>
      <point x="809.8" y="151.6" type="line"/>
      <point x="651.1999999999999" y="151.6" type="line"/>
      <point x="639.0" y="66.39999999999999" type="line" smooth="yes"/>
      <point x="623.8" y="-40.99999999999999"/>
      <point x="502.6" y="-147.4"/>
      <point x="394.4" y="-147.4" type="curve" smooth="yes"/>
      <point x="308.6" y="-147.4" type="line"/>
    </contour>
  </outline>
</glyph>
<glyph name="mu" format="2">
  <advance width="1109.25"/>
  <unicode hex="03BC"/>
  <outline>
    <contour>
      <point x="-51.0" y="-432.0" type="line"/>
      <point x="159.0" y="-432.0" type="line"/>
      <point x="236.4" y="80.4" type="line"/>
      <point x="285.79999999999995" y="17.4"/>
      <point x="362.8" y="-27.4"/>
      <point x="465.4" y="-27.4" type="curve" smooth="yes"/>
      <point x="582.4" y="-27.4"/>
      <point x="687.8000000000001" y="32.199999999999996"/>
      <point x="770.6" y="130.4" type="curve"/>
      <point x="748.4" y="0.0" type="line"/>
      <point x="959.4000000000001" y="0.0" type="line"/>
      <point x="1099.4" y="1000.0" type="line"/>
      <point x="889.4" y="1000.0" type="line"/>
      <point x="817.4" y="487.6" type="line" smooth="yes"/>
      <point x="794.0" y="319.0"/>
      <point x="664.4" y="176.8"/>
      <point x="504.2" y="176.8" type="curve" smooth="yes"/>
      <point x="353.2" y="176.8"/>
      <point x="262.8" y="307.79999999999995"/>
      <point x="286.6" y="476.4" type="curve" smooth="yes"/>
      <point x="360.0" y="1000.0" type="line"/>
      <point x="150.0" y="1000.0" type="line"/>
    </contour>
  </outline>
</glyph>
<glyph name="Germandbls" format="2">
  <advance width="1180.0"/>
  <unicode hex="1E9E"/>
  <outline>
    <contour>
      <point x="50.0" y="0.0" type="line"/>
      <point x="260.0" y="0.0" type="line"/>
      <point x="394.4" y="960.5999999999999" type="line" smooth="yes"/>
      <point x="414.2" y="1099.8000000000002"/>
      <point x="548.8" y="1216.6"/>
      <point x="679.4" y="1216.6" type="curve" smooth="yes"/>
      <point x="783.8" y="1216.6"/>
      <point x="874.0" y="1204.0"/>
      <point x="862.6" y="1115.0" type="curve" smooth="yes"/>
      <point x="853.0" y="1042.6"/>
      <point x="605.6" y="824.6"/>
      <point x="592.4" y="706.0" type="curve" smooth="yes"/>
      <point x="581.4" y="619.8" type="line"/>
      <point x="663.4" y="619.8" type="line" smooth="yes"/>
      <point x="790.8000000000001" y="619.8"/>
      <point x="940.4" y="566.4"/>
      <point x="919.1999999999999" y="413.40000000000003" type="curve" smooth="yes"/>
      <point x="895.6" y="246.6"/>
      <point x="717.4" y="181.4"/>
      <point x="590.6" y="181.4" type="curve" smooth="yes"/>
      <point x="511.40000000000003" y="181.4" type="line"/>
      <point x="531.0" y="0.0" type="line"/>
      <point x="596.4" y="0.0" type="line" smooth="yes"/>
      <point x="815.8" y="0.0"/>
      <point x="1068.8" y="133.60000000000002"/>
      <point x="1104.6" y="387.6" type="curve" smooth="yes"/>
      <point x="1131.6" y="581.0"/>
      <point x="962.6" y="760.0"/>
      <point x="775.6" y="725.4" type="curve"/>
      <point x="973.6" y="934.1999999999999"/>
      <point x="1060.6" y="1003.0"/>
      <point x="1072.0" y="1087.6" type="curve" smooth="yes"/>
      <point x="1097.8" y="1269.4"/>
      <point x="925.6" y="1399.4"/>
      <point x="718.5999999999999" y="1399.4" type="curve" smooth="yes"/>
      <point x="457.4" y="1399.4"/>
      <point x="216.4" y="1188.0"/>
      <point x="179.0" y="921.8000000000001" type="curve" smooth="yes"/>
    </contour>
  </outline>
</glyph>
<glyph name="endash" format="2">
  <advance width="1240.0"/>
  <unicode hex="2013"/>
  <outline>
    <contour>
      <point x="148.4" y="705.0" type="line"/>
      <point x="119.6" y="495.0" type="line"/>
      <point x="1119.6" y="495.0" type="line"/>
      <point x="1148.4" y="705.0" type="line"/>
    </contour>
  </outline>
</glyph>
<glyph name="emdash" format="2">
  <advance width="2040.0"/>
  <unicode hex="2014"/>
  <outline>
    <contour>
      <point x="148.4" y="705.0" type="line"/>
      <point x="119.6" y="495.0" type="line"/>
      <point x="1919.6" y="495.0" type="line"/>
      <point x="1948.4" y="705.0" type="line"/>
    </contour>
  </outline>
</glyph>
<glyph name="quoteleft" format="2">
  <advance width="372.0"/>
  <unicode hex="2018"/>
  <unicode hex="02BB"/>
  <outline>
    <contour>
      <point x="111.6" y="878.0" type="line"/>
      <point x="323.4" y="878.0" type="line"/>
      <point x="459.0" y="1400.0" type="line"/>
      <point x="316.6" y="1400.0" type="line"/>
    </contour>
  </outline>
</glyph>
<glyph name="quoteright" format="2">
  <advance width="372.0"/>
  <unicode hex="2019"/>
  <unicode hex="2032"/>
  <outline>
    <contour>
      <point x="92.6" y="878.0" type="line"/>
      <point x="234.4" y="878.0" type="line"/>
      <point x="440.4" y="1400.0" type="line"/>
      <point x="228.0" y="1400.0" type="line"/>
    </contour>
  </outline>
</glyph>
<glyph name="dagger" format="2">
  <advance width="836.0"/>
  <unicode hex="2020"/>
  <outline>
    <contour>
      <point x="157.8" y="1052.8" type="line"/>
      <point x="390.8" y="1052.8" type="line"/>
      <point x="323.4" y="575.0" type="line"/>
      <point x="533.4" y="575.0" type="line"/>
      <point x="600.8" y="1052.8" type="line"/>
      <point x="833.8" y="1052.8" type="line"/>
      <point x="862.6" y="1262.8" type="line"/>
      <point x="629.6" y="1262.8" type="line"/>
      <point x="664.0" y="1500.0" type="line"/>
      <point x="454.0" y="1500.0" type="line"/>
      <point x="419.6" y="1262.8" type="line"/>
      <point x="186.6" y="1262.8" type="line"/>
    </contour>
  </outline>
</glyph>
<glyph name="daggerdbl" format="2">
  <advance width="836.0"/>
  <unicode hex="2021"/>
  <outline>
    <contour>
      <point x="114.6" y="747.0" type="line"/>
      <point x="347.6" y="747.0" type="line"/>
      <point x="321.0" y="560.0" type="line"/>
      <point x="531.0" y="560.0" type="line"/>
      <point x="557.6" y="747.0" type="line"/>
      <point x="790.6" y="747.0" type="line"/>
      <point x="819.4" y="955.0" type="line"/>
      <point x="586.4" y="955.0" type="line"/>
      <point x="609.4" y="1115.0" type="line"/>
      <point x="842.4" y="1115.0" type="line"/>
      <point x="871.8" y="1325.0" type="line"/>
      <point x="638.8" y="1325.0" type="line"/>
      <point x="664.0" y="1500.0" type="line"/>
      <point x="454.0" y="1500.0" type="line"/>
      <point x="428.8" y="1325.0" type="line"/>
      <point x="195.8" y="1325.0" type="line"/>
      <point x="166.4" y="1115.0" type="line"/>
      <point x="399.4" y="1115.0" type="line"/>
      <point x="376.4" y="955.0" type="line"/>
      <point x="143.4" y="955.0" type="line"/>
    </contour>
  </outline>
</glyph>
<glyph name="bullet" format="2">
  <advance width="455.0"/>
  <unicode hex="2022"/>
  <outline>
    <contour>
      <point x="232.0" y="452.8" type="curve" smooth="yes"/>
      <point x="307.8" y="452.8"/>
      <point x="376.8" y="511.79999999999995"/>
      <point x="387.6" y="589.0" type="curve" smooth="yes"/>
      <point x="399.4" y="675.5999999999999"/>
      <point x="338.2" y="747.8"/>
      <point x="249.79999999999998" y="747.8" type="curve" smooth="yes"/>
      <point x="173.79999999999998" y="747.8"/>
      <point x="106.8" y="687.4"/>
      <point x="95.4" y="612.8000000000001" type="curve" smooth="yes"/>
      <point x="83.2" y="523.0"/>
      <point x="143.4" y="452.8"/>
    </contour>
  </outline>
</glyph>
<glyph name="perthousand" format="2">
  <advance width="2038.0"/>
  <unicode hex="2030"/>
  <outline>
    <contour>
      <point x="119.4" y="0.0" type="line"/>
      <point x="365.8" y="0.0" type="line"/>
      <point x="1370.8" y="1400.0" type="line"/>
      <point x="1123.3999999999999" y="1400.0" type="line"/>
    </contour>
    <contour>
      <point x="416.6" y="812.8" type="curve"/>
      <point x="560.5999999999999" y="812.8"/>
      <point x="700.1999999999999" y="927.5999999999999"/>
      <point x="722.0" y="1080.4" type="curve"/>
      <point x="744.8" y="1241.0"/>
      <point x="630.6" y="1372.4"/>
      <point x="471.8" y="1372.4" type="curve"/>
      <point x="326.40000000000003" y="1372.4"/>
      <point x="186.2" y="1257.8"/>
      <point x="165.4" y="1103.6" type="curve"/>
      <point x="142.2" y="941.6"/>
      <point x="257.2" y="812.8"/>
    </contour>
    <contour>
      <point x="413.40000000000003" y="960.0" type="curve"/>
      <point x="345.6" y="960.0"/>
      <point x="299.8" y="1013.0"/>
      <point x="309.40000000000003" y="1080.4" type="curve"/>
      <point x="319.8" y="1160.4"/>
      <point x="394.8" y="1224.6"/>
      <point x="474.8" y="1224.6" type="curve"/>
      <point x="541.4" y="1224.6"/>
      <point x="587.6" y="1171.6"/>
      <point x="578.0" y="1103.6" type="curve"/>
      <point x="566.6" y="1024.8"/>
      <point x="492.2" y="960.0"/>
    </contour>
    <contour>
      <point x="996.4" y="26.799999999999997" type="curve"/>
      <point x="1144.3999999999999" y="26.799999999999997"/>
      <point x="1282.3999999999999" y="147.8"/>
      <point x="1302.8" y="295.0" type="curve"/>
      <point x="1324.6" y="450.6"/>
      <point x="1216.8" y="587.8"/>
      <point x="1051.6" y="587.8" type="curve"/>
      <point x="907.6" y="587.8"/>
      <point x="766.8000000000001" y="471.0"/>
      <point x="745.0" y="318.8" type="curve"/>
      <point x="723.2" y="164.0"/>
      <point x="833.8" y="26.799999999999997"/>
    </contour>
    <contour>
      <point x="993.4" y="174.0" type="curve"/>
      <point x="926.8" y="174.0"/>
      <point x="879.4" y="228.4"/>
      <point x="889.6" y="295.0" type="curve"/>
      <point x="900.4" y="374.4"/>
      <point x="975.4" y="440.0"/>
      <point x="1054.2" y="440.0" type="curve"/>
      <point x="1121.4" y="440.0"/>
      <point x="1167.8000000000002" y="385.6"/>
      <point x="1158.8000000000002" y="318.8" type="curve"/>
      <point x="1147.8000000000002" y="239.6"/>
      <point x="1072.8000000000002" y="174.0"/>
    </contour>
    <contour>
      <point x="1622.8000000000002" y="26.799999999999997" type="curve"/>
      <point x="1770.8" y="26.799999999999997"/>
      <point x="1908.8" y="147.8"/>
      <point x="1929.2" y="295.0" type="curve"/>
      <point x="1951.0" y="450.6"/>
      <point x="1843.2" y="587.8"/>
      <point x="1678.0" y="587.8" type="curve"/>
      <point x="1533.3999999999999" y="587.8"/>
      <point x="1393.2" y="471.0"/>
      <point x="1371.4" y="318.8" type="curve"/>
      <point x="1349.6" y="164.0"/>
      <point x="1460.2" y="26.799999999999997"/>
    </contour>
    <contour>
      <point x="1619.8000000000002" y="174.0" type="curve"/>
      <point x="1553.2" y="174.0"/>
      <point x="1505.8" y="228.4"/>
      <point x="1515.3999999999999" y="295.0" type="curve"/>
      <point x="1526.8" y="374.4"/>
      <point x="1601.8" y="440.0"/>
      <point x="1680.6000000000001" y="440.0" type="curve"/>
      <point x="1747.8" y="440.0"/>
      <point x="1794.2" y="385.6"/>
      <point x="1784.6" y="318.8" type="curve"/>
      <point x="1774.2" y="239.6"/>
      <point x="1699.2" y="174.0"/>
    </contour>
  </outline>
</glyph>
<glyph name="primeReversed" format="2">
  <advance width="512.0"/>
  <unicode hex="2035"/>
  <outline>
    <contour>
      <point x="306.4" y="878.0" type="line"/>
      <point x="444.6" y="878.0" type="line"/>
      <point x="456.0" y="1400.0" type="line"/>
      <point x="248.4" y="1400.0" type="line"/>
    </contour>
  </outline>
</glyph>
<glyph name="guilsinglleft" format="2">
  <advance width="737.5"/>
  <unicode hex="2039"/>
  <outline>
    <contour>
      <point x="388.8" y="261.0" type="line"/>
      <point x="601.4" y="261.0" type="line"/>
      <point x="352.6" y="601.0" type="line"/>
      <point x="701.5999999999999" y="939.0" type="line"/>
      <point x="479.6" y="939.0" type="line"/>
      <point x="134.0" y="601.0" type="line"/>
    </contour>
  </outline>
</glyph>
<glyph name="guilsinglright" format="2">
  <advance width="737.5"/>
  <unicode hex="203A"/>
  <outline>
    <contour>
      <point x="64.2" y="261.0" type="line"/>
      <point x="286.6" y="261.0" type="line"/>
      <point x="631.8" y="601.0" type="line"/>
      <point x="377.40000000000003" y="939.0" type="line"/>
      <point x="163.8" y="939.0" type="line"/>
      <point x="412.6" y="601.0" type="line"/>
    </contour>
  </outline>
</glyph>
<glyph name="fraction" format="2">
  <advance width="985.5"/>
  <unicode hex="2044"/>
  <unicode hex="2215"/>
  <outline>
    <contour>
      <point x="-72.4" y="0.0" type="line"/>
      <point x="109.60000000000001" y="0.0" type="line"/>
      <point x="1114.6" y="1400.0" type="line"/>
      <point x="932.2" y="1400.0" type="line"/>
    </contour>
  </outline>
</glyph>
<glyph name="zerosuperior" format="2">
  <advance width="648.0"/>
  <unicode hex="2070"/>
  <outline>
    <contour>
      <point x="377.6" y="798.0" type="curve"/>
      <point x="510.6" y="798.0"/>
      <point x="637.6" y="935.8"/>
      <point x="663.6" y="1121.8000000000002" type="curve"/>
      <point x="691.6" y="1318.4"/>
      <point x="593.4" y="1468.0"/>
      <point x="448.4" y="1468.0" type="curve"/>
      <point x="315.4" y="1468.0"/>
      <point x="188.4" y="1329.6"/>
      <point x="162.4" y="1145.0" type="curve"/>
      <point x="134.4" y="947.0"/>
      <point x="232.6" y="798.0"/>
    </contour>
    <contour>
      <point x="371.6" y="922.8" type="curve"/>
      <point x="303.0" y="922.8"/>
      <point x="278.6" y="1027.8000000000002"/>
      <point x="291.6" y="1121.8000000000002" type="curve"/>
      <point x="305.6" y="1220.0"/>
      <point x="369.79999999999995" y="1343.8"/>
      <point x="454.4" y="1343.8" type="curve"/>
      <point x="521.1999999999999" y="1343.8"/>
      <point x="547.4" y="1237.3999999999999"/>
      <point x="534.4" y="1145.0" type="curve"/>
      <point x="521.4" y="1051.6000000000001"/>
      <point x="452.59999999999997" y="922.8"/>
    </contour>
  </outline>
</glyph>
<glyph name="foursuperior" format="2">
  <advance width="687.75"/>
  <unicode hex="2074"/>
  <outline>
    <contour>
      <point x="394.0" y="818.0" type="line"/>
      <point x="526.0" y="818.0" type="line"/>
      <point x="540.4" y="923.8" type="line"/>
      <point x="603.6" y="923.8" type="line"/>
      <point x="621.8000000000001" y="1055.8" type="line"/>
      <point x="558.6" y="1055.8" type="line"/>
      <point x="614.0" y="1449.0" type="line"/>
      <point x="459.59999999999997" y="1449.0" type="line"/>
      <point x="175.6" y="1082.6" type="line"/>
      <point x="155.4" y="923.8" type="line"/>
      <point x="408.4" y="923.8" type="line"/>
    </contour>
    <contour>
      <point x="307.6" y="1055.8" type="line"/>
      <point x="469.59999999999997" y="1266.2" type="line"/>
      <point x="437.59999999999997" y="1055.8" type="line"/>
    </contour>
  </outline>
</glyph>
<glyph name="fivesuperior" format="2">
  <advance width="692.5"/>
  <unicode hex="2075"/>
  <outline>
    <contour>
      <point x="369.59999999999997" y="798.0" type="curve" smooth="yes"/>
      <point x="491.40000000000003" y="798.0"/>
      <point x="602.8" y="883.4"/>
      <point x="619.8" y="1005.8" type="curve" smooth="yes"/>
      <point x="641.4" y="1158.8000000000002"/>
      <point x="535.5999999999999" y="1256.0"/>
      <point x="366.2" y="1245.8" type="curve"/>
      <point x="389.4" y="1332.0" type="line"/>
      <point x="612.0" y="1332.0" type="line"/>
      <point x="628.4" y="1449.0" type="line"/>
      <point x="284.4" y="1449.0" type="line"/>
      <point x="209.20000000000002" y="1097.6" type="line"/>
      <point x="282.8" y="1112.8"/>
      <point x="360.6" y="1119.4"/>
      <point x="413.59999999999997" y="1118.6" type="curve" smooth="yes"/>
      <point x="463.2" y="1114.3999999999999"/>
      <point x="497.40000000000003" y="1077.8"/>
      <point x="491.0" y="1029.6000000000001" type="curve" smooth="yes"/>
      <point x="482.2" y="969.4"/>
      <point x="424.2" y="922.8"/>
      <point x="363.59999999999997" y="922.8" type="curve" smooth="yes"/>
      <point x="313.40000000000003" y="922.8"/>
      <point x="280.6" y="957.5999999999999"/>
      <point x="287.4" y="1011.8" type="curve"/>
      <point x="157.8" y="1023.6" type="line"/>
      <point x="139.4" y="895.2"/>
      <point x="236.0" y="798.0"/>
    </contour>
  </outline>
</glyph>
<glyph name="sixsuperior" format="2">
  <advance width="706.0"/>
  <unicode hex="2076"/>
  <outline>
    <contour>
      <point x="382.6" y="798.0" type="curve" smooth="yes"/>
      <point x="501.8" y="798.0"/>
      <point x="615.0" y="879.6"/>
      <point x="632.6" y="1006.0" type="curve" smooth="yes"/>
      <point x="650.4" y="1130.8000000000002"/>
      <point x="570.8000000000001" y="1233.0"/>
      <point x="441.6" y="1243.2" type="curve"/>
      <point x="595.4" y="1446.0" type="line"/>
      <point x="437.59999999999997" y="1450.6" type="line"/>
      <point x="206.8" y="1131.3999999999999"/>
      <point x="180.0" y="1099.6000000000001"/>
      <point x="170.4" y="1030.6" type="curve" smooth="yes"/>
      <point x="152.0" y="896.8000000000001"/>
      <point x="244.2" y="798.0"/>
    </contour>
    <contour>
      <point x="376.6" y="922.8" type="curve" smooth="yes"/>
      <point x="333.59999999999997" y="922.8"/>
      <point x="295.79999999999995" y="945.8"/>
      <point x="296.79999999999995" y="996.8" type="curve" smooth="yes"/>
      <point x="301.2" y="1057.4"/>
      <point x="356.6" y="1118.6"/>
      <point x="428.0" y="1118.6" type="curve" smooth="yes"/>
      <point x="470.4" y="1118.6"/>
      <point x="507.40000000000003" y="1088.6"/>
      <point x="506.2" y="1039.8" type="curve" smooth="yes"/>
      <point x="502.40000000000003" y="975.2"/>
      <point x="441.2" y="922.8"/>
    </contour>
  </outline>
</glyph>
<glyph name="sevensuperior" format="2">
  <advance width="658.25"/>
  <unicode hex="2077"/>
  <outline>
    <contour>
      <point x="191.4" y="818.0" type="line"/>
      <point x="346.8" y="818.0" type="line"/>
      <point x="703.6" y="1318.4" type="line"/>
      <point x="719.4" y="1447.2" type="line"/>
      <point x="253.0" y="1447.2" type="line"/>
      <point x="234.4" y="1315.2" type="line"/>
      <point x="545.8" y="1315.2" type="line"/>
    </contour>
  </outline>
</glyph>
<glyph name="eightsuperior" format="2">
  <advance width="619.875"/>
  <unicode hex="2078"/>
  <outline>
    <contour>
      <point x="362.8" y="798.0" type="curve" smooth="yes"/>
      <point x="476.40000000000003" y="798.0"/>
      <point x="576.8" y="873.4"/>
      <point x="592.8" y="986.1999999999999" type="curve" smooth="yes"/>
      <point x="601.8" y="1052.6000000000001"/>
      <point x="580.5999999999999" y="1107.2"/>
      <point x="549.0" y="1140.8" type="curve"/>
      <point x="589.4" y="1178.6000000000001"/>
      <point x="611.6" y="1224.6"/>
      <point x="617.8" y="1267.0" type="curve" smooth="yes"/>
      <point x="634.2" y="1384.6"/>
      <point x="549.8" y="1469.4"/>
      <point x="433.40000000000003" y="1469.4" type="curve" smooth="yes"/>
      <point x="329.4" y="1469.4"/>
      <point x="235.8" y="1396.3999999999999"/>
      <point x="220.4" y="1290.8" type="curve" smooth="yes"/>
      <point x="213.4" y="1236.3999999999999"/>
      <point x="230.0" y="1187.8"/>
      <point x="253.4" y="1158.3999999999999" type="curve"/>
      <point x="203.79999999999998" y="1116.3999999999999"/>
      <point x="175.4" y="1063.8"/>
      <point x="167.8" y="1009.4" type="curve" smooth="yes"/>
      <point x="150.4" y="885.2"/>
      <point x="239.2" y="798.0"/>
    </contour>
    <contour>
      <point x="356.8" y="921.4" type="curve" smooth="yes"/>
      <point x="317.8" y="921.4"/>
      <point x="291.0" y="947.5999999999999"/>
      <point x="296.4" y="986.1999999999999" type="curve" smooth="yes"/>
      <point x="303.8" y="1037.6000000000001"/>
      <point x="352.20000000000005" y="1079.8"/>
      <point x="401.8" y="1079.8" type="curve" smooth="yes"/>
      <point x="442.8" y="1079.8"/>
      <point x="469.40000000000003" y="1048.8"/>
      <point x="463.6" y="1009.4" type="curve" smooth="yes"/>
      <point x="456.8" y="959.4"/>
      <point x="408.4" y="921.4"/>
    </contour>
    <contour>
      <point x="397.6" y="1211.8" type="curve" smooth="yes"/>
      <point x="366.8" y="1211.8"/>
      <point x="345.8" y="1236.6"/>
      <point x="349.6" y="1267.0" type="curve" smooth="yes"/>
      <point x="355.40000000000003" y="1311.3999999999999"/>
      <point x="396.6" y="1343.8"/>
      <point x="439.0" y="1343.8" type="curve" smooth="yes"/>
      <point x="471.40000000000003" y="1343.8"/>
      <point x="494.0" y="1323.1999999999998"/>
      <point x="488.6" y="1290.8" type="curve" smooth="yes"/>
      <point x="483.4" y="1248.3999999999999"/>
      <point x="441.6" y="1211.8"/>
    </contour>
  </outline>
</glyph>
<glyph name="ninesuperior" format="2">
  <advance width="658.375"/>
  <unicode hex="2079"/>
  <outline>
    <contour>
      <point x="215.2" y="818.0" type="line"/>
      <point x="371.40000000000003" y="818.0" type="line"/>
      <point x="596.8" y="1123.2" type="line"/>
      <point x="611.8" y="1148.0"/>
      <point x="620.4" y="1172.8000000000002"/>
      <point x="624.8000000000001" y="1192.2" type="curve" smooth="yes"/>
      <point x="678.1999999999999" y="1333.2"/>
      <point x="585.5999999999999" y="1468.0"/>
      <point x="429.40000000000003" y="1468.0" type="curve" smooth="yes"/>
      <point x="324.6" y="1468.0"/>
      <point x="226.6" y="1403.6"/>
      <point x="195.8" y="1301.8" type="curve" smooth="yes"/>
      <point x="138.79999999999998" y="1166.6"/>
      <point x="225.0" y="1020.6"/>
      <point x="369.20000000000005" y="1023.4" type="curve"/>
    </contour>
    <contour>
      <point x="384.6" y="1146.0" type="curve" smooth="yes"/>
      <point x="350.6" y="1146.0"/>
      <point x="307.59999999999997" y="1166.2"/>
      <point x="306.59999999999997" y="1218.3999999999999" type="curve" smooth="yes"/>
      <point x="307.2" y="1283.0"/>
      <point x="364.2" y="1343.8"/>
      <point x="435.40000000000003" y="1343.8" type="curve" smooth="yes"/>
      <point x="473.59999999999997" y="1343.8"/>
      <point x="511.59999999999997" y="1318.3999999999999"/>
      <point x="514.0" y="1276.0" type="curve" smooth="yes"/>
      <point x="513.4" y="1207.6"/>
      <point x="451.40000000000003" y="1146.0"/>
    </contour>
  </outline>
</glyph>
<glyph name="zeroinferior" format="2">
  <advance width="648.0"/>
  <unicode hex="2080"/>
  <outline>
    <contour>
      <point x="261.2" y="-31.0" type="curve"/>
      <point x="394.6" y="-31.0"/>
      <point x="521.4" y="113.4"/>
      <point x="548.0" y="299.4" type="curve"/>
      <point x="575.4" y="495.59999999999997"/>
      <point x="478.2" y="652.4"/>
      <point x="333.6" y="652.4" type="curve"/>
      <point x="200.2" y="652.4"/>
      <point x="72.8" y="506.8"/>
      <point x="47.8" y="322.6" type="curve"/>
      <point x="18.8" y="124.6"/>
      <point x="116.6" y="-31.0"/>
    </contour>
    <contour>
      <point x="256.0" y="101.0" type="curve"/>
      <point x="188.4" y="101.0"/>
      <point x="162.4" y="205.4"/>
      <point x="176.0" y="299.4" type="curve"/>
      <point x="189.4" y="397.2"/>
      <point x="254.6" y="520.4"/>
      <point x="338.8" y="520.4" type="curve"/>
      <point x="406.0" y="520.4"/>
      <point x="432.4" y="414.59999999999997"/>
      <point x="419.8" y="322.6" type="curve"/>
      <point x="405.8" y="228.79999999999998"/>
      <point x="338.0" y="101.0"/>
    </contour>
  </outline>
</glyph>
<glyph name="oneinferior" format="2">
  <advance width="441.625"/>
  <unicode hex="2081"/>
  <outline>
    <contour>
      <point x="95.4" y="0.0" type="line"/>
      <point x="227.39999999999998" y="0.0" type="line"/>
      <point x="315.4" y="631.0" type="line"/>
      <point x="132.2" y="631.0" type="line"/>
      <point x="95.4" y="499.0" type="line"/>
      <point x="165.8" y="499.0" type="line"/>
    </contour>
  </outline>
</glyph>
<glyph name="twoinferior" format="2">
  <advance width="705.625"/>
  <unicode hex="2082"/>
  <outline>
    <contour>
      <point x="26.0" y="0.0" type="line"/>
      <point x="484.20000000000005" y="0.0" type="line"/>
      <point x="502.40000000000003" y="132.0" type="line"/>
      <point x="285.79999999999995" y="127.8" type="line"/>
      <point x="397.59999999999997" y="207.8"/>
      <point x="535.6" y="312.6"/>
      <point x="549.8" y="416.6" type="curve"/>
      <point x="568.6" y="550.5999999999999"/>
      <point x="474.0" y="657.8"/>
      <point x="340.4" y="657.8" type="curve"/>
      <point x="216.4" y="657.8"/>
      <point x="104.6" y="562.4"/>
      <point x="87.2" y="434.40000000000003" type="curve"/>
      <point x="216.8" y="422.6" type="line"/>
      <point x="224.6" y="479.40000000000003"/>
      <point x="283.79999999999995" y="525.8"/>
      <point x="345.59999999999997" y="525.8" type="curve"/>
      <point x="395.40000000000003" y="525.8"/>
      <point x="428.4" y="491.20000000000005"/>
      <point x="418.79999999999995" y="439.40000000000003" type="curve"/>
      <point x="355.0" y="305.8"/>
      <point x="157.0" y="196.79999999999998"/>
      <point x="38.2" y="122.8" type="curve"/>
    </contour>
  </outline>
</glyph>
<glyph name="threeinferior" format="2">
  <advance width="570.0"/>
  <unicode hex="2083"/>
  <outline>
    <contour>
      <point x="223.2" y="-31.0" type="curve" smooth="yes"/>
      <point x="332.8" y="-31.0"/>
      <point x="435.4" y="55.4"/>
      <point x="450.8" y="166.60000000000002" type="curve" smooth="yes"/>
      <point x="461.0" y="234.60000000000002"/>
      <point x="441.8" y="283.6"/>
      <point x="405.20000000000005" y="320.40000000000003" type="curve"/>
      <point x="443.6" y="354.59999999999997"/>
      <point x="466.4" y="401.40000000000003"/>
      <point x="472.59999999999997" y="446.6" type="curve" smooth="yes"/>
      <point x="489.4" y="562.1999999999999"/>
      <point x="406.8" y="652.4"/>
      <point x="290.6" y="652.4" type="curve" smooth="yes"/>
      <point x="186.6" y="652.4"/>
      <point x="93.6" y="573.4"/>
      <point x="77.6" y="464.40000000000003" type="curve"/>
      <point x="207.79999999999998" y="452.6" type="line"/>
      <point x="212.6" y="488.59999999999997"/>
      <point x="254.79999999999998" y="520.4"/>
      <point x="295.8" y="520.4" type="curve" smooth="yes"/>
      <point x="326.59999999999997" y="520.4"/>
      <point x="348.79999999999995" y="499.8"/>
      <point x="344.4" y="470.40000000000003" type="curve" smooth="yes"/>
      <point x="337.0" y="419.20000000000005"/>
      <point x="293.8" y="371.8"/>
      <point x="212.39999999999998" y="371.8" type="curve"/>
      <point x="211.79999999999998" y="278.4" type="line"/>
      <point x="295.6" y="278.4"/>
      <point x="329.0" y="237.4"/>
      <point x="322.6" y="190.4" type="curve" smooth="yes"/>
      <point x="315.8" y="138.4"/>
      <point x="268.6" y="101.0"/>
      <point x="218.0" y="101.0" type="curve" smooth="yes"/>
      <point x="178.0" y="101.0"/>
      <point x="151.4" y="127.20000000000002"/>
      <point x="158.2" y="172.60000000000002" type="curve"/>
      <point x="27.6" y="184.4" type="line"/>
      <point x="11.2" y="66.6"/>
      <point x="99.80000000000001" y="-31.0"/>
    </contour>
  </outline>
</glyph>
<glyph name="fourinferior" format="2">
  <advance width="687.75"/>
  <unicode hex="2084"/>
  <outline>
    <contour>
      <point x="279.0" y="0.0" type="line"/>
      <point x="411.0" y="0.0" type="line"/>
      <point x="425.4" y="105.8" type="line"/>
      <point x="488.6" y="105.8" type="line"/>
      <point x="506.8" y="237.8" type="line"/>
      <point x="443.6" y="237.8" type="line"/>
      <point x="499.0" y="631.0" type="line"/>
      <point x="344.59999999999997" y="631.0" type="line"/>
      <point x="60.6" y="264.6" type="line"/>
      <point x="40.4" y="105.8" type="line"/>
      <point x="293.4" y="105.8" type="line"/>
    </contour>
    <contour>
      <point x="192.6" y="237.8" type="line"/>
      <point x="354.59999999999997" y="448.2" type="line"/>
      <point x="322.59999999999997" y="237.8" type="line"/>
    </contour>
  </outline>
</glyph>
<glyph name="fiveinferior" format="2">
  <advance width="692.5"/>
  <unicode hex="2085"/>
  <outline>
    <contour>
      <point x="252.59999999999997" y="-31.0" type="curve"/>
      <point x="375.40000000000003" y="-31.0"/>
      <point x="486.59999999999997" y="61.199999999999996"/>
      <point x="503.59999999999997" y="183.60000000000002" type="curve"/>
      <point x="522.4" y="319.2"/>
      <point x="445.6" y="426.0"/>
      <point x="302.2" y="426.0" type="curve"/>
      <point x="256.8" y="423.6" type="line"/>
      <point x="272.4" y="507.8" type="line"/>
      <point x="496.4" y="507.8" type="line"/>
      <point x="512.8" y="625.6" type="line"/>
      <point x="168.8" y="625.6" type="line"/>
      <point x="87.0" y="281.4" type="line"/>
      <point x="292.4" y="294.0" type="line"/>
      <point x="348.0" y="294.0"/>
      <point x="381.8" y="256.0"/>
      <point x="375.40000000000003" y="207.4" type="curve"/>
      <point x="367.0" y="146.6"/>
      <point x="309.6" y="101.0"/>
      <point x="247.39999999999998" y="101.0" type="curve"/>
      <point x="198.8" y="101.0"/>
      <point x="164.4" y="135.4"/>
      <point x="172.8" y="189.60000000000002" type="curve"/>
      <point x="42.2" y="201.4" type="line"/>
      <point x="23.8" y="72.39999999999999"/>
      <point x="119.4" y="-31.0"/>
    </contour>
  </outline>
</glyph>
<glyph name="sixinferior" format="2">
  <advance width="682.0"/>
  <unicode hex="2086"/>
  <outline>
    <contour>
      <point x="266.2" y="-31.0" type="curve" smooth="yes"/>
      <point x="385.8" y="-31.0"/>
      <point x="499.4" y="57.8"/>
      <point x="517.6" y="183.8" type="curve" smooth="yes"/>
      <point x="534.8" y="309.0"/>
      <point x="455.2" y="411.8"/>
      <point x="325.40000000000003" y="420.40000000000003" type="curve"/>
      <point x="479.8" y="625.4" type="line"/>
      <point x="322.6" y="630.0" type="line"/>
      <point x="91.8" y="310.20000000000005"/>
      <point x="64.4" y="277.8"/>
      <point x="54.8" y="209.4" type="curve" smooth="yes"/>
      <point x="36.4" y="74.39999999999999"/>
      <point x="127.6" y="-31.0"/>
    </contour>
    <contour>
      <point x="261.0" y="101.0" type="curve" smooth="yes"/>
      <point x="218.99999999999997" y="101.0"/>
      <point x="180.20000000000002" y="123.6"/>
      <point x="182.20000000000002" y="174.0" type="curve" smooth="yes"/>
      <point x="187.0" y="234.60000000000002"/>
      <point x="241.00000000000003" y="296.4"/>
      <point x="312.4" y="296.4" type="curve" smooth="yes"/>
      <point x="355.4" y="296.4"/>
      <point x="391.8" y="266.8"/>
      <point x="390.59999999999997" y="217.6" type="curve" smooth="yes"/>
      <point x="386.8" y="153.0"/>
      <point x="326.6" y="101.0"/>
    </contour>
  </outline>
</glyph>
<glyph name="seveninferior" format="2">
  <advance width="658.25"/>
  <unicode hex="2087"/>
  <outline>
    <contour>
      <point x="73.4" y="0.0" type="line"/>
      <point x="229.40000000000003" y="0.0" type="line"/>
      <point x="588.6" y="502.2" type="line"/>
      <point x="604.4" y="631.0" type="line"/>
      <point x="138.0" y="631.0" type="line"/>
      <point x="119.8" y="499.0" type="line"/>
      <point x="431.8" y="499.0" type="line"/>
    </contour>
  </outline>
</glyph>
<glyph name="eightinferior" format="2">
  <advance width="619.875"/>
  <unicode hex="2088"/>
  <outline>
    <contour>
      <point x="245.8" y="-31.0" type="curve" smooth="yes"/>
      <point x="359.8" y="-31.0"/>
      <point x="461.19999999999993" y="52.199999999999996"/>
      <point x="476.59999999999997" y="163.4" type="curve" smooth="yes"/>
      <point x="486.19999999999993" y="230.4"/>
      <point x="464.40000000000003" y="286.40000000000003"/>
      <point x="433.4" y="318.59999999999997" type="curve"/>
      <point x="473.8" y="356.79999999999995"/>
      <point x="496.6" y="402.4"/>
      <point x="502.8" y="444.79999999999995" type="curve" smooth="yes"/>
      <point x="519.0" y="563.4"/>
      <point x="434.59999999999997" y="653.0"/>
      <point x="318.8" y="653.0" type="curve" smooth="yes"/>
      <point x="214.8" y="653.0"/>
      <point x="120.8" y="574.6"/>
      <point x="105.39999999999999" y="468.59999999999997" type="curve" smooth="yes"/>
      <point x="97.8" y="413.6"/>
      <point x="114.4" y="366.0"/>
      <point x="137.8" y="336.79999999999995" type="curve"/>
      <point x="89.19999999999999" y="295.20000000000005"/>
      <point x="59.8" y="241.6"/>
      <point x="51.6" y="187.2" type="curve" smooth="yes"/>
      <point x="34.8" y="63.4"/>
      <point x="122.6" y="-31.0"/>
    </contour>
    <contour>
      <point x="240.60000000000002" y="99.2" type="curve" smooth="yes"/>
      <point x="202.8" y="99.2"/>
      <point x="175.4" y="125.4"/>
      <point x="180.8" y="163.4" type="curve" smooth="yes"/>
      <point x="187.6" y="215.4"/>
      <point x="236.60000000000002" y="257.6"/>
      <point x="286.20000000000005" y="257.6" type="curve" smooth="yes"/>
      <point x="326.59999999999997" y="257.6"/>
      <point x="353.8" y="226.6"/>
      <point x="347.40000000000003" y="187.2" type="curve" smooth="yes"/>
      <point x="340.6" y="136.6"/>
      <point x="292.8" y="99.2"/>
    </contour>
    <contour>
      <point x="281.40000000000003" y="389.6" type="curve" smooth="yes"/>
      <point x="251.20000000000002" y="389.6"/>
      <point x="230.20000000000002" y="415.4"/>
      <point x="234.60000000000002" y="444.79999999999995" type="curve" smooth="yes"/>
      <point x="240.4" y="489.2"/>
      <point x="281.40000000000003" y="521.0"/>
      <point x="323.40000000000003" y="521.0" type="curve" smooth="yes"/>
      <point x="356.8" y="521.0"/>
      <point x="378.4" y="500.40000000000003"/>
      <point x="373.6" y="468.59999999999997" type="curve" smooth="yes"/>
      <point x="367.8" y="426.6"/>
      <point x="326.0" y="389.6"/>
    </contour>
  </outline>
</glyph>
<glyph name="nineinferior" format="2">
  <advance width="658.75"/>
  <unicode hex="2089"/>
  <outline>
    <contour>
      <point x="100.19999999999999" y="0.0" type="line"/>
      <point x="256.40000000000003" y="0.0" type="line"/>
      <point x="484.8" y="309.4" type="line"/>
      <point x="594.5999999999999" y="465.6"/>
      <point x="498.40000000000003" y="657.8"/>
      <point x="315.8" y="657.8" type="curve" smooth="yes"/>
      <point x="210.60000000000002" y="657.8"/>
      <point x="112.2" y="586.6"/>
      <point x="81.8" y="484.8" type="curve" smooth="yes"/>
      <point x="23.8" y="349.6"/>
      <point x="110.0" y="202.60000000000002"/>
      <point x="254.20000000000002" y="205.4" type="curve"/>
    </contour>
    <contour>
      <point x="269.6" y="329.0" type="curve" smooth="yes"/>
      <point x="236.6" y="329.0"/>
      <point x="192.6" y="348.2"/>
      <point x="191.6" y="401.0" type="curve" smooth="yes"/>
      <point x="192.20000000000002" y="465.0"/>
      <point x="249.60000000000002" y="525.8"/>
      <point x="320.40000000000003" y="525.8" type="curve" smooth="yes"/>
      <point x="359.0" y="525.8"/>
      <point x="396.59999999999997" y="500.40000000000003"/>
      <point x="399.0" y="458.0" type="curve" smooth="yes"/>
      <point x="398.40000000000003" y="390.20000000000005"/>
      <point x="336.8" y="329.0"/>
    </contour>
  </outline>
</glyph>
<glyph name="euro" format="2">
  <advance width="1135.75"/>
  <unicode hex="20AC"/>
  <outline>
    <contour>
      <point x="989.1999999999999" y="-15.8" type="curve"/>
      <point x="1008.3999999999999" y="202.8" type="line"/>
      <point x="762.8" y="142.60000000000002"/>
      <point x="558.5999999999999" y="262.6"/>
      <point x="499.6" y="487.8" type="curve"/>
      <point x="791.6" y="493.0" type="line"/>
      <point x="812.4" y="640.8" type="line"/>
      <point x="480.79999999999995" y="640.8" type="line"/>
      <point x="495.6" y="757.0" type="line"/>
      <point x="828.6" y="757.0" type="line"/>
      <point x="849.4" y="904.8" type="line"/>
      <point x="561.4" y="899.5999999999999" type="line"/>
      <point x="679.5999999999999" y="1120.2"/>
      <point x="924.8" y="1262.6"/>
      <point x="1160.3999999999999" y="1201.0" type="curve"/>
      <point x="1178.6" y="1415.6" type="line"/>
      <point x="831.4" y="1477.6"/>
      <point x="477.4" y="1261.3999999999999"/>
      <point x="331.8" y="910.4" type="curve"/>
      <point x="136.4" y="904.8" type="line"/>
      <point x="115.6" y="757.0" type="line"/>
      <point x="285.0" y="757.0" type="line"/>
      <point x="268.79999999999995" y="640.8" type="line"/>
      <point x="99.4" y="640.8" type="line"/>
      <point x="78.6" y="493.0" type="line"/>
      <point x="277.2" y="498.6" type="line"/>
      <point x="326.6" y="153.6"/>
      <point x="620.4" y="-78.4"/>
    </contour>
  </outline>
</glyph>
<glyph name="leftArrow" format="2">
  <advance width="1394.5"/>
  <unicode hex="2190"/>
  <outline>
    <contour>
      <point x="566.6" y="230.4" type="line"/>
      <point x="730.8" y="378.8" type="line"/>
      <point x="499.40000000000003" y="645.0" type="line"/>
      <point x="1334.8" y="645.0" type="line"/>
      <point x="1364.2" y="855.0" type="line"/>
      <point x="533.5999999999999" y="855.0" type="line"/>
      <point x="835.8" y="1121.8" type="line"/>
      <point x="703.6" y="1269.6" type="line"/>
      <point x="115.0" y="750.0" type="line"/>
    </contour>
  </outline>
</glyph>
<glyph name="upArrow" format="2">
  <advance width="1200.25"/>
  <unicode hex="2191"/>
  <outline>
    <contour>
      <point x="443.6" y="131.6" type="line"/>
      <point x="653.5999999999999" y="131.6" type="line"/>
      <point x="772.8" y="965.8" type="line"/>
      <point x="1004.6" y="699.8" type="line"/>
      <point x="1169.8000000000002" y="848.8" type="line"/>
      <point x="718.1999999999999" y="1368.4" type="line"/>
      <point x="129.4" y="848.8" type="line"/>
      <point x="261.6" y="699.8" type="line"/>
      <point x="562.8" y="965.8" type="line"/>
    </contour>
  </outline>
</glyph>
<glyph name="rightArrow" format="2">
  <advance width="1395.75"/>
  <unicode hex="2192"/>
  <outline>
    <contour>
      <point x="761.4" y="230.4" type="line"/>
      <point x="1350.6" y="750.0" type="line"/>
      <point x="899.4" y="1269.6" type="line"/>
      <point x="734.8" y="1121.8" type="line"/>
      <point x="964.1999999999999" y="855.0" type="line"/>
      <point x="129.4" y="855.0" type="line"/>
      <point x="100.6" y="645.0" type="line"/>
      <point x="930.6" y="645.0" type="line"/>
      <point x="629.8" y="378.8" type="line"/>
    </contour>
  </outline>
</glyph>
<glyph name="downArrow" format="2">
  <advance width="1199.0"/>
  <unicode hex="2193"/>
  <outline>
    <contour>
      <point x="550.8" y="132.8" type="line"/>
      <point x="1140.6" y="652.4" type="line"/>
      <point x="1008.6" y="800.8" type="line"/>
      <point x="706.8" y="535.4" type="line"/>
      <point x="825.4" y="1367.8" type="line"/>
      <point x="615.4" y="1367.8" type="line"/>
      <point x="496.8" y="535.4" type="line"/>
      <point x="265.79999999999995" y="800.8" type="line"/>
      <point x="101.6" y="652.4" type="line"/>
    </contour>
  </outline>
</glyph>
<glyph name="leftRightArrow" format="2">
  <advance width="1790.75"/>
  <unicode hex="2194"/>
  <outline>
    <contour>
      <point x="566.6" y="230.4" type="line"/>
      <point x="730.8" y="378.8" type="line"/>
      <point x="499.40000000000003" y="645.0" type="line"/>
      <point x="1325.6000000000001" y="645.0" type="line"/>
      <point x="1024.8" y="378.8" type="line"/>
      <point x="1156.4" y="230.4" type="line"/>
      <point x="1745.6" y="750.0" type="line"/>
      <point x="1294.4" y="1269.6" type="line"/>
      <point x="1129.8" y="1121.8" type="line"/>
      <point x="1359.2" y="855.0" type="line"/>
      <point x="533.5999999999999" y="855.0" type="line"/>
      <point x="835.8" y="1121.8" type="line"/>
      <point x="703.6" y="1269.6" type="line"/>
      <point x="115.0" y="750.0" type="line"/>
    </contour>
  </outline>
</glyph>
<glyph name="upDownArrow" format="2">
  <advance width="1200.25"/>
  <unicode hex="2195"/>
  <outline>
    <contour>
      <point x="524.4" y="-65.6" type="line"/>
      <point x="1113.8000000000002" y="454.6" type="line"/>
      <point x="981.6" y="603.6" type="line"/>
      <point x="679.8000000000001" y="337.0" type="line"/>
      <point x="799.4" y="1163.0" type="line"/>
      <point x="1031.2" y="897.0" type="line"/>
      <point x="1197.0" y="1046.0" type="line"/>
      <point x="745.4" y="1565.6" type="line"/>
      <point x="156.6" y="1046.0" type="line"/>
      <point x="288.2" y="897.0" type="line"/>
      <point x="589.4" y="1163.0" type="line"/>
      <point x="469.8" y="337.0" type="line"/>
      <point x="238.6" y="603.6" type="line"/>
      <point x="73.4" y="454.6" type="line"/>
    </contour>
  </outline>
</glyph>
<glyph name="northWestArrow" format="2">
  <advance width="1108.0"/>
  <unicode hex="2196"/>
  <outline>
    <contour>
      <point x="852.4" y="276.6" type="line"/>
      <point x="1017.6" y="424.4" type="line"/>
      <point x="508.6" y="1013.4" type="line"/>
      <point x="887.0" y="1013.4" type="line"/>
      <point x="916.8" y="1223.4" type="line"/>
      <point x="181.8" y="1223.4" type="line"/>
      <point x="78.4" y="488.4" type="line"/>
      <point x="288.4" y="488.4" type="line"/>
      <point x="343.8" y="865.6" type="line"/>
    </contour>
  </outline>
</glyph>
<glyph name="northEastArrow" format="2">
  <advance width="1107.25"/>
  <unicode hex="2197"/>
  <outline>
    <contour>
      <point x="201.20000000000002" y="277.0" type="line"/>
      <point x="870.8" y="864.6" type="line"/>
      <point x="815.8" y="488.0" type="line"/>
      <point x="1025.8000000000002" y="488.0" type="line"/>
      <point x="1128.8000000000002" y="1223.0" type="line"/>
      <point x="392.4" y="1223.0" type="line"/>
      <point x="363.0" y="1013.0" type="line"/>
      <point x="738.6" y="1013.0" type="line"/>
      <point x="69.6" y="425.4" type="line"/>
    </contour>
  </outline>
</glyph>
<glyph name="southEastArrow" format="2">
  <advance width="1107.25"/>
  <unicode hex="2198"/>
  <outline>
    <contour>
      <point x="261.0" y="277.0" type="line"/>
      <point x="996.0000000000001" y="277.0" type="line"/>
      <point x="1099.0" y="1012.0" type="line"/>
      <point x="889.0" y="1012.0" type="line"/>
      <point x="834.6" y="635.4" type="line"/>
      <point x="325.59999999999997" y="1223.0" type="line"/>
      <point x="160.8" y="1074.6" type="line"/>
      <point x="669.4" y="487.0" type="line"/>
      <point x="290.4" y="487.0" type="line"/>
    </contour>
  </outline>
</glyph>
<glyph name="southWestArrow" format="2">
  <advance width="1107.25"/>
  <unicode hex="2199"/>
  <outline>
    <contour>
      <point x="48.6" y="277.0" type="line"/>
      <point x="783.6" y="277.0" type="line"/>
      <point x="813.0" y="487.0" type="line"/>
      <point x="438.79999999999995" y="487.0" type="line"/>
      <point x="1108.2" y="1074.6" type="line"/>
      <point x="976.2" y="1223.0" type="line"/>
      <point x="307.2" y="635.4" type="line"/>
      <point x="362.6" y="1012.0" type="line"/>
      <point x="151.6" y="1012.0" type="line"/>
    </contour>
  </outline>
</glyph>
